<ttFont>
          <CharString index="0">
            252 391 rmoveto
            2 24 12 10 27 3 18 78 rcurveline
            0 -82 -2 -31 -69 -83 3 0 vhcurveto
            -17 -76 1 -3 rlineto
            0 15 1 8 17 3 -6 -36 -4 vhcurveto
            -29 -234 rlineto
            -2 -11 -1 -10 -10 vvcurveto
            -90 1 62 -41 131 hhcurveto
            142 73 62 133 18 hvcurveto
            26 211 2 16 5 5 33 11 rlinecurve
            16 77 rlineto
            0 -71 -2 -53 -29 -68 3 0 vhcurveto
            0 callsubr
            0 8 1 7 15 4 -9 -33 -5 vhcurveto
            0 -21 -184 -7 -47 vhcurveto
            -43 -6 -13 -14 -32 hhcurveto
            -28 -13 16 33 3 1 10 1 6 hvcurveto
            return
          </CharString>
          <CharString index="1">
            rmoveto
            -36 108 -16 5 rlineto
            0 -126 -54 -123 -46 vhcurveto
            21 -71 19 -13 rlineto
            124 31 130 24 0 vvcurveto
            return
          </CharString>
          <CharString index="2">
            269 151 rmoveto
            22 9 53 5 34 vhcurveto
            2 18 27 4 28 hhcurveto
            44 71 -3 0 hvcurveto
            28 115 -10 14 rlineto
            0 -78 -6 -29 vhcurveto
            -27 -33 1 -19 hhcurveto
            20 113 rlineto
            22 4 5 5 26 hhcurveto
            66 20 -8 -35 -17 -8 -32 0 hvcurveto
            140 9 rlineto
            16 94 31 105 0 vvcurveto
            -11 16 rlineto
            -7 -55 -127 -5 -120 hhcurveto
            -90 -140 1 callgsubr
            -79 10 -14 rlineto
            return
          </CharString>
          <CharString index="3">
            172 104 66 113 94 -91 29 -62 25 hvcurveto
            -32 14 -24 12 20 vvcurveto
            18 18 13 27 29 19 -15 -28 -1 -2 -15 0 vhcurveto
            10 -7 106 7 rlineto
            15 70 24 66 0 vvcurveto
            -9 19 rlineto
            0 -73 22 -91 -167 -108 -72 -114 -81 67 -33 58 -26 vhcurveto
            45 -18 39 -14 -25 vvcurveto
            -15 -18 -10 -28 -40 -20 32 38 4 vhcurveto
            -114 -8 rlineto
            -9 -47 -26 -80 0 vvcurveto
            9 -15 rlineto
            0 70 -34 98 vhcurveto
            return
          </CharString>
          <CharString index="4">
            rmoveto
            57 39 40 59 43 -25 25 -45 -58 -39 -40 -60 -43 25 -24 46 hvcurveto
            -188 hmoveto
            58 38 40 59 43 -25 25 -44 -53 callgsubr
            46 hvcurveto
            return
          </CharString>
          <CharString index="5">
            hstem
            778 4 rmoveto
            188 502 14 36 8 11 23 8 rlinecurve
            17 87 rlineto
            0 -61 -1 -54 -56 -88 3 0 vhcurveto
            -18 -83 6 -10 rlineto
            23 hlineto
            21 4 -3 -14 -22 -75 -236 -43 -114 hvcurveto
            -21 hlineto
            0 -6 254 86 vvcurveto
            34 14 11 52 6 vhcurveto
            17 84 -7 9 rlineto
            0 -90 -5 -90 -58 -101 2 0 vhcurveto
            -19 -79 6 -10 rlineto
            44 8 -5 -26 -3 hvcurveto
            -2 -5 -2 -9 -3 -13 -19 -62 -61 -182 -32 -90 rrcurveto
            -21 hlineto
            0 -5 254 86 vvcurveto
            31 16 12 49 8 vhcurveto
            17 84 -6 9 rlineto
            0 -92 -5 -89 -51 -77 2 0 vhcurveto
            -19 -79 6 -10 23 -5 9 -15 9 -47 rlinecurve
            10 -108 38 -398 0 vvcurveto
            270 17 87 268 rlineto
            14 hlineto
            6 -285 rlineto
            return
          </CharString>
          <CharString index="6">
            hstem
            670 3 rmoveto
            144 385 11 27 7 9 17 7 rlinecurve
            14 74 rlineto
            0 -51 -1 -46 -46 -75 2 0 vhcurveto
            -15 -70 6 -9 rlineto
            16 hlineto
            16 1 -1 -10 -17 -53 -173 -32 -85 hvcurveto
            -19 hlineto
            0 -1 230 17 vvcurveto
            27 12 9 40 4 vhcurveto
            14 72 -6 7 rlineto
            0 -76 -3 -78 -51 -86 2 0 vhcurveto
            -16 -67 5 -9 28 1 10 -2 1 -9 rlinecurve
            -1 -3 -3 -7 -5 -17 -11 -39 -49 -149 -23 -64 rrcurveto
            -19 149 hlineto
            24 13 108 38 6 vhcurveto
            14 72 -5 7 rlineto
            0 -78 -3 -77 -44 -64 2 0 vhcurveto
            -16 -67 5 -9 17 -4 6 -11 8 -38 rlinecurve
            5 -62 33 -325 0 vvcurveto
            246 13 60 189 rlineto
            13 -202 hlineto
            return
          </CharString>
          <CharString index="7">
            310 114 rmoveto
            -43 -20 38 82 204 28 84 67 44 21 -38 -82 -205 -28 -83 -69 hvcurveto
            -27 -126 rmoveto
            229 126 153 257 173 -97 88 -169 -232 -122 -146 -257 -174 100 -94 165 hvcurveto
            return
          </CharString>
          <CharString index="8">
            hstemhm
            hintmask 01101100
            236 127 rmoveto
            16 7 38 2 16 vhcurveto
            1 15 23 3 23 hhcurveto
            35 58 -2 0 hvcurveto
            23 97 -9 13 rlineto
            0 -64 -4 -23 vhcurveto
            -64 hlineto
            15 77 rlineto
            15 3 4 4 18 hhcurveto
            50 16 -7 -26 -12 -7 -23 0 hvcurveto
            127 7 rlineto
            12 74 26 86 -6 callsubr
            14 rlineto
            -6 -45 -111 -4 -96 hhcurveto
            -78 -124 -20 callsubr
            -16 -67 10 -12 rlineto
            0 11 1 9 16 4 -8 -34 -4 vhcurveto
            -33 -248 -5 -47 -14 -15 -40 -7 rlinecurve
            -17 -78 rlineto
            return
          </CharString>
          <CharString index="9">
            261 99 rmoveto
            -29 -11 22 70 150 16 55 46 30 12 -22 -70 -150 -16 -55 -48 hvcurveto
            -21 -108 rmoveto
            192 99 114 202 140 -80 67 -144 -195 -96 -108 -202 -142 83 -71 141 hvcurveto
            return
          </CharString>
          <CharString index="10">
            323 510 rmoveto
            8 37 8 8 45 7 18 90 rcurveline
            0 -129 -5 -41 -32 callgsubr
            8 -14 rlineto
            0 14 -66 callgsubr
            -6 -55 -12 -15 -54 -12 1 callsubr
            return
          </CharString>
          <CharString index="11">
            rmoveto
            0 130 -24 124 -31 vhcurveto
            19 13 21 71 rlineto
            -123 46 -126 54 0 vvcurveto
            -16 -5 -36 -108 rlineto
            return
          </CharString>
          <CharString index="12">
            hstemhm
            hintmask 01110000
            -105 callgsubr
            hintmask 10110000
            7 -9 rlineto
            return
          </CharString>
          <CharString index="13">
            0 138 9 63 57 147 -23 callgsubr
            -25 -3 -25 -37 -10 16 47 6 vhcurveto
            4 34 3 24 19 35 110 182 rcurveline
            32 56 47 46 43 24 18 87 rcurveline
            -3 8 rlineto
            0 -60 -4 -51 vhcurveto
            -155 hlineto
            -18 -79 2 -6 rlineto
            25 9 -4 -10 -9 -7 -17 -11 -20 hvcurveto
            -50 -114 rlineto
            -14 hlineto
            -14 48 -19 79 19 vvcurveto
            return
          </CharString>
          <CharString index="14">
            hstem
            279 -11 rmoveto
            126 100 38 0 hvcurveto
            15 16 rlineto
            11 96 26 117 0 vvcurveto
            -155 -10 rlineto
            -92 -19 -18 -24 -49 hhcurveto
            -49 -19 38 100 182 28 71 73 42 24 -20 -36 -18 -11 -57 0 hvcurveto
            156 9 rlineto
            22 122 32 92 2 callgsubr
            20 rlineto
            0 -139 26 -83 -240 -128 -139 -261 -34 callgsubr
            return
          </CharString>
          <CharString index="15">
            hstem
            234 -8 rmoveto
            106 85 29 0 hvcurveto
            13 13 rlineto
            8 78 20 95 0 vvcurveto
            -140 -9 rlineto
            -69 -13 -11 -15 -36 hhcurveto
            -35 -10 22 82 132 16 45 51 30 18 -15 -25 -14 -9 -46 0 hvcurveto
            142 8 rlineto
            18 99 26 73 2 callgsubr
            18 rlineto
            0 -120 21 -69 -201 -101 -103 -205 -139 77 -75 141 vhcurveto
            return
          </CharString>
          <CharString index="16">
            rmoveto
            -53 51 -40 77 95 77 62 83 40 -20 26 -24 17 vhcurveto
            31 15 31 27 47 vvcurveto
            51 -52 41 -70 -92 -77 -56 -78 -40 19 -30 24 -21 vhcurveto
            -35 -14 -35 -27 -50 vvcurveto
            142 -15 rmoveto
            -19 -12 14 23 11 0 13 9 13 hvcurveto
            29 -17 24 -12 -17 vvcurveto
            -17 -9 -11 -22 vhcurveto
            11 220 rmoveto
            16 11 11 17 17 9 -11 -16 -14 -4 -12 -7 -13 vhcurveto
            -25 11 -18 11 17 vvcurveto
            endchar
          </CharString>
          <CharString index="17">
            -78 callgsubr
            hintmask 01110000
            -87 callsubr
            return
          </CharString>
          <CharString index="18">
            0 74 6 61 34 97 -17 callsubr
            17 72 -7 7 rlineto
            0 -16 -3 -9 -25 -6 10 31 3 vhcurveto
            10 103 rlineto
            14 hlineto
            0 50 -95 61 -127 vhcurveto
            177 9 57 377 5 32 12 12 34 5 rlinecurve
            13 76 rlineto
            -1 -71 -1 -47 -48 -96 3 0 vhcurveto
            -12 -68 4 -9 rlineto
            24 hlineto
            20 4 -7 -27 -2 hvcurveto
            -11 -111 rlineto
            return
          </CharString>
          <CharString index="19">
            rmoveto
            58 -39 32 -100 19 vhcurveto
            5 26 rlineto
            66 56 -5 0 hvcurveto
            17 14 35 125 -59 -3 rlineto
            -20 -9 -11 -7 -26 hhcurveto
            -141 -4 -7 -5 rlineto
            0 -17 -106 -21 -100 vhcurveto
            5 -8 rlineto
            72 -9 28 -9 -19 vvcurveto
            -20 -24 -14 -38 -26 -21 5 8 -14 vhcurveto
            -20 -17 rlineto
            -70 -3 14 -25 48 hhcurveto
            115 115 72 82 hvcurveto
            endchar
          </CharString>
          <CharString index="20">
            0 102 5 62 41 122 22 callgsubr
            -6 10 rlineto
            0 -11 -3 -20 -18 -7 8 30 39 39 252 17 94 vhcurveto
            return
          </CharString>
          <CharString index="21">
            rmoveto
            15 -59 9 -5 rlineto
            0 281 59 221 vvcurveto
            79 -48 51 -79 -111 -72 -64 -100 -64 37 -38 59 vhcurveto
            12 6 10 2 12 4 2 -8 rcurveline
            -57 -60 -70 -24 0 vvcurveto
            143 166 rmoveto
            -15 -6 11 26 37 5 21 31 17 8 -14 -28 -15 -2 -13 -5 -16 hvcurveto
            -4 -8 -12 -5 -13 hhcurveto
            endchar
          </CharString>
          <CharString index="22">
            72 158 -8 0 hvcurveto
            14 13 rlineto
            10 61 26 93 0 vvcurveto
            -87 -6 rlineto
            -45 -10 -15 -16 -31 hhcurveto
            -26 hlineto
            -3 6 rlineto
            108 97 35 52 62 vvcurveto
            55 -48 37 -73 -51 -60 -29 -47 -47 vhcurveto
            8 -86 rlineto
            14 hlineto
            30 29 28 14 23 hhcurveto
            19 9 -7 -18 -18 -22 -32 -43 -42 hvcurveto
            -104 -97 rlineto
            endchar
          </CharString>
          <CharString index="23">
            rmoveto
            -66 81 -15 -1 rlineto
            0 -73 -77 -76 -75 vhcurveto
            38 -48 19 -5 rlineto
            84 57 89 53 0 vvcurveto
            198 15 rmoveto
            -66 81 -15 -1 rlineto
            0 -73 -77 -76 -75 vhcurveto
            38 -48 19 -5 rlineto
            84 57 89 53 0 vvcurveto
            endchar
          </CharString>
          <CharString index="24">
            -6 -40 -11 -10 -41 -8 rlinecurve
            -15 -72 rlineto
            -1 86 4 50 34 109 -17 callsubr
            15 70 -6 9 rlineto
            0 -5 -2 -15 -14 -6 5 20 vhcurveto
            1 6 -1 5 2 9 9 75 rcurveline
            0 68 7 15 18 17 -1 0 vhcurveto
            -10 -72 -5 -38 -17 -16 -37 -1 rlinecurve
            -15 -74 rlineto
            0 107 1 39 vhcurveto
            42 hlineto
            56 -1 43 0 0 vvcurveto
            16 69 -2 4 -3 2 -2 4 rlinecurve
            0 -8 -2 -12 -18 -8 9 25 return
          </CharString>
          <CharString index="25">
            26 8 -21 34 27 callsubr
            24 -21 callgsubr
            59 132 rmoveto
            -4 -44 -12 -12 -42 -9 -15 -71 rcurveline
            0 89 4 53 34 107 45 callsubr
            70 -7 9 rlineto
            0 -6 -2 -18 -20 -3 11 43 6 vhcurveto
            37 260 2 25 9 7 42 11 rlinecurve
            16 76 rlineto
            0 -116 -3 -34 -12 -124 -9 callsubr
            -15 -64 10 callgsubr
            164 -143 rmoveto
            70 -197 rlineto
            hintmask 10010000
            -49 18 18 -14 45 hhcurveto
            22 113 9 0 hvcurveto
            17 63 -8 13 -31 6 -18 19 -16 46 rlinecurve
            -48 136 37 49 37 46 34 30 50 28 rlinecurve
            15 63 -6 13 rlineto
            hintmask 01100000
            0 -96 -4 -29 -38 -82 2 0 vhcurveto
            -15 -69 4 -9 rlineto
            20 -1 7 -6 -13 vvcurveto
            -11 -12 -20 -16 -16 vhcurveto
            -84 -89 rlineto
            endchar
          </CharString>
          <CharString index="26">
            -97 -12 117 494 -20 hstem
            444 511 rmoveto
            -20 81 -12 7 rlineto
            0 -404 -91 -329 vvcurveto
            -116 67 -75 113 157 102 95 146 92 -52 58 -87 vhcurveto
            -56 -21 -4 11 rlineto
            82 101 114 41 0 vvcurveto
            -207 -252 rmoveto
            27 12 -20 -40 -60 -13 -34 -47 -28 -15 25 46 26 5 17 4 23 hvcurveto
            8 13 19 9 23 hhcurveto
            endchar
          </CharString>
          <CharString index="27">
            0 82 3 79 47 71 -1 0 vhcurveto
            16 66 -6 9 -19 3 -12 13 -4 36 rlinecurve
            return
          </CharString>
          <CharString index="28">
            0 102 5 60 40 121 -31 callgsubr
            -8 -3 -18 -18 -7 7 25 9 1 13 2 15 vhcurveto
            12 100 rlineto
            0 88 9 20 24 29 -1 0 vhcurveto
            -13 -102 -7 -54 -20 -21 -46 -1 rlinecurve
            -18 -87 rlineto
            0 119 1 45 vhcurveto
            49 hlineto
            64 -1 55 -1 0 vvcurveto
            19 83 -7 11 rlineto
            0 -12 -3 -15 -22 -9 12 32 return
          </CharString>
          <CharString index="29">
            123 -12 125 -113 113 153 97 163 127 -96 96 -6 -21 callsubr
            299 -36 callsubr
            hintmask 10100100
            0 -108 -6 -45 -40 -109 3 0 vhcurveto
            -19 -81 8 -14 rlineto
            hintmask 01101000
            0 17 2 14 18 4 -12 -42 -5 vhcurveto
            -17 -140 rlineto
            -85 hlineto
            -24 -89 9 -8 rlineto
            88 hlineto
            -12 -98 -9 -58 -16 -17 -47 -8 rlinecurve
            -20 -93 rlineto
            0 87 8 55 vhcurveto
            hintmask 10110000
            -45 callgsubr
            4 7 53 10 65 hvcurveto
            73 hlineto
            18 90 -7 10 -70 -3 10 64 9 57 3 14 rlinecurve
            21 4 5 6 14 hhcurveto
            endchar
          </CharString>
          <CharString index="30">
            -67 callsubr
            -52 -69 -46 -47 -72 -51 28 -29 54 hvcurveto
            return
          </CharString>
          <CharString index="31">
            -20 hstemhm
            hintmask 01001010
            -69 callsubr
            hintmask 10000110
            -28 callsubr
            hintmask 10001010
            -48 callsubr
            hintmask 00110010
            -19 callsubr
            hintmask 10010010
            -65 callsubr
            return
          </CharString>
          <CharString index="32">
            21 -9 107 -77 -21 202 83 114 110 -5 -20 -9 callgsubr
            254 -36 callgsubr
            hintmask 01101000
            -51 callsubr
            -13 -101 rlineto
            -66 hlineto
            -20 -77 7 -6 rlineto
            69 hlineto
            -8 -65 -7 -45 -13 -13 -38 -6 rlinecurve
            -17 -79 rlineto
            0 75 6 46 vhcurveto
            hintmask 10110000
            -46 callsubr
            1 5 36 7 47 hvcurveto
            51 hlineto
            15 78 -6 8 -48 -2 8 49 7 45 1 -2 rlinecurve
            16 3 4 5 10 hhcurveto
            endchar
          </CharString>
          <CharString index="33">
            0 80 7 53 37 69 -20 callgsubr
            18 64 -2 4 rlineto
            0 -13 -1 -16 -14 -6 10 22 31 28 176 8 20 vhcurveto
            return
          </CharString>
          <CharString index="34">
            -20 -9 callgsubr
            -44 callgsubr
            -73 -73 5 0 vhcurveto
            -86 callgsubr
            hintmask 01110000
            -3 callsubr
            hintmask 10110000
            -68 callgsubr
            return
          </CharString>
          <CharString index="35">
            -7 10 rlineto
            -43 hlineto
            27 223 -106 9 -6 -2 -194 -242 rlineto
            154 93 rmoveto
            8 hlineto
            -10 -81 rlineto
            -54 hlineto
            return
          </CharString>
          <CharString index="36">
            rmoveto
            20 hlineto
            6 -124 rlineto
            -1 -18 -7 0 -12 hhcurveto
            -36 hlineto
            return
          </CharString>
          <CharString index="37">
            rmoveto
            115 68 96 159 102 -41 52 -77 -115 -70 -97 -159 -101 41 -52 79 hvcurveto
            26 135 rmoveto
            -38 -18 16 39 59 18 21 47 40 17 -17 -39 -59 -17 -20 -49 hvcurveto
            endchar
          </CharString>
          <CharString index="38">
            282 171 rmoveto
            29 -113 rlineto
            -53 14 22 -17 49 hhcurveto
            136 8 16 62 -9 15 rlineto
            -19 -26 25 43 -20 hvcurveto
            -34 71 rlineto
            75 42 38 55 68 vvcurveto
            89 -80 43 -145 vhcurveto
            return
          </CharString>
          <CharString index="39">
            -56 callgsubr
            -32 -251 -14 callgsubr
            return
          </CharString>
          <CharString index="40">
            68 46 47 71 51 -29 30 return
          </CharString>
          <CharString index="41">
            -70 -21 79 138 89 142 -67 138 89 142 20 -20 hstemhm
            hintmask 11011000
            178 428 rmoveto
            -49 -23 13 28 34 20 14 55 49 23 -12 -29 -33 -19 -15 -56 hvcurveto
            -27 -138 rmoveto
            108 78 79 147 96 -47 47 -78 -108 -80 -79 -146 -97 49 -47 78 hvcurveto
            426 -164 rmoveto
            -49 -23 13 28 hvcurveto
            hintmask 11100100
            34 20 14 55 49 23 -12 -29 -33 -19 -15 -56 vhcurveto
            -27 -138 rmoveto
            108 78 79 147 96 -47 47 -78 -108 -80 -79 -146 -97 49 -47 78 hvcurveto
            return
          </CharString>
          <CharString index="42">
            -3 7 -52 3 -4 5 5 46 rlinecurve
            5 42 rlineto
            15 108 rmoveto
            4 22 2 13 14 69 rrcurveto
            15 2 1 2 12 hhcurveto
            51 23 -14 -35 -34 -8 -30 -44 -16 hvcurveto
            return
          </CharString>
          <CharString index="43">
            -25 callgsubr
            -22 -3 -19 -24 -11 11 28 28 26 175 11 80 vhcurveto
            32 0 -19 -95 -5 hvcurveto
            112 6 rlineto
            0 11 114 12 96 vhcurveto
            return
          </CharString>
          <CharString index="44">
            0 20 2 15 18 5 -11 -33 -4 vhcurveto
            -43 -347 -7 -57 -18 -20 -48 -8 rlinecurve
            -20 -92 rlineto
            0 99 9 73 41 121 -20 callgsubr
            20 84 rlineto
            return
          </CharString>
          <CharString index="45">
            rmoveto
            39 101 56 107 17 33 61 109 rlinecurve
            -36 50 rlineto
            -151 hlineto
            -41 -40 -20 callsubr
            -4 -3 rlineto
            -13 -74 -21 -92 0 vvcurveto
            61 4 12 43 9 6 39 5 rlinecurve
            53 6 -155 -252 6 -19 88 -27 rlineto
            endchar
          </CharString>
          <CharString index="46">
            -13 -69 10 -12 49 -6 8 -7 -5 -36 rlinecurve
            -41 -259 -5 -31 -15 -14 -32 -4 rlinecurve
            -18 -76 rlineto
            return
          </CharString>
          <CharString index="47">
            -55 0 99 -86 -21 209 104 31 168 -103 103 return
          </CharString>
          <CharString index="48">
            rmoveto
            7 29 5 6 37 5 15 76 rcurveline
            return
          </CharString>
          <CharString index="49">
            -20 hstem
            9 -52 rmoveto
            4 -10 95 -55 79 117 rlineto
            -8 29 32 -4 35 hhcurveto
            229 126 153 257 81 -22 62 -40 44 hvcurveto
            66 100 -2 13 -97 54 -69 -107 rlineto
            9 -30 -35 5 -37 hhcurveto
            -232 -122 -146 -257 -85 24 -66 43 -45 hvcurveto
            225 54 rmoveto
            -43 -20 38 82 204 28 84 67 44 21 -38 -82 -205 -28 -83 -69 hvcurveto
            return
          </CharString>
          <CharString index="50">
            29 83 -34 34 hhcurveto
            17 4 93 115 2 16 -53 54 rlineto
            -16 hlineto
            0 -49 -58 -23 vhcurveto
            return
          </CharString>
          <CharString index="51">
            131 -97 97 -97 131 24 -20 hstemhm
            return
          </CharString>
          <CharString index="52">
            rmoveto
            -67 callsubr
            return
          </CharString>
          <CharString index="53">
            0 -130 -5 -41 -17 -141 -9 callsubr
            -18 -76 -60 callgsubr
            182 -191 rmoveto
            89 -252 rlineto
            -61 22 23 -20 51 hhcurveto
            25 129 11 0 hvcurveto
            20 74 -9 15 -38 6 -23 25 -21 59 rlinecurve
            -65 182 60 79 47 60 39 35 58 32 rlinecurve
            18 75 rlineto
            return
          </CharString>
          <CharString index="54">
            rmoveto
            -76 -83 -96 -93 0 vvcurveto
            -3 -27 rlineto
            0 73 -93 56 -84 vhcurveto
            66 36 10 23 -20 47 -19 54 -10 30 rlinecurve
            18 30 32 57 32 45 -5 23 rcurveline
            return
          </CharString>
          <CharString index="55">
            rmoveto
            -18 -130 -23 -41 -87 -62 -4 -15 rcurveline
            35 -48 182 44 87 77 18 128 rlinecurve
            17 137 29 196 18 92 7 37 6 6 38 9 return
          </CharString>
          <CharString index="56">
            0 -91 -5 -38 -33 -96 3 0 vhcurveto
            -16 -69 8 -12 rlineto
            0 13 2 12 14 3 -10 -32 -3 vhcurveto
            return
          </CharString>
          <CharString index="57">
            rmoveto
            -17 19 -12 30 27 vvcurveto
            36 25 42 39 28 vhcurveto
            25 vlineto
            -58 46 rlineto
            -103 -59 -64 -81 -70 vvcurveto
            -61 34 -40 51 28 38 16 28 36 vhcurveto
            return
          </CharString>
          <CharString index="58">
            rmoveto
            77 47 62 63 44 -24 41 -65 -72 -50 -53 -68 -53 30 -36 57 hvcurveto
            return
          </CharString>
          <CharString index="59">
            0 17 1 13 13 5 -8 -24 -3 vhcurveto
            -33 -260 -6 -44 -15 -16 -38 -7 rlinecurve
            -17 -78 rlineto
            return
          </CharString>
          <CharString index="60">
            -244 18 -21 24 27 callsubr
            return
          </CharString>
          <CharString index="61">
            52 76 -9 0 hvcurveto
            55 408 rmoveto
            46 13 -19 -71 -141 -35 -70 -69 -9 -3 6 14 return
          </CharString>
          <CharString index="62">
            398 285 rmoveto
            0 -58 110 -47 112 vhcurveto
            0 -66 -3 -47 return
          </CharString>
          <CharString index="63">
            vvcurveto
            -49 43 -31 75 vhcurveto
            48 18 62 54 0 vvcurveto
            return
          </CharString>
          <CharString index="64">
            -100 9 -13 -12 rlineto
            -12 -93 -20 -123 0 vvcurveto
            114 6 rlineto
            return
          </CharString>
          <CharString index="65">
            -195 319 76 172 86 hstem
            170 395 rmoveto
            -17 -6 18 46 67 11 41 19 18 5 -14 -50 -78 -8 -30 -22 hvcurveto
            -25 -76 rmoveto
            115 74 79 124 85 -46 46 -84 -116 -73 -77 -122 -87 47 -48 83 hvcurveto
            endchar
          </CharString>
          <CharString index="66">
            -90 -23 -17 -17 -71 hhcurveto
            -28 -15 22 45 -1 hvcurveto
            -1 73 62 12 96 12 25 116 -15 17 -101 -26 -70 -13 -6 131 rlineto
            16 10 8 24 66 20 -8 -35 -17 -7 -32 0 vhcurveto
            139 9 rlineto
            17 94 30 105 0 vvcurveto
            return
          </CharString>
          <CharString index="67">
            0 36 1 42 46 146 -2 -1 2 vhcurveto
            17 83 -3 10 rlineto
            -41 -11 -1 13 6 4 9 5 14 hvcurveto
            19 53 77 23 73 13 -3 -57 rlineto
            -15 -2 -7 -1 -10 vhcurveto
            -3 -29 -13 -8 -54 -6 rrcurveto
            -8 237 rmoveto
            return
          </CharString>
          <CharString index="68">
            -5 -1 rcurveline
            6 45 14 48 0 vvcurveto
            -11 15 rlineto
            0 -95 -9 -64 vhcurveto
            -8 -59 rlineto
            18 hlineto
            18 6 -7 -22 -3 hvcurveto
            -7 -41 -28 -169 0 vvcurveto
            15 -17 rlineto
            58 49 17 21 3 hvcurveto
            4 37 rlineto
            81 28 30 58 return
          </CharString>
          <CharString index="69">
            76 -12 126 408 137 return
          </CharString>
          <CharString index="70">
            -7 -74 rlineto
            66 hlineto
            36 129 -1 -1 2 hvcurveto
            14 70 3 9 rlineto
            -35 -9 5 2 4 4 6 3 9 hvcurveto
            8 30 63 20 58 11 -3 -36 rlineto
            -12 -1 -4 -1 -8 vhcurveto
            -3 -20 -8 -4 -44 -5 rrcurveto
            return
          </CharString>
          <CharString index="71">
            -12 rmoveto
            232 154 165 249 166 -102 85 -181 hvcurveto
            return
          </CharString>
          <CharString index="72">
            48 -12 127 444 88 return
          </CharString>
          <CharString index="73">
            -46 -9 108 330 75 return
          </CharString>
          <CharString index="74">
            0 -92 -4 -55 -1 vhcurveto
            -186 hlineto
            -17 -75 7 -14 rlineto
            0 15 1 11 27 6 -11 -40 -5 vhcurveto
            -15 -119 rlineto
            -2 -17 -18 -1 -44 hhcurveto
            -77 3 20 121 6 36 10 8 41 8 rlinecurve
            return
          </CharString>
          <CharString index="75">
            0 -108 -6 -45 -40 -109 3 0 vhcurveto
            -19 -81 8 -14 rlineto
            0 17 2 14 18 4 -12 -42 -5 vhcurveto
            -41 -335 -9 -58 -16 -17 -47 -8 rlinecurve
            -20 -93 rlineto
            0 87 8 55 vhcurveto
            return
          </CharString>
          <CharString index="76">
            659 -29 callsubr
          </CharString>
          <CharString index="77">
            21 12 16 25 22 12 -11 -19 -31 -25 -7 -13 return
          </CharString>
          <CharString index="78">
            -83 callgsubr
            endchar
          </CharString>
          <CharString index="79">
            0 -110 -5 -41 -34 -85 -9 callsubr
            -17 -67 7 -10 rlineto
            return
          </CharString>
          <CharString index="80">
            133 -133 230 213 228 -138 138 return
          </CharString>
          <CharString index="81">
            181 168 rmoveto
            -8 -62 -19 -16 -80 -7 -19 -92 rcurveline
            return
          </CharString>
          <CharString index="82">
            20 94 -4 6 rlineto
            0 return
          </CharString>
          <CharString index="83">
            422 -21 258 -20 hstem
            208 659 rmoveto
            -135 -14 rlineto
            0 -4 -118 -17 -120 vhcurveto
            18 -6 77 -3 callgsubr
            return
          </CharString>
          <CharString index="84">
            -5 0 vhcurveto
            -25 callgsubr
            return
          </CharString>
          <CharString index="85">
            -167 -163 1 callgsubr
            -79 11 -14 rlineto
            0 14 2 11 15 6 -7 -21 1 vhcurveto
            -201 -391 -16 -31 -20 -18 -26 -6 rlinecurve
            -8 -87 rlineto
            return
          </CharString>
          <CharString index="86">
            -20 hstemhm
            hintmask 10101000
            return
          </CharString>
          <CharString index="87">
            3 0 hvcurveto
            return
          </CharString>
          <CharString index="88">
            0 86 8 64 33 108 45 callsubr
            71 rlineto
            return
          </CharString>
          <CharString index="89">
            0 108 10 return
          </CharString>
          <CharString index="90">
            -3 0 vhcurveto
            return
          </CharString>
          <CharString index="91">
            61 -11 141 116 108 167 138 return
          </CharString>
          <CharString index="92">
            135 135 139 hstem
            18 90 vstem
            138 return
          </CharString>
          <CharString index="93">
            0 88 3 53 vhcurveto
            return
          </CharString>
          <CharString index="94">
            hstemhm
            hintmask 10100000
            return
          </CharString>
          <CharString index="95">
            -21 -12 -27 callsubr
            return
          </CharString>
          <CharString index="96">
            63 -49 -21 408 -21 callgsubr
            228 return
          </CharString>
          <CharString index="97">
            150 131 rmoveto
            -5 -42 -17 -13 -65 -5 return
          </CharString>
          <CharString index="98">
            1 0 vhcurveto
            return
          </CharString>
          <CharString index="99">
            -9 -26 callgsubr
            return
          </CharString>
          <CharString index="100">
            rlineto
            hintmask 10100000
            return
          </CharString>
          <CharString index="101">
            0 vvcurveto
            -10 return
          </CharString>
          <CharString index="102">
            173 -156 -21 92 85 232 -20 hstemhm
            hintmask 01110000
            -8 return
          </CharString>
          <CharString index="103">
            443 rmoveto
            4 24 34 89 25 vvcurveto
            46 -41 27 -69 vhcurveto
            return
          </CharString>
          <CharString index="104">
            0 69 -141 81 -186 vhcurveto
            return
          </CharString>
          <CharString index="105">
            93 0 83 -71 -21 569 86 return
          </CharString>
          <CharString index="106">
            rmoveto
            0 48 58 25 vhcurveto
            return
          </CharString>
          <CharString index="107">
            -19 -76 3 -3 rlineto
            return
          </CharString>
          <CharString index="108">
            rlinecurve
            -18 -85 rlineto
            return
          </CharString>
          <CharString index="109">
            46 rmoveto
            -76 -13 -28 -35 -30 -23 26 37 -5 vhcurveto
            -18 hlineto
            -19 -23 -25 -69 -27 vvcurveto
            -23 53 -27 44 return
          </CharString>
          <CharString index="110">
            39 108 -34 44 hhcurveto
            22 4 120 115 2 16 -42 56 rlineto
            -16 hlineto
            0 -64 -58 -30 vhcurveto
            return
          </CharString>
          <CharString index="111">
            0 132 1 87 vhcurveto
            220 1 30 136 rlineto
            return
          </CharString>
          <CharString index="112">
            16 70 -5 9 rlineto
            0 -8 -2 -16 -14 -6 6 23 31 31 196 12 61 vhcurveto
            endchar
          </CharString>
          <CharString index="113">
            0 99 -86 -21 512 -20 23 26 callsubr
            return
          </CharString>
          <CharString index="114">
            139 304 142 48 -20 hstem
            return
          </CharString>
          <CharString index="115">
            hhcurveto
            23 18 -10 -30 35 hvcurveto
            18 3 rlineto
            14 22 26 80 20 vvcurveto
            12 -44 11 -50 return
          </CharString>
          <CharString index="116">
            359 0 114 -100 -21 27 -21 440 208 -169 -20 69 120 return
          </CharString>
          <CharString index="117">
            414 8 -21 573 87 return
          </CharString>
          <CharString index="118">
            -121 -11 rlineto
            -305 hlineto
            return
          </CharString>
          <CharString index="119">
            rmoveto
            -68 -46 -47 -71 -51 29 -30 53 69 46 47 72 51 -29 29 -54 hvcurveto
            return
          </CharString>
          <CharString index="120">
            rmoveto
            69 42 56 56 40 -21 37 -59 -65 -45 -48 -61 -48 27 -32 52 hvcurveto
            return
          </CharString>
          <CharString index="121">
            56 0 73 -58 -21 510 -20 return
          </CharString>
          <CharString index="122">
            -7 0 hvcurveto
            17 16 rlineto
            return
          </CharString>
          <CharString index="123">
            159 0 87 -71 -21 270 122 return
          </CharString>
          <CharString index="124">
            122 6 -20 hstemhm
            return
          </CharString>
          <CharString index="125">
            4 0 hvcurveto
            -7 -5 rlineto
            -18 -106 -30 -133 0 vvcurveto
            83 6 return
          </CharString>
          <CharString index="126">
            139 340 131 hstem
            return
          </CharString>
          <CharString index="127">
            84 16 8 24 32 hhcurveto
            return
          </CharString>
          <CharString index="128">
            -324 -21 345 return
          </CharString>
          <CharString index="129">
            0 94 8 87 vhcurveto
            return
          </CharString>
          <CharString index="130">
            277 391 -59 callsubr
            return
          </CharString>
          <CharString index="131">
            vhcurveto
            -14 34 -18 3 rlineto
            -24 -26 -4 -2 -3 hhcurveto
            endchar
          </CharString>
          <CharString index="132">
            0 72 1 57 vhcurveto
            136 1 32 109 rlineto
            endchar
          </CharString>
          <CharString index="133">
            -20 hstemhm
            hintmask 10010000
            return
          </CharString>
          <CharString index="134">
            -21 504 -20 return
          </CharString>
          <CharString index="135">
            123 -31 callgsubr
            -10 -3 return
          </CharString>
          <CharString index="136">
            rmoveto
            -14 -19 7 24 return
          </CharString>
          <CharString index="137">
            -21 311 -20 hstem
            return
          </CharString>
          <CharString index="138">
            231 0 98 -78 -21 338 167 -103 103 return
          </CharString>
          <CharString index="139">
            36 -20 18 -36 -51 -33 -31 -52 -35 20 -21 37 return
          </CharString>
          <CharString index="140">
            63 -21 380 -20 hstem
            return
          </CharString>
          <CharString index="141">
            78 247 84 hstem
            2 return
          </CharString>
          <CharString index="142">
            -20 hstemhm
            hintmask 11010000
            return
          </CharString>
          <CharString index="143">
            -9 133 18 rlineto
            0 7 69 9 72 vhcurveto
            return
          </CharString>
          <CharString index="144">
            3 -9 107 -77 -21 399 110 -5 -20 return
          </CharString>
          <CharString index="145">
            rlineto
            150 hlineto
            25 113 return
          </CharString>
          <CharString index="146">
            -35 -135 8 -13 rlineto
            0 return
          </CharString>
          <CharString index="147">
            -21 403 -20 hstem
            148 return
          </CharString>
          <CharString index="148">
            6 -7 rlineto
            0 return
          </CharString>
          <CharString index="149">
            -4 -17 -75 rcurveline
            8 -10 rlineto
            0 28 3 return
          </CharString>
          <CharString index="150">
            vhcurveto
            20 -103 rlineto
            5 5 1 5 hhcurveto
            31 return
          </CharString>
          <CharString index="151">
            -44 -23 -48 hhcurveto
            endchar
          </CharString>
          <CharString index="152">
            -17 callsubr
            16 return
          </CharString>
        <CharString name=".notdef">
          -420 endchar
        </CharString>
        <CharString name="A">
          -41 callgsubr
          200 -20 -99 callgsubr
          -254 325 -13 callgsubr
        </CharString>
        <CharString name="AE">
          9 callsubr
          12 26 callsubr
          19 callgsubr
          hintmask 01010000
          194 160 -7 0 hvcurveto
          -29 callgsubr
          30 97 0 vvcurveto
          -11 15 -129 -9 rlineto
          hintmask 10001100
          -41 callsubr
          hintmask 10001010
          -11 16 rlineto
          hintmask 00110000
          -36 -5 -160 -6 -143 -1 rrcurveto
          -22 callsubr
          -40 callsubr
          hintmask 10001100
          31 callgsubr
          endchar
        </CharString>
        <CharString name="AEacute">
          9 callsubr
          288 -20 hstemhm
          hintmask 10010010
          19 callgsubr
          hintmask 01010010
          194 160 -7 0 hvcurveto
          -29 callgsubr
          30 97 0 vvcurveto
          -11 15 -129 -9 rlineto
          hintmask 10001110
          -41 callsubr
          -11 16 -36 -5 -160 -6 -143 -1 rlinecurve
          -22 callsubr
          hintmask 00101110
          -40 callsubr
          31 callgsubr
          335 506 -5 callgsubr
        </CharString>
        <CharString name="Aacute">
          -41 callgsubr
          417 -20 -99 callgsubr
          -254 325 rmoveto
          22 hlineto
          10 -175 rlineto
          -1 -21 -13 -1 -15 hhcurveto
          -48 hlineto
          277 461 -106 callsubr
          endchar
        </CharString>
        <CharString name="Abreve">
          -41 callgsubr
          237 30 callgsubr
          hintmask 01111000
          -105 callgsubr
          hintmask 10111000
          7 -9 rlineto
          hintmask 01111000
          -75 callgsubr
          -188 677 -91 callgsubr
          -66 -352 -13 callgsubr
        </CharString>
        <CharString name="Acircumflex">
          -41 callgsubr
          hstemhm
          hintmask 01100000
          -105 callgsubr
          hintmask 10100000
          7 -9 rlineto
          hintmask 01100000
          -54 callgsubr
          -32 407 -102 callgsubr
          endchar
        </CharString>
        <CharString name="Adieresis">
          -41 callgsubr
          237 167 -99 callgsubr
          -254 325 rmoveto
          22 hlineto
          10 -175 rlineto
          -1 -21 -13 -1 -15 hhcurveto
          -48 hlineto
          208 394 -103 callsubr
          endchar
        </CharString>
        <CharString name="Agrave">
          -41 callgsubr
          417 -20 -99 callgsubr
          -342 593 -96 callsubr
          95 -284 -13 callgsubr
        </CharString>
        <CharString name="Amacron">
          -41 callgsubr
          237 122 6 -20 -95 callsubr
          hintmask 01101000
          -54 callgsubr
          277 522 rmoveto
          hintmask 01110000
          -87 callgsubr
          endchar
        </CharString>
        <CharString name="Aogonek">
          104 -242 87 174 -21 22 -21 479 -20 200 -20 hstemhm
          hintmask 11011000
          610 -47 callgsubr
          24 11 22 61 73 vhcurveto
          24 21 -1 0 hvcurveto
          18 79 -6 10 -27 4 -14 17 -6 46 rlinecurve
          -14 108 -48 385 0 vvcurveto
          -14 12 -267 -16 -211 -502 -13 -31 -19 -18 -23 -6 rlinecurve
          -17 -87 rlineto
          hintmask 10111000
          0 69 1 61 59 91 -17 callsubr
          18 83 -7 10 rlineto
          -27 hlineto
          -16 -7 4 11 6 2 8 4 13 hvcurveto
          13 44 rlineto
          0 59 5 18 8 65 -2 0 vhcurveto
          -57 vlineto
          -23 -10 -5 -56 -6 vhcurveto
          -16 -84 7 -9 rlineto
          0 95 5 93 vhcurveto
          16 hlineto
          -85 -81 -18 -37 -43 -44 callsubr
          -292 648 -13 callgsubr
        </CharString>
        <CharString name="Aring">
          -41 callgsubr
          224 210 -72 72 -99 callgsubr
          -206 529 -49 callsubr
          -48 -204 -71 callgsubr
          129 451 29 callsubr
          hvcurveto
          hintmask 01101000
          -30 callsubr
          vhcurveto
          endchar
        </CharString>
        <CharString name="Aringacute">
          -41 callgsubr
          202 189 -65 65 167 -20 hstemhm
          hintmask 01110100
          -105 callgsubr
          hintmask 10110100
          7 -9 rlineto
          hintmask 01101100
          -54 callgsubr
          123 422 13 callgsubr
          hintmask 01110100
          -14 -63 13 callsubr
          167 255 -6 callgsubr
          endchar
        </CharString>
        <CharString name="Atilde">
          -41 callgsubr
          241 -56 callsubr
          hintmask 01110010
          -105 callgsubr
          hintmask 10110010
          7 -9 rlineto
          hintmask 01101010
          -54 callgsubr
          -2 374 -1 callsubr
          hintmask 01110010
          -67 callgsubr
          hintmask 01100110
          -29 -82 -59 callgsubr
          52 -54 rlineto
          endchar
        </CharString>
        <CharString name="B">
          90 -11 125 -93 -21 528 126 -7 -21 callgsubr
          160 hmoveto
          hintmask 10100000
          30 107 -7 -4 23 hvcurveto
          204 105 75 146 58 -36 46 -68 29 hvcurveto
          80 52 34 52 68 vvcurveto
          88 -79 51 -136 vhcurveto
          hintmask 01010000
          0 -149 -7 -32 -31 -136 2 0 vhcurveto
          -21 -80 10 -12 rlineto
          0 22 2 12 16 7 -16 -30 -3 vhcurveto
          -45 -357 -6 -48 -17 -16 -51 -9 rlinecurve
          -20 -90 rlineto
          0 118 7 62 vhcurveto
          201 260 rmoveto
          33 -12 17 -23 -30 vvcurveto
          hintmask 10100000
          -52 -29 -29 -50 -49 -19 14 32 5 vhcurveto
          17 100 rlineto
          18 129 rmoveto
          0 12 81 10 44 vhcurveto
          11 2 4 3 13 hhcurveto
          56 26 -19 -39 -61 -49 -31 0 -22 -52 11 0 hvcurveto
          endchar
        </CharString>
        <CharString name="C">
          -1 callgsubr
          -93 callsubr
          endchar
        </CharString>
        <CharString name="Cacute">
          -1 callgsubr
          216 -20 -93 callsubr
          236 773 -106 callsubr
          endchar
        </CharString>
        <CharString name="Ccaron">
          -1 callgsubr
          236 -20 -93 callsubr
          269 899 -103 callgsubr
        </CharString>
        <CharString name="Ccedilla">
          27 23 callgsubr
          128 140 391 138 hstem
          216 -88 callgsubr
          8 27 rlineto
          112 5 85 32 0 vvcurveto
          15 16 rlineto
          11 96 26 117 0 vvcurveto
          -155 -10 rlineto
          -92 -19 -18 -24 -49 hhcurveto
          -49 -19 38 100 182 28 71 73 42 24 -20 -36 -18 -11 -57 0 hvcurveto
          156 9 rlineto
          22 122 32 92 2 callgsubr
          20 rlineto
          0 -139 26 -83 -240 -128 -139 -261 -161 81 -95 145 -12 vhcurveto
          endchar
        </CharString>
        <CharString name="Ccircumflex">
          -1 callgsubr
          275 -20 -93 callsubr
          -38 727 -95 callgsubr
        </CharString>
        <CharString name="Cdotaccent">
          -1 callgsubr
          24 199 -93 callsubr
          103 694 -55 callsubr
          -53 -69 -46 -47 -72 -51 29 -29 54 hvcurveto
          endchar
        </CharString>
        <CharString name="D">
          103 -12 125 -113 113 413 127 -6 0 callgsubr
          279 -36 callsubr
          hintmask 01010000
          -32 callsubr
          hintmask 10100000
          -45 callgsubr
          10 46 310 7 34 hvcurveto
          21 4 5 6 14 hhcurveto
          endchar
        </CharString>
        <CharString name="Dcaron">
          103 -12 125 -113 113 413 127 -6 -20 268 -21 callsubr
          279 -36 callsubr
          hintmask 01011000
          -32 callsubr
          hintmask 10101000
          -45 callgsubr
          10 46 310 7 34 hvcurveto
          21 4 5 6 14 hhcurveto
          207 362 -103 callgsubr
        </CharString>
        <CharString name="Dcroat">
          -78 callsubr
        </CharString>
        <CharString name="Delta">
          105 0 136 523 -20 hstem
          -5 hmoveto
          618 hlineto
          10 7 rlineto
          -51 293 -43 359 -6 callsubr
          hlineto
          -269 -17 -266 -629 rlineto
          381 484 rmoveto
          16 -361 rlineto
          -166 hlineto
          126 361 rlineto
          endchar
        </CharString>
        <CharString name="E">
          -74 callgsubr
          12 -21 callsubr
          269 151 rmoveto
          22 9 53 5 34 vhcurveto
          2 18 27 4 28 hhcurveto
          44 71 -3 0 hvcurveto
          28 115 -10 14 rlineto
          0 -78 -6 -29 vhcurveto
          -27 -33 1 -19 hhcurveto
          20 113 rlineto
          22 4 5 5 26 hhcurveto
          66 20 -8 -35 -17 -8 -32 0 hvcurveto
          140 9 rlineto
          16 94 31 105 0 vvcurveto
          hintmask 10100010
          -11 16 rlineto
          hintmask 01100100
          -7 -55 -127 -5 -120 hhcurveto
          -90 -140 1 callgsubr
          -79 10 -14 rlineto
          -81 callgsubr
          hintmask 10110000
          -18 callsubr
          102 153 158 -7 0 vhcurveto
          -29 callgsubr
          30 97 0 vvcurveto
          -11 15 -129 -9 rlineto
          -90 -23 -19 -16 -80 hhcurveto
          -30 -10 6 30 hvcurveto
          endchar
        </CharString>
        <CharString name="Eacute">
          -74 callgsubr
          228 -20 -101 callgsubr
          hintmask 10110010
          -18 callsubr
          102 153 158 -7 0 vhcurveto
          -29 callgsubr
          30 97 0 vvcurveto
          -11 15 -129 -9 rlineto
          -90 -23 -19 -16 -80 hhcurveto
          -30 -10 6 30 hvcurveto
          247 611 -106 callsubr
          endchar
        </CharString>
        <CharString name="Ebreve">
          -74 callgsubr
          43 30 callgsubr
          hintmask 10101011
          -105 callsubr
          hintmask 01100111
          -81 callgsubr
          hintmask 10110011
          -18 callsubr
          102 153 158 -7 0 vhcurveto
          -29 callgsubr
          30 97 0 vvcurveto
          -11 15 -129 -9 rlineto
          -90 -23 -19 -16 -80 hhcurveto
          -30 -10 6 30 hvcurveto
          105 674 -63 callgsubr
        </CharString>
        <CharString name="Ecaron">
          -74 callgsubr
          248 -20 -101 callgsubr
          hintmask 10110010
          -18 callsubr
          102 153 158 -7 0 vhcurveto
          -29 callgsubr
          30 97 0 vvcurveto
          -11 15 -129 -9 rlineto
          -90 -23 -19 -16 -80 hhcurveto
          -30 -10 6 30 hvcurveto
          280 737 -103 callgsubr
        </CharString>
        <CharString name="Ecircumflex">
          -74 callgsubr
          hstemhm
          hintmask 10101000
          -105 callsubr
          hintmask 01100100
          -81 callgsubr
          hintmask 10110000
          -18 callsubr
          102 153 158 -7 0 vhcurveto
          -29 callgsubr
          30 97 0 vvcurveto
          -11 15 -129 -9 rlineto
          -90 -23 -19 -16 -80 hhcurveto
          -30 -10 6 30 hvcurveto
          -42 557 -102 callgsubr
          endchar
        </CharString>
        <CharString name="Edieresis">
          -74 callgsubr
          48 167 -101 callgsubr
          hintmask 10110010
          -18 callsubr
          102 153 158 -7 0 vhcurveto
          -29 callgsubr
          30 97 0 vvcurveto
          -11 15 -129 -9 rlineto
          -90 -23 -19 -16 -80 hhcurveto
          -30 -10 6 30 hvcurveto
          198 544 -103 callsubr
          endchar
        </CharString>
        <CharString name="Edotaccent">
          -74 callgsubr
          36 199 -101 callgsubr
          hintmask 10110010
          -18 callsubr
          102 153 158 -7 0 vhcurveto
          -29 callgsubr
          30 97 0 vvcurveto
          -11 15 -129 -9 rlineto
          -90 -23 -19 -16 -80 hhcurveto
          -30 -10 6 30 hvcurveto
          104 532 -55 callsubr
          -53 -69 -46 -47 -72 -51 29 -29 54 hvcurveto
          endchar
        </CharString>
        <CharString name="Egrave">
          -74 callgsubr
          228 -20 -101 callgsubr
          hintmask 10110010
          -18 callsubr
          102 153 158 -7 0 vhcurveto
          -29 callgsubr
          30 97 0 vvcurveto
          -11 15 -129 -9 rlineto
          -90 -23 -19 -16 -80 hhcurveto
          -30 -10 6 30 hvcurveto
          -48 595 -96 callsubr
          endchar
        </CharString>
        <CharString name="Emacron">
          -74 callgsubr
          48 122 6 -20 -101 callgsubr
          hintmask 10110001
          -18 callsubr
          102 153 158 -7 0 vhcurveto
          -29 callgsubr
          30 97 0 vvcurveto
          -11 15 -129 -9 rlineto
          -90 -23 -19 -16 -80 hhcurveto
          -30 -10 6 30 hvcurveto
          267 672 rmoveto
          hintmask 10110010
          -87 callgsubr
          endchar
        </CharString>
        <CharString name="Eng">
          158 -151 -21 172 83 564 -20 25 41 callgsubr
          215 647 rmoveto
          hintmask 11010000
          -54 -90 5 0 hvcurveto
          -15 -77 10 -14 59 -7 11 -11 -5 -44 rlinecurve
          -55 -356 -6 -41 -18 -19 -39 -5 rlinecurve
          -21 -86 rlineto
          0 81 8 38 79 99 -20 callgsubr
          20 82 -7 8 rlineto
          0 -23 -3 -11 -28 -8 13 37 4 vhcurveto
          22 198 rlineto
          14 hlineto
          0 71 -143 84 -188 vhcurveto
          -20 -46 -35 -36 -51 -26 -4 -15 rcurveline
          36 -49 169 44 82 77 22 136 rlinecurve
          61 416 6 41 16 16 43 6 rlinecurve
          15 87 rlineto
          hintmask 11100000
          0 -86 -3 -45 -1 vhcurveto
          -29 -133 4 0 hvcurveto
          -14 -79 3 -10 rlineto
          0 24 1 6 24 7 -10 -33 -4 vhcurveto
          -21 -202 rlineto
          -14 hlineto
          0 -82 166 -68 167 vhcurveto
          0 -69 -4 -51 vhcurveto
          endchar
        </CharString>
        <CharString name="Eogonek">
          29 -242 87 155 115 151 120 141 120 -88 88 12 -20 hstemhm
          hintmask 11110000
          500 -47 callgsubr
          24 10 21 59 71 vhcurveto
          19 -1 12 -1 0 vvcurveto
          -29 callgsubr
          30 97 0 vvcurveto
          -11 15 -129 -9 rlineto
          -90 -23 -19 -16 -80 hhcurveto
          -30 -10 6 30 22 9 53 5 34 hvcurveto
          2 18 27 4 28 hhcurveto
          44 71 -3 0 hvcurveto
          28 115 -10 14 rlineto
          0 -78 -6 -29 vhcurveto
          -27 -33 1 -19 hhcurveto
          20 113 rlineto
          22 4 5 5 26 hhcurveto
          66 20 -8 -35 -17 -8 -32 0 hvcurveto
          140 9 rlineto
          16 94 31 105 0 vvcurveto
          hintmask 11100100
          -11 16 rlineto
          hintmask 11101000
          -7 -55 -127 -5 -120 hhcurveto
          -90 -140 1 callgsubr
          -79 10 -14 rlineto
          -81 callgsubr
          -18 callsubr
          102 73 74 -1 -2 57 vhcurveto
          -83 -80 -18 -36 -43 -44 callsubr
          endchar
        </CharString>
        <CharString name="Eth">
          -78 callsubr
        </CharString>
        <CharString name="Euro">
          -18 -8 107 -107 202 -34 75 38 75 -40 205 -106 106 hstem
          360 237 rmoveto
          -113 -4 rlineto
          -1 hlineto
          14 1 14 1 12 vhcurveto
          118 1 15 68 -7 8 -113 -4 rlineto
          42 14 25 19 38 hhcurveto
          37 21 -16 -29 -14 -8 -43 0 hvcurveto
          122 7 rlineto
          18 94 25 70 0 vvcurveto
          -5 16 rlineto
          0 -113 21 -68 -143 -96 -58 -109 -41 vhcurveto
          -67 hlineto
          -17 -67 7 -6 rlineto
          59 hlineto
          -2 -13 -1 -14 -13 vvcurveto
          -60 hlineto
          -17 -67 7 -6 rlineto
          72 hlineto
          -109 16 76 -59 123 hhcurveto
          103 81 29 0 hvcurveto
          12 12 rlineto
          9 74 21 91 0 vvcurveto
          -122 -8 rlineto
          -72 -16 -18 -19 -42 hhcurveto
          -34 -20 17 44 -7 hvcurveto
          103 1 14 68 rlineto
          endchar
        </CharString>
        <CharString name="F">
          -17 0 115 -104 -21 259 120 71 207 -120 120 -88 88 12 -21 callsubr
          281 243 rmoveto
          2 17 28 4 28 hhcurveto
          43 68 -3 0 hvcurveto
          28 115 -11 14 rlineto
          0 -74 -6 -28 vhcurveto
          -80 1 23 130 rlineto
          22 4 5 5 26 hhcurveto
          47 16 -10 -33 -17 -7 -31 0 hvcurveto
          140 8 rlineto
          15 92 26 107 0 vvcurveto
          hintmask 10100010
          -11 16 rlineto
          hintmask 01100100
          -7 -50 -115 -5 -109 hhcurveto
          -90 -140 1 callgsubr
          -79 10 -14 rlineto
          0 15 2 10 21 4 -11 -43 -5 vhcurveto
          -43 -335 -8 -60 -16 -20 -49 -8 rlinecurve
          -20 -92 rlineto
          hintmask 10110000
          -18 callsubr
          103 45 113 -17 callsubr
          26 108 -14 18 rlineto
          0 -26 -8 -30 -33 -6 12 48 6 vhcurveto
          endchar
        </CharString>
        <CharString name="G">
          -16 callsubr
          hstem
          279 -11 rmoveto
          159 81 33 0 hvcurveto
          14 16 rlineto
          0 -1 18 20 vvcurveto
          18 11 85 9 47 vhcurveto
          6 36 13 21 29 18 -3 58 rcurveline
          -2 -68 -3 -40 vhcurveto
          -150 hlineto
          -23 -95 7 -14 rlineto
          0 15 1 16 23 5 -9 -32 -4 vhcurveto
          -7 -63 rlineto
          0 -22 -12 -33 -49 -19 38 100 182 28 71 73 42 24 -17 -36 -18 -11 -46 0 vhcurveto
          156 9 rlineto
          22 122 32 78 2 callgsubr
          20 rlineto
          0 -139 26 -83 -240 -128 -139 -261 -34 callgsubr
          endchar
        </CharString>
        <CharString name="Gbreve">
          -16 callsubr
          36 45 callgsubr
          hstem
          279 -11 rmoveto
          159 81 33 0 hvcurveto
          14 16 rlineto
          0 -1 18 20 vvcurveto
          18 11 85 9 47 vhcurveto
          6 36 13 21 29 18 -3 58 rcurveline
          -2 -68 -3 -40 vhcurveto
          -150 hlineto
          -23 -95 7 -14 rlineto
          0 15 1 16 23 5 -9 -32 -4 vhcurveto
          -7 -63 rlineto
          0 -22 -12 -33 -49 -19 38 100 182 28 71 73 42 24 -17 -36 -18 -11 -46 0 vhcurveto
          156 9 rlineto
          22 122 32 78 2 callgsubr
          20 rlineto
          0 -139 26 -83 -240 -128 -139 -261 -34 callgsubr
          114 841 -91 callgsubr
          endchar
        </CharString>
        <CharString name="Gcircumflex">
          -16 callsubr
          275 -20 hstem
          279 -11 rmoveto
          159 81 33 0 hvcurveto
          14 16 rlineto
          0 -1 18 20 vvcurveto
          18 11 85 9 47 vhcurveto
          6 36 13 21 29 18 -3 58 rcurveline
          -2 -68 -3 -40 vhcurveto
          -150 hlineto
          -23 -95 7 -14 rlineto
          0 15 1 16 23 5 -9 -32 -4 vhcurveto
          -7 -63 rlineto
          0 -22 -12 -33 -49 -19 38 100 182 28 71 73 42 24 -17 -36 -18 -11 -46 0 vhcurveto
          156 9 rlineto
          22 122 32 78 2 callgsubr
          20 rlineto
          0 -139 26 -83 -240 -128 -139 -261 -34 callgsubr
          -31 727 -95 callgsubr
        </CharString>
        <CharString name="Gcommaaccent">
          61 -324 -21 334 141 0 116 108 54 113 138 hstemhm
          hintmask 11011000
          279 -11 rmoveto
          159 81 33 0 hvcurveto
          14 16 rlineto
          0 -1 18 20 vvcurveto
          18 11 85 9 47 vhcurveto
          6 36 13 21 29 18 -3 58 rcurveline
          -2 -68 -3 -40 vhcurveto
          -150 hlineto
          -23 -95 7 -14 rlineto
          hintmask 10111000
          0 15 1 16 23 5 -9 -32 -4 vhcurveto
          -7 -63 rlineto
          0 -22 -12 -33 -49 -19 38 100 182 28 71 73 42 24 -17 -36 -18 -11 -46 0 vhcurveto
          156 9 rlineto
          22 122 32 78 2 callgsubr
          20 rlineto
          0 -139 26 -83 -240 -128 -139 -261 vhcurveto
          hintmask 11011000
          -34 callgsubr
          -100 -81 -104 callgsubr
          endchar
        </CharString>
        <CharString name="Gdotaccent">
          -16 callsubr
          24 199 hstem
          279 -11 rmoveto
          159 81 33 0 hvcurveto
          14 16 rlineto
          0 -1 18 20 vvcurveto
          18 11 85 9 47 vhcurveto
          6 36 13 21 29 18 -3 58 rcurveline
          -2 -68 -3 -40 vhcurveto
          -150 hlineto
          -23 -95 7 -14 rlineto
          0 15 1 16 23 5 -9 -32 -4 vhcurveto
          -7 -63 rlineto
          0 -22 -12 -33 -49 -19 38 100 182 28 71 73 42 24 -17 -36 -18 -11 -46 0 vhcurveto
          156 9 rlineto
          22 122 32 78 2 callgsubr
          20 rlineto
          0 -139 26 -83 -240 -128 -139 -261 -34 callgsubr
          110 694 -55 callsubr
          -53 -69 -46 -47 -72 -51 29 -29 54 hvcurveto
          endchar
        </CharString>
        <CharString name="H">
          16 callsubr
          172 88 5 -21 callsubr
          -4 callgsubr
          hintmask 10110000
          -33 callsubr
          hintmask 10101000
          18 90 rlineto
          hintmask 01110000
          0 -140 -5 -58 vhcurveto
          -126 hlineto
          -17 -75 -60 callgsubr
          -43 -346 17 callgsubr
          hintmask 10110000
          -79 callsubr
          37 39 259 16 81 vhcurveto
          endchar
        </CharString>
        <CharString name="Hbar">
          16 callsubr
          50 66 56 88 5 -20 hstemhm
          hintmask 10110100
          -4 callgsubr
          hintmask 10111000
          0 -92 -4 -55 -1 vhcurveto
          -186 hlineto
          -17 -75 7 -14 rlineto
          0 15 1 11 27 6 -11 -40 -5 vhcurveto
          -1 -5 rlineto
          -50 hlineto
          -101 hlineto
          1 7 6 36 10 8 41 8 rlinecurve
          hintmask 10110100
          18 90 rlineto
          hintmask 01111000
          0 -140 -5 -58 vhcurveto
          -126 hlineto
          -17 -75 -60 callgsubr
          -1 -5 rlineto
          -53 -39 1 0 hvcurveto
          -8 -58 11 -10 rlineto
          81 hlineto
          -34 -274 17 callgsubr
          hintmask 10111000
          -79 callsubr
          29 24 166 18 109 vhcurveto
          96 1 5 55 -15 15 rlineto
          0 -30 -1 -44 -1 vhcurveto
          1 1 2 1 vvcurveto
          -284 -73 rmoveto
          68 hlineto
          -6 -48 rlineto
          -2 -17 -18 -1 -44 hhcurveto
          -77 3 8 48 rlineto
          endchar
        </CharString>
        <CharString name="Hcircumflex">
          16 callsubr
          172 88 313 -20 hstemhm
          hintmask 01111000
          -4 callgsubr
          -33 callsubr
          18 90 rlineto
          0 -140 -5 -58 vhcurveto
          -126 hlineto
          -17 -75 -60 callgsubr
          -43 -346 17 callgsubr
          hintmask 10111000
          -79 callsubr
          37 39 259 16 81 vhcurveto
          -396 232 -95 callgsubr
        </CharString>
        <CharString name="I">
          -42 callgsubr
          5 26 callsubr
          323 510 rmoveto
          8 37 8 8 45 7 18 90 rcurveline
          hintmask 10100000
          0 -129 -5 -41 -32 callgsubr
          8 -14 rlineto
          0 14 -66 callgsubr
          -6 -55 -12 -15 -54 -12 1 callsubr
          hintmask 01100000
          -87 callsubr
          endchar
        </CharString>
        <CharString name="IJ">
          131 -143 -21 185 -21 559 88 8 41 callgsubr
          -97 callsubr
          -87 callsubr
          98 -378 -52 callsubr
          rrcurveto
          hintmask 11010000
          20 93 rlineto
          0 -92 -6 -97 -1 vhcurveto
          hintmask 11100000
          -18 callgsubr
          endchar
        </CharString>
        <CharString name="Iacute">
          -42 callgsubr
          228 -20 -90 callsubr
          74 252 -106 callsubr
          endchar
        </CharString>
        <CharString name="Ibreve">
          -42 callgsubr
          48 30 callgsubr
          hintmask 10111000
          -97 callsubr
          hintmask 01111000
          -87 callsubr
          -69 320 -91 callgsubr
          endchar
        </CharString>
        <CharString name="Icircumflex">
          -42 callgsubr
          -13 callsubr
          -97 callsubr
          hintmask 01100000
          -87 callsubr
          -235 198 -102 callgsubr
          endchar
        </CharString>
        <CharString name="Idieresis">
          -42 callgsubr
          48 167 -90 callsubr
          5 185 -103 callsubr
          endchar
        </CharString>
        <CharString name="Idotaccent">
          -42 callgsubr
          36 199 -90 callsubr
          -89 173 -55 callsubr
          -53 -69 -46 -47 -72 -51 29 -29 54 hvcurveto
          endchar
        </CharString>
        <CharString name="Igrave">
          -42 callgsubr
          228 -20 -90 callsubr
          -234 236 -96 callsubr
          endchar
        </CharString>
        <CharString name="Imacron">
          -42 callgsubr
          48 122 6 -20 -78 callgsubr
          hintmask 01101000
          -87 callsubr
          74 313 rmoveto
          hintmask 10110000
          -87 callgsubr
          endchar
        </CharString>
        <CharString name="Iogonek">
          -198 -242 87 155 87 472 88 5 35 callsubr
          291 -47 callgsubr
          24 11 22 61 73 vhcurveto
          24 -1 22 -1 0 vvcurveto
          19 84 -6 10 rlineto
          0 -11 -3 -20 -18 -7 8 30 39 39 252 17 94 vhcurveto
          8 37 8 8 45 7 18 90 rcurveline
          hintmask 11100000
          0 -129 -5 -41 -32 callgsubr
          8 -14 rlineto
          0 14 -66 callgsubr
          -6 -55 -12 -15 -54 -12 1 callsubr
          0 102 5 62 vhcurveto
          41 hlineto
          -86 -82 -18 -37 -43 -44 callsubr
          endchar
        </CharString>
        <CharString name="Itilde">
          -42 callgsubr
          77 -56 callsubr
          hintmask 10110010
          -97 callsubr
          hintmask 01101010
          -87 callsubr
          -205 190 rmoveto
          0 48 58 24 vhcurveto
          hintmask 10110010
          -57 callsubr
          hintmask 10100110
          -29 -83 -59 callgsubr
          53 -54 rlineto
          endchar
        </CharString>
        <CharString name="J">
          -228 -143 -21 723 88 8 0 callgsubr
          62 132 -52 callsubr
          20 93 rcurveline
          0 -92 -6 -97 -1 vhcurveto
          hintmask 11000000
          -18 callgsubr
          endchar
        </CharString>
        <CharString name="Jcircumflex">
          -228 -143 -21 723 88 287 -20 hstem
          62 132 -52 callsubr
          20 93 rcurveline
          0 -92 -6 -97 -1 vhcurveto
          -18 callgsubr
          -4 208 -95 callgsubr
        </CharString>
        <CharString name="K">
          119 0 87 -82 -21 663 -20 25 26 callsubr
          -39 callgsubr
          hintmask 01100000
          -54 callsubr
          hintmask 10010000
          -7 15 -7 callsubr
          -16 callgsubr
          endchar
        </CharString>
        <CharString name="Kcommaaccent">
          119 21 callsubr
          87 560 -20 25 35 callsubr
          -39 callgsubr
          hintmask 11100000
          -54 callsubr
          hintmask 11010000
          -7 15 rlineto
          hintmask 11100000
          -16 callgsubr
          -90 -439 -104 callgsubr
          endchar
        </CharString>
        <CharString name="L">
          -14 37 callgsubr
          hintmask 10010000
          189 hmoveto
          -82 callgsubr
          23 98 rcurveline
          hintmask 01100000
          -51 callgsubr
          -42 -338 -55 callgsubr
          hintmask 10100000
          -18 callsubr
          101 vhcurveto
          endchar
        </CharString>
        <CharString name="Lacute">
          -14 0 115 -104 -21 569 88 228 -20 -9 callgsubr
          189 hmoveto
          -82 callgsubr
          23 98 rcurveline
          -51 callgsubr
          -42 -338 -7 -60 -17 -20 -49 -8 rlinecurve
          hintmask 01110000
          -20 -92 rlineto
          hintmask 10110000
          -18 callsubr
          101 vhcurveto
          212 762 -106 callsubr
          endchar
        </CharString>
        <CharString name="Lcaron">
          24 37 callgsubr
          hintmask 10100000
          603 647 rmoveto
          -134 -14 rlineto
          0 11 -118 -2 -120 vhcurveto
          19 -6 73 25 rlineto
          26 112 16 109 0 vvcurveto
          -423 -635 rmoveto
          -82 callgsubr
          rrcurveto
          hintmask 10010000
          23 98 rlineto
          hintmask 01100000
          -51 callgsubr
          -42 -338 -55 callgsubr
          hintmask 10100000
          -18 callsubr
          101 vhcurveto
          endchar
        </CharString>
        <CharString name="Lcommaaccent">
          -14 21 callsubr
          115 444 88 5 35 callsubr
          189 hmoveto
          -82 callgsubr
          23 98 rcurveline
          hintmask 11100000
          -51 callgsubr
          -42 -338 -55 callgsubr
          -18 callsubr
          101 vhcurveto
          -57 -92 -104 callgsubr
          endchar
        </CharString>
        <CharString name="Ldot">
          46 0 115 -104 -21 388 199 -18 88 5 -21 callsubr
          189 hmoveto
          -82 callgsubr
          23 98 rcurveline
          hintmask 01010000
          -51 callgsubr
          -42 -338 -55 callgsubr
          hintmask 10101000
          -18 callsubr
          101 vhcurveto
          308 378 rmoveto
          -77 callsubr
          endchar
        </CharString>
        <CharString name="Lslash">
          -14 37 callgsubr
          hintmask 10010000
          189 hmoveto
          142 144 15 callsubr
          26 139 30 128 -6 callsubr
          15 -130 -13 rlineto
          -134 -23 -21 -29 -66 hhcurveto
          -20 -9 9 23 20 9 69 11 74 hvcurveto
          136 68 -31 93 -9 4 -75 -38 11 65 6 35 19 10 68 7 rlinecurve
          23 98 rlineto
          hintmask 01100000
          -51 callgsubr
          -20 -156 -92 -46 31 -94 10 -2 36 18 -7 -58 -55 callgsubr
          hintmask 10100000
          -18 callsubr
          101 vhcurveto
          endchar
        </CharString>
        <CharString name="M">
          251 0 89 -80 -21 573 87 -1 -20 26 0 callgsubr
          421 -2 rmoveto
          75 197 68 160 3 8 rrcurveto
          13 hlineto
          0 -20 -186 -6 -45 vhcurveto
          -4 -32 -15 -13 -36 -4 -23 -91 rcurveline
          4 14 160 4 18 hhcurveto
          46 -1 61 -2 0 vvcurveto
          19 86 -6 8 rlineto
          0 -14 -2 -15 -29 -8 22 65 3 vhcurveto
          3 93 7 180 7 61 5 40 11 9 53 2 19 88 rcurveline
          hintmask 10001000
          -7 4 -7 callsubr
          0 -43 -3 -48 -2 vhcurveto
          hintmask 10010000
          -4 -62 -60 3 -63 hhcurveto
          -49 -145 -67 -169 0 vvcurveto
          -13 hlineto
          0 -21 169 -7 149 vhcurveto
          0 -99 -4 -55 -41 -103 5 0 vhcurveto
          -20 -86 7 -8 rlineto
          50 -5 5 -7 -17 vvcurveto
          -26 -70 -324 -7 -31 vhcurveto
          -10 -44 -17 -18 -36 -4 -19 -90 rcurveline
          1 77 7 39 32 108 -20 callgsubr
          23 86 -8 8 rlineto
          0 -18 -2 -7 -20 -8 9 18 13 33 235 0 vhcurveto
          13 hlineto
          hintmask 01100000
          7 -55 18 -108 29 -212 rrcurveto
          endchar
        </CharString>
        <CharString name="N">
          8 callgsubr
          5 0 callgsubr
          -44 callgsubr
          vhcurveto
          hintmask 10010000
          -73 -73 5 0 hvcurveto
          -86 callgsubr
          hintmask 01100000
          -3 callsubr
          hintmask 10100000
          -68 callgsubr
          endchar
        </CharString>
        <CharString name="Nacute">
          8 callgsubr
          228 -73 callsubr
          58 429 -106 callsubr
          endchar
        </CharString>
        <CharString name="Ncaron">
          8 callgsubr
          248 -73 callsubr
          101 555 -103 callgsubr
        </CharString>
        <CharString name="Ncommaaccent">
          161 21 callsubr
          86 473 88 5 41 callgsubr
          -44 callgsubr
          vhcurveto
          hintmask 11010000
          -73 -73 5 0 hvcurveto
          -86 callgsubr
          -3 callsubr
          192 12 74 497 6 41 15 16 42 6 rlinecurve
          16 90 rlineto
          hintmask 11100000
          -1 -82 -2 -55 -55 -109 4 0 vhcurveto
          -15 -81 4 -11 rlineto
          30 hlineto
          23 6 -9 -34 -3 hvcurveto
          -18 -183 rlineto
          -268 -425 -104 callgsubr
          endchar
        </CharString>
        <CharString name="Ntilde">
          8 callgsubr
          52 -56 callsubr
          hintmask 10110010
          -44 callgsubr
          -73 -73 5 0 vhcurveto
          -86 callgsubr
          hintmask 01110010
          -3 callsubr
          hintmask 10101010
          -68 callgsubr
          -191 342 -1 callsubr
          hintmask 10110010
          -67 callgsubr
          hintmask 10100110
          -29 -82 -59 callgsubr
          52 -54 rlineto
          endchar
        </CharString>
        <CharString name="O">
          -38 callsubr
          hstem
          -100 callsubr
          endchar
        </CharString>
        <CharString name="OE">
          328 -10 125 -112 112 324 199 -111 111 -111 123 9 -20 hstemhm
          hintmask 10010100
          571 175 rmoveto
          12 85 73 6 rlineto
          44 71 -3 0 hvcurveto
          28 115 -11 14 rlineto
          0 -78 -6 -29 vhcurveto
          -78 1 20 113 rlineto
          22 2 6 5 26 hhcurveto
          69 18 -9 -34 -17 -8 -32 0 hvcurveto
          140 9 rlineto
          16 94 30 105 0 vvcurveto
          -11 16 rlineto
          -12 -92 -135 -9 -86 hhcurveto
          hintmask 10001000
          -89 -80 12 -63 hhcurveto
          -233 -115 -137 -254 -174 102 -95 169 hvcurveto
          hintmask 01100100
          52 74 13 72 hhcurveto
          153 161 -10 0 hvcurveto
          -29 callgsubr
          29 97 -6 callsubr
          15 -130 -9 rlineto
          -90 -22 -19 -16 -80 hhcurveto
          -39 -5 8 52 6 hvcurveto
          -262 -67 rmoveto
          -46 -18 36 91 193 34 100 65 51 24 -30 -59 -7 hvcurveto
          -31 -243 rlineto
          -59 -7 -24 -29 -41 hhcurveto
          endchar
        </CharString>
        <CharString name="Oacute">
          -38 callsubr
          216 -20 hstem
          -100 callsubr
          245 774 -106 callsubr
          endchar
        </CharString>
        <CharString name="Obreve">
          -38 callsubr
          31 45 callgsubr
          hstem
          -100 callsubr
          89 837 -63 callgsubr
        </CharString>
        <CharString name="Ocircumflex">
          -38 callsubr
          hstem
          -100 callsubr
          -58 720 -102 callgsubr
          endchar
        </CharString>
        <CharString name="Odieresis">
          -38 callsubr
          36 167 hstem
          -100 callsubr
          182 707 -103 callsubr
          endchar
        </CharString>
        <CharString name="Ograve">
          -38 callsubr
          216 -20 hstem
          -100 callsubr
          -48 758 -96 callsubr
          endchar
        </CharString>
        <CharString name="Ohungarumlaut">
          -38 callsubr
          221 -20 hstem
          -100 callsubr
          111 811 -84 callsubr
        </CharString>
        <CharString name="Omacron">
          -38 callsubr
          36 122 6 35 callsubr
          -100 callsubr
          251 835 rmoveto
          hintmask 11100000
          -87 callgsubr
          endchar
        </CharString>
        <CharString name="Omega">
          283 14 -21 529 137 hstem
          808 19 rmoveto
          12 92 19 144 0 vvcurveto
          -107 -9 -20 -90 -26 -38 -44 -6 rlinecurve
          -55 -10 rlineto
          110 96 52 103 125 vvcurveto
          141 -109 92 -165 -199 -143 -139 -193 -87 28 -76 55 -61 vhcurveto
          -49 9 -47 6 -16 41 7 96 rlinecurve
          -107 -9 rlineto
          0 -14 -135 -12 -92 vhcurveto
          18 -22 290 6 70 -10 36 81 rlineto
          -25 35 -13 59 75 vvcurveto
          197 28 82 68 47 19 -41 -101 -128 -38 -113 -65 -65 vhcurveto
          17 -81 73 10 282 -6 rlineto
          endchar
        </CharString>
        <CharString name="Oslash">
          76 -96 -21 105 126 408 137 93 -58 callsubr
          endchar
        </CharString>
        <CharString name="Oslashacute">
          76 -96 -21 105 126 408 137 226 -58 callsubr
          193 658 -106 callsubr
          endchar
        </CharString>
        <CharString name="Otilde">
          -38 callsubr
          40 -56 callsubr
          hintmask 11010100
          -100 callsubr
          -28 687 -1 callsubr
          hintmask 11100100
          -67 callgsubr
          hintmask 11001100
          -29 -82 -59 callgsubr
          52 -54 rlineto
          endchar
        </CharString>
        <CharString name="P">
          34 0 88 -76 -21 537 125 -94 94 -6 -20 hstemhm
          hintmask 01010000
          55 569 rmoveto
          8 -12 rlineto
          0 20 2 15 18 5 -13 -41 -5 vhcurveto
          -42 -337 -7 -56 -18 -21 -48 -8 rlinecurve
          -20 -92 -7 callsubr
          0 139 9 44 42 120 -20 callgsubr
          20 86 -4 8 rlineto
          0 -18 -2 -13 -40 -7 18 54 7 vhcurveto
          6 48 rlineto
          83 hlineto
          140 135 122 143 75 -47 105 -205 hvcurveto
          hintmask 10001000
          0 -124 -6 -45 vhcurveto
          -140 hlineto
          220 -316 rmoveto
          9 63 11 61 9 51 rrcurveto
          hintmask 10100000
          19 3 2 3 13 hhcurveto
          59 27 -23 -53 -64 -20 -49 -50 -18 hvcurveto
          endchar
        </CharString>
        <CharString name="Q">
          80 -242 170 60 126 408 137 hstem
          273 -12 rmoveto
          -195 174 46 -35 79 hhcurveto
          37 150 101 0 hvcurveto
          -9 68 -10 11 rlineto
          0 -47 -10 -43 -63 -80 35 55 -59 vhcurveto
          3 vlineto
          124 59 66 132 186 vvcurveto
          173 -97 88 -169 -232 -122 -146 -257 -171 96 -93 159 -4 vhcurveto
          37 126 rmoveto
          -43 -20 38 82 204 28 84 67 44 21 -38 -82 -205 -28 -83 -69 hvcurveto
          endchar
        </CharString>
        <CharString name="R">
          -8 callgsubr
          hstemhm
          hintmask 01001000
          -70 callgsubr
          hintmask 10000100
          -28 callgsubr
          hintmask 00101000
          -63 callsubr
          hintmask 10010000
          -64 callgsubr
          endchar
        </CharString>
        <CharString name="Racute">
          -8 callgsubr
          248 -20 hstemhm
          hintmask 01001010
          -70 callgsubr
          hintmask 10000110
          -28 callgsubr
          hintmask 00101010
          -63 callsubr
          hintmask 10010010
          -64 callgsubr
          143 418 -106 callsubr
          endchar
        </CharString>
        <CharString name="Rcaron">
          -8 callgsubr
          268 -20 hstemhm
          hintmask 01001010
          -70 callgsubr
          hintmask 10000110
          -28 callgsubr
          hintmask 00101010
          -63 callsubr
          hintmask 10010010
          -64 callgsubr
          186 544 -103 callgsubr
        </CharString>
        <CharString name="Rcommaaccent">
          104 -324 -21 335 98 -67 -21 559 94 -6 35 callsubr
          -70 callgsubr
          hintmask 11001000
          -28 callgsubr
          hintmask 10110000
          -63 callsubr
          hintmask 11010000
          -64 callgsubr
          -176 -436 -104 callgsubr
          endchar
        </CharString>
        <CharString name="S">
          -12 callsubr
          -98 callgsubr
          endchar
        </CharString>
        <CharString name="Sacute">
          -12 callsubr
          216 -20 -98 callgsubr
          292 774 -106 callsubr
          endchar
        </CharString>
        <CharString name="Scaron">
          -12 callsubr
          236 -20 -98 callgsubr
          325 900 -103 callgsubr
        </CharString>
        <CharString name="Scedilla">
          -21 23 callgsubr
          126 -27 callsubr
          hstem
          155 -88 callgsubr
          8 27 rlineto
          170 14 102 83 129 vvcurveto
          117 -111 38 -75 36 vhcurveto
          -39 19 -29 18 28 vvcurveto
          28 26 21 37 39 23 -19 -39 -5 -3 -23 0 vhcurveto
          11 -8 118 8 rlineto
          18 90 29 84 -6 callsubr
          22 rlineto
          0 -86 28 -107 -194 -127 -93 -141 -102 81 -43 71 -34 vhcurveto
          54 -25 47 -20 -35 vvcurveto
          -27 -26 -18 -39 -54 -23 39 63 6 vhcurveto
          -127 -9 rlineto
          -11 -66 -31 -99 0 vvcurveto
          10 -18 rlineto
          0 77 -40 108 -3 vhcurveto
          endchar
        </CharString>
        <CharString name="Scircumflex">
          -12 callsubr
          275 -20 -98 callgsubr
          8 728 -95 callgsubr
        </CharString>
        <CharString name="Scommaaccent">
          -21 -324 -21 333 133 -133 230 303 138 -98 callgsubr
          -87 -80 -104 callgsubr
          endchar
        </CharString>
        <CharString name="T">
          21 0 91 -79 -21 535 121 11 -21 callgsubr
          -26 callsubr
          hintmask 10100000
          0 137 9 63 56 143 -6 0 vhcurveto
          -65 callgsubr
          hintmask 10010000
          -11 14 -7 callsubr
          11 callsubr
          hintmask 10010000
          -48 callgsubr
          hintmask 10100000
          11 callgsubr
          endchar
        </CharString>
        <CharString name="Tbar">
          21 0 91 -79 -21 251 66 218 121 11 -20 hstemhm
          hintmask 01110000
          -26 callsubr
          hintmask 10110000
          0 137 9 63 56 143 -23 callgsubr
          -26 -3 -24 -30 -13 14 36 12 4 39 6 50 vhcurveto
          92 hlineto
          5 55 -15 15 -73 -2 11 79 13 87 8 50 rlinecurve
          48 2 -20 -124 -6 hvcurveto
          125 8 rlineto
          0 13 137 14 117 vhcurveto
          hintmask 10101000
          -11 14 rlineto
          hintmask 10110000
          11 callsubr
          hintmask 10101000
          -48 callgsubr
          hintmask 10110000
          11 callgsubr
          -27 -218 -89 1 -8 -58 11 -10 rlineto
          78 hlineto
          endchar
        </CharString>
        <CharString name="Tcaron">
          21 0 91 -79 -21 535 121 248 -20 hstemhm
          hintmask 01110000
          -26 callsubr
          hintmask 10110000
          0 137 9 63 56 143 -6 0 vhcurveto
          -65 callgsubr
          -11 14 11 callsubr
          -48 callgsubr
          11 callgsubr
          298 362 -103 callgsubr
        </CharString>
        <CharString name="Tcedilla">
          21 23 callgsubr
          138 91 435 121 11 -20 hstemhm
          hintmask 11110000
          194 -88 callgsubr
          11 37 rlineto
          66 -2 99 -4 0 vvcurveto
          -65 callgsubr
          hintmask 11101000
          -11 14 rlineto
          hintmask 11110000
          11 callsubr
          hintmask 11101000
          -48 callgsubr
          hintmask 11110000
          11 callgsubr
          -44 -358 -8 -62 -19 -16 -80 -7 rlinecurve
          -19 -92 rlineto
          0 102 7 68 2 vhcurveto
          endchar
        </CharString>
        <CharString name="Thorn">
          33 0 87 -71 -21 412 115 37 88 5 -21 callsubr
          325 527 rmoveto
          4 22 7 3 48 10 18 90 rcurveline
          hintmask 01110000
          0 -129 -5 -41 -32 callgsubr
          8 -14 rlineto
          0 14 -66 callgsubr
          -6 -56 -14 -15 -52 -11 1 callsubr
          hintmask 10110000
          0 103 5 61 44 130 -31 callgsubr
          -13 -3 -28 -24 -6 5 24 3 vhcurveto
          3 23 rlineto
          69 hlineto
          155 113 87 134 109 -69 53 -146 hvcurveto
          -66 hlineto
          -23 -137 rmoveto
          16 2 7 6 13 hhcurveto
          51 24 -19 -44 -49 -17 -38 -39 -11 hvcurveto
          -9 -24 4 6 -25 hvcurveto
          4 34 10 68 3 27 rrcurveto
          endchar
        </CharString>
        <CharString name="U">
          -35 callsubr
          4 0 callgsubr
          292 509 rmoveto
          4 32 14 13 34 4 21 93 rcurveline
          hintmask 11000000
          0 -94 -4 -38 -78 -96 3 0 vhcurveto
          -21 -89 2 -4 rlineto
          0 18 2 10 22 3 -9 -45 -5 vhcurveto
          -38 -306 rlineto
          -2 -14 -1 -13 -13 vvcurveto
          -116 73 -55 154 168 90 80 166 22 vhcurveto
          35 282 3 24 6 6 42 14 rlinecurve
          19 90 rlineto
          0 -82 -3 -61 -35 -81 3 0 vhcurveto
          -22 -89 3 -4 rlineto
          0 12 2 9 19 4 -12 -42 -5 vhcurveto
          0 -28 -240 -8 -62 vhcurveto
          -64 -9 -21 -24 -46 hhcurveto
          -40 -20 26 51 1 hvcurveto
          6 1 13 1 9 vhcurveto
          endchar
        </CharString>
        <CharString name="Uacute">
          -35 callsubr
          228 -20 hstem
          -107 callgsubr
          271 542 -106 callsubr
          endchar
        </CharString>
        <CharString name="Ubreve">
          -35 callsubr
          53 45 callgsubr
          hstem
          -107 callgsubr
          129 615 -63 callgsubr
        </CharString>
        <CharString name="Ucircumflex">
          -35 callsubr
          hstem
          -107 callgsubr
          -18 488 -102 callgsubr
          endchar
        </CharString>
        <CharString name="Udieresis">
          -35 callsubr
          48 167 hstem
          -107 callgsubr
          222 475 -103 callsubr
          endchar
        </CharString>
        <CharString name="Ugrave">
          -35 callsubr
          228 -20 hstem
          -107 callgsubr
          -24 526 -96 callsubr
          endchar
        </CharString>
        <CharString name="Uhungarumlaut">
          -35 callsubr
          233 -20 hstem
          -107 callgsubr
          151 579 -84 callsubr
        </CharString>
        <CharString name="Umacron">
          -35 callsubr
          48 122 6 35 callsubr
          -107 callgsubr
          291 603 rmoveto
          hintmask 11100000
          -87 callgsubr
          endchar
        </CharString>
        <CharString name="Uogonek">
          48 -242 87 143 127 444 88 4 41 callgsubr
          461 -47 callgsubr
          30 31 49 68 77 vhcurveto
          54 61 29 62 10 76 35 282 rcurveline
          3 24 6 6 42 14 19 90 rcurveline
          0 -82 -3 -61 -35 -81 3 0 vhcurveto
          -22 -89 3 -4 rlineto
          0 12 2 9 19 4 -12 -42 -5 vhcurveto
          0 -28 -240 -8 -62 vhcurveto
          -64 -9 -21 -24 -46 hhcurveto
          -40 -20 26 51 1 hvcurveto
          5 1 13 1 10 vhcurveto
          41 289 4 32 14 13 34 4 rlinecurve
          hintmask 11010000
          21 93 rlineto
          hintmask 11100000
          0 -94 -4 -38 -78 -96 3 0 vhcurveto
          -21 -89 2 -4 rlineto
          0 18 2 10 22 3 -9 -45 -5 vhcurveto
          -38 -306 rlineto
          -2 -14 -1 -13 -13 vvcurveto
          -116 73 -55 154 25 24 2 4 21 vhcurveto
          -68 -71 -22 -38 -47 vvcurveto
          -50 44 -30 74 vhcurveto
          48 18 62 54 0 vvcurveto
          endchar
        </CharString>
        <CharString name="Uring">
          -35 callsubr
          35 210 -72 72 hstemhm
          hintmask 11010000
          -107 callgsubr
          143 532 29 callsubr
          -30 callsubr
          hvcurveto
          hintmask 11100000
          -16 -70 -49 callsubr
          endchar
        </CharString>
        <CharString name="Utilde">
          -35 callsubr
          77 -56 callsubr
          hintmask 11010100
          -107 callgsubr
          12 480 rmoveto
          0 48 58 24 vhcurveto
          hintmask 11100100
          -57 callsubr
          hintmask 11001100
          -29 -83 -59 callgsubr
          53 -54 rlineto
          endchar
        </CharString>
        <CharString name="V">
          66 8 -21 660 -20 25 -11 callgsubr
          85 493 rmoveto
          12 -108 41 -398 0 vvcurveto
          280 17 199 502 16 39 8 9 22 7 rlinecurve
          17 87 rlineto
          0 -64 -1 -56 -59 -91 3 0 vhcurveto
          -18 -83 7 -10 rlineto
          24 hlineto
          20 6 -7 -13 -33 -101 -281 -20 -55 hvcurveto
          -22 hlineto
          0 -6 255 84 vvcurveto
          34 12 11 54 7 vhcurveto
          16 84 -7 callsubr
          -6 9 rlineto
          hintmask 11000000
          0 -94 -5 -94 -53 -81 2 0 vhcurveto
          -18 -79 6 -10 26 -4 11 -18 6 -45 rlinecurve
          endchar
        </CharString>
        <CharString name="W">
          10 callsubr
          5 -11 callgsubr
          778 4 rmoveto
          188 502 14 36 8 11 23 8 rlinecurve
          17 87 rlineto
          0 -61 -1 -54 -56 -88 3 0 vhcurveto
          -18 -83 6 -10 rlineto
          23 hlineto
          21 4 -3 -14 -22 -75 -236 -43 -114 hvcurveto
          -21 hlineto
          0 -6 254 86 vvcurveto
          34 14 11 52 6 vhcurveto
          17 84 -7 callsubr
          -7 9 rlineto
          hintmask 11000000
          0 -90 -5 -90 -58 -101 2 0 vhcurveto
          -19 -79 6 -10 rlineto
          44 8 -5 -26 -3 hvcurveto
          -2 -5 -2 -9 -3 -13 -19 -62 -61 -182 -32 -90 rrcurveto
          -21 hlineto
          0 -5 254 86 vvcurveto
          31 16 12 49 8 vhcurveto
          17 84 -7 callsubr
          -6 9 rlineto
          hintmask 11000000
          0 -92 -5 -89 -51 -77 2 0 vhcurveto
          -19 -79 6 -10 23 -5 9 -15 9 -47 rlinecurve
          10 -108 38 -398 0 vvcurveto
          270 17 87 268 rlineto
          14 hlineto
          6 -285 rlineto
          endchar
        </CharString>
        <CharString name="Wacute">
          10 callsubr
          228 -20 -102 callsubr
          210 775 -106 callsubr
          endchar
        </CharString>
        <CharString name="Wcircumflex">
          10 callsubr
          -102 callsubr
          -89 721 -102 callgsubr
          endchar
        </CharString>
        <CharString name="Wdieresis">
          10 callsubr
          38 167 -102 callsubr
          151 698 -103 callsubr
          endchar
        </CharString>
        <CharString name="Wgrave">
          10 callsubr
          228 -20 -102 callsubr
          -95 759 -96 callsubr
          endchar
        </CharString>
        <CharString name="X">
          136 16 -21 565 87 6 -11 callgsubr
          124 219 rmoveto
          -41 -53 -66 -62 -29 -14 -15 -80 rcurveline
          3 -14 rlineto
          0 93 6 39 31 117 -6 0 vhcurveto
          15 81 -5 11 rlineto
          -23 -10 8 17 12 9 16 11 17 hvcurveto
          41 63 46 -88 rlineto
          5 -9 3 -8 -7 vvcurveto
          -15 -10 -7 -19 -1 vhcurveto
          -17 -84 41 callsubr
          159 7 45 37 95 45 callsubr
          94 -46 1 -30 26 -34 59 rlinecurve
          -66 122 107 145 39 53 32 25 66 31 rlinecurve
          16 87 -3 8 rlineto
          0 -70 -3 -57 vhcurveto
          -153 hlineto
          -16 -80 2 -6 rlineto
          25 8 -4 -13 -18 -41 -57 -29 -45 hvcurveto
          -25 48 -20 34 26 vvcurveto
          19 12 9 27 vhcurveto
          17 82 -7 callsubr
          -5 11 rlineto
          hintmask 11000000
          0 -129 -6 -41 -106 -66 -9 callsubr
          -20 -91 4 -6 45 -12 26 -8 33 -64 rlinecurve
          62 -121 rlineto
          endchar
        </CharString>
        <CharString name="Y">
          -2 callsubr
          7 0 callgsubr
          332 533 rmoveto
          18 13 9 28 vhcurveto
          19 82 rlineto
          hintmask 10010000
          -6 11 -7 callsubr
          0 -133 -7 -44 -32 -116 2 0 vhcurveto
          -21 -91 4 -6 39 -19 31 -28 14 -37 rlinecurve
          80 -199 16 -39 4 -22 -4 -29 rlinecurve
          -2 -16 -7 -59 -20 -14 -84 -6 rlinecurve
          hintmask 01100000
          -19 -92 -7 callsubr
          -94 callsubr
          endchar
        </CharString>
        <CharString name="Yacute">
          -2 callsubr
          229 -20 -9 callgsubr
          332 533 rmoveto
          18 13 9 28 vhcurveto
          19 82 -6 11 rlineto
          0 -133 -7 -44 -32 -116 2 0 vhcurveto
          -21 -91 4 -6 39 -19 31 -28 14 -37 rlinecurve
          80 -199 16 -39 4 -22 -4 -29 rlinecurve
          -2 -16 -7 -59 -20 -14 -84 -6 rlinecurve
          hintmask 01110000
          -19 -92 rlineto
          hintmask 10110000
          -94 callsubr
          222 229 -106 callsubr
          endchar
        </CharString>
        <CharString name="Ycircumflex">
          -2 callsubr
          -13 callsubr
          332 533 rmoveto
          18 13 9 28 vhcurveto
          19 82 -6 11 rlineto
          0 -133 -7 -44 -32 -116 2 0 vhcurveto
          -21 -91 4 -6 39 -19 31 -28 14 -37 rlinecurve
          80 -199 16 -39 4 -22 -4 -29 rlinecurve
          -2 -16 -7 -59 -20 -14 -84 -6 rlinecurve
          hintmask 01100000
          -19 -92 -7 callsubr
          -94 callsubr
          -77 175 -102 callgsubr
          endchar
        </CharString>
        <CharString name="Ydieresis">
          -2 callsubr
          39 167 -9 callgsubr
          332 533 rmoveto
          18 13 9 28 vhcurveto
          19 82 -6 11 rlineto
          0 -133 -7 -44 -32 -116 2 0 vhcurveto
          -21 -91 4 -6 39 -19 31 -28 14 -37 rlinecurve
          80 -199 16 -39 4 -22 -4 -29 rlinecurve
          -2 -16 -7 -59 -20 -14 -84 -6 rlinecurve
          hintmask 01110000
          -19 -92 rlineto
          hintmask 10110000
          -94 callsubr
          163 152 -103 callsubr
          endchar
        </CharString>
        <CharString name="Ygrave">
          -2 callsubr
          229 -20 -9 callgsubr
          332 533 rmoveto
          18 13 9 28 vhcurveto
          19 82 -6 11 rlineto
          0 -133 -7 -44 -32 -116 2 0 vhcurveto
          -21 -91 4 -6 39 -19 31 -28 14 -37 rlinecurve
          80 -199 16 -39 4 -22 -4 -29 rlinecurve
          -2 -16 -7 -59 -20 -14 -84 -6 rlinecurve
          hintmask 01110000
          -19 -92 rlineto
          hintmask 10110000
          -94 callsubr
          -93 213 -96 callsubr
          endchar
        </CharString>
        <CharString name="Z">
          20 callgsubr
          11 -11 callgsubr
          531 19 rmoveto
          14 100 40 156 0 vvcurveto
          -128 -9 -19 -93 -29 -39 -63 -10 rlinecurve
          -99 -15 64 85 149 202 167 199 rlinecurve
          -18 54 rlineto
          -325 hlineto
          hintmask 10100000
          -175 11 rlineto
          hintmask 11000000
          -12 -11 rlineto
          -14 -93 -30 -147 0 vvcurveto
          128 9 13 85 11 18 77 11 rlinecurve
          71 10 -374 -491 29 -58 81 10 419 -6 rlineto
          endchar
        </CharString>
        <CharString name="Zacute">
          20 callgsubr
          226 -20 -77 callgsubr
          13 765 -106 callsubr
          endchar
        </CharString>
        <CharString name="Zcaron">
          20 callgsubr
          246 -20 -77 callgsubr
          46 891 -103 callgsubr
        </CharString>
        <CharString name="Zdotaccent">
          20 callgsubr
          34 199 -77 callgsubr
          -130 686 -55 callsubr
          -53 -69 -46 -47 -72 -51 29 -29 54 hvcurveto
          endchar
        </CharString>
        <CharString name="a">
          -33 callgsubr
          517 -20 -100 callgsubr
          -224 238 -71 callsubr
          endchar
        </CharString>
        <CharString name="a.sups">
          -62 callgsubr
        </CharString>
        <CharString name="aacute">
          -33 callgsubr
          735 -20 -100 callgsubr
          -31 493 -106 callsubr
          -186 -239 -71 callsubr
          endchar
        </CharString>
        <CharString name="abreve">
          -33 callgsubr
          545 30 callgsubr
          hintmask 10110000
          511 125 rmoveto
          -106 callgsubr
          rlineto
          hintmask 01110000
          6 -7 rlineto
          hintmask 10110000
          -80 callsubr
          -171 551 -91 callgsubr
          -53 -313 -71 callsubr
          endchar
        </CharString>
        <CharString name="acircumflex">
          -33 callgsubr
          hstemhm
          hintmask 10000000
          511 125 rmoveto
          -106 callgsubr
          rlineto
          hintmask 01000000
          6 -7 rlineto
          hintmask 10000000
          -80 callsubr
          -332 439 -102 callgsubr
          136 -263 -71 callsubr
          endchar
        </CharString>
        <CharString name="acute">
          546 -21 235 -20 hstem
          346 659 -5 callgsubr
        </CharString>
        <CharString name="acute.cap">
          712 -21 184 -20 hstem
          340 762 -106 callsubr
          endchar
        </CharString>
        <CharString name="adieresis">
          -33 callgsubr
          555 167 -100 callgsubr
          -92 426 -103 callsubr
          56 -188 -71 callsubr
          endchar
        </CharString>
        <CharString name="ae">
          31 callsubr
          9 26 callsubr
          -58 callgsubr
          hintmask 10001000
          -10 13 rlineto
          hintmask 01100000
          -28 -3 -141 -5 -117 -1 rrcurveto
          -17 callgsubr
          -37 callsubr
          -3 180 26 callgsubr
        </CharString>
        <CharString name="aeacute">
          31 callsubr
          287 -20 hstemhm
          hintmask 10011000
          -58 callgsubr
          -10 13 -28 -3 -141 -5 -117 -1 rlinecurve
          -17 callgsubr
          hintmask 01101000
          -37 callsubr
          317 616 rmoveto
          -72 101 rlineto
          -17 hlineto
          0 -93 -86 -94 -81 vhcurveto
          41 -61 22 -7 rlineto
          103 61 108 56 0 vvcurveto
          -318 -419 26 callgsubr
        </CharString>
        <CharString name="agrave">
          -33 callgsubr
          735 -20 -100 callgsubr
          -317 477 -96 callsubr
          100 -255 -71 callsubr
          endchar
        </CharString>
        <CharString name="amacron">
          -33 callgsubr
          555 122 6 -20 -96 callgsubr
          hintmask 10010000
          -80 callsubr
          -24 554 rmoveto
          hintmask 10100000
          -87 callgsubr
          hintmask 10010000
          -209 -298 -71 callsubr
          endchar
        </CharString>
        <CharString name="ampersand">
          114 -12 124 87 113 32 139 161 -20 hstem
          630 198 rmoveto
          19 6 71 66 rlineto
          5 vlineto
          -33 58 rlineto
          -6 hlineto
          0 -37 -21 -28 vhcurveto
          -22 -116 12 -31 hhcurveto
          -17 -5 -73 -66 -1 -4 35 -59 rlineto
          6 hlineto
          0 23 19 21 vhcurveto
          12 -1 rlineto
          -63 -20 -50 -33 -76 hhcurveto
          -52 -43 18 29 -28 hvcurveto
          140 77 110 113 104 140 rrcurveto
          8 12 8 13 13 vvcurveto
          28 -53 89 0 vhcurveto
          -53 hlineto
          -15 -16 -20 -96 -25 -53 -50 -73 rlinecurve
          -7 4 rlineto
          11 vlineto
          31 -36 31 -46 -116 -111 -118 -141 -140 96 -96 152 123 126 90 123 53 vhcurveto
          -429 65 rmoveto
          51 24 27 35 18 10 -11 -23 -27 -8 -13 -74 -45 vhcurveto
          -3 13 -2 16 12 vvcurveto
          endchar
        </CharString>
        <CharString name="aogonek">
          17 -242 87 175 -21 514 -20 hstem
          534 -47 callgsubr
          24 11 22 62 74 vhcurveto
          15 13 -1 0 hvcurveto
          16 66 -6 9 -19 3 -12 13 -4 36 rlinecurve
          -106 callgsubr
          41 callsubr
          82 3 79 vhcurveto
          12 hlineto
          -85 -81 -18 -37 -43 -44 callsubr
          -268 533 -71 callsubr
          endchar
        </CharString>
        <CharString name="approxequal">
          -66 52 -21 24 133 -99 133 33 133 -99 133 24 -20 hstemhm
          hintmask 11001100
          72 231 rmoveto
          0 64 58 30 vhcurveto
          hintmask 11010100
          3 callsubr
          hintmask 10101100
          16 callgsubr
          -8 -200 rmoveto
          0 63 58 30 vhcurveto
          hintmask 11010100
          39 108 -34 44 hhcurveto
          23 4 119 115 2 16 -42 56 rlineto
          -16 hlineto
          0 -63 -58 -31 vhcurveto
          hintmask 10110100
          -38 -109 34 -44 hhcurveto
          -22 -4 -119 -115 -2 -16 42 -56 rlineto
          endchar
        </CharString>
        <CharString name="aring">
          -33 callgsubr
          542 210 -72 72 -100 callgsubr
          -187 413 -49 callsubr
          -37 -175 -71 callsubr
          100 370 29 callsubr
          hvcurveto
          hintmask 10010000
          -30 callsubr
          vhcurveto
          endchar
        </CharString>
        <CharString name="aringacute">
          -33 callgsubr
          530 189 -126 -20 81 65 157 -20 hstemhm
          hintmask 10100100
          511 125 rmoveto
          -106 callgsubr
          rlineto
          hintmask 01100100
          6 -7 rlineto
          hintmask 10100100
          -80 callsubr
          -196 401 13 callsubr
          160 245 -6 callgsubr
          -182 -393 -71 callsubr
          hintmask 10011100
          89 351 13 callgsubr
          endchar
        </CharString>
        <CharString name="asciicircum">
          -103 117 -21 388 -20 hstem
          326 484 rmoveto
          -153 -7 -96 -178 rlineto
          -41 -77 -45 -74 0 vvcurveto
          9 -18 101 -34 rlineto
          0 46 93 40 73 vhcurveto
          48 90 rlineto
          7 hlineto
          34 -102 rlineto
          22 -71 25 -74 0 vvcurveto
          20 -9 98 56 -46 138 rlineto
          -20 69 -35 117 0 vvcurveto
          endchar
        </CharString>
        <CharString name="asciitilde">
          -67 172 -21 24 133 -99 133 24 -20 -9 callgsubr
          62 151 rmoveto
          0 64 58 30 vhcurveto
          hintmask 11010000
          3 callsubr
          hintmask 10110000
          16 callgsubr
          endchar
        </CharString>
        <CharString name="asterisk">
          -209 409 -21 364 -20 hstem
          76 681 rmoveto
          -11 -3 rlineto
          -14 -39 0 -54 0 vvcurveto
          0 57 -14 55 -16 vhcurveto
          9 7 9 49 rlineto
          -61 46 -44 24 2 callgsubr
          -216 rmoveto
          -1 -12 rlineto
          33 -25 52 -16 0 vvcurveto
          0 30 50 32 48 vhcurveto
          -3 9 -45 24 rlineto
          -62 -44 -36 -34 0 vvcurveto
          203 -72 rmoveto
          11 -5 rlineto
          35 23 31 45 0 vvcurveto
          0 -39 45 -34 45 vhcurveto
          -11 hlineto
          -37 -35 rlineto
          23 -74 21 -44 0 vvcurveto
          132 171 rmoveto
          8 8 rlineto
          -11 40 -33 44 0 vvcurveto
          0 -55 -22 -53 -19 vhcurveto
          -4 -11 22 -46 rlineto
          77 -1 49 7 0 vvcurveto
          -121 178 rmoveto
          -7 10 rlineto
          -42 -52 -16 0 0 6 -59 2 -57 hvcurveto
          8 -5 50 5 rlineto
          24 73 11 49 0 vvcurveto
          endchar
        </CharString>
        <CharString name="at">
          316 -240 91 137 116 263 105 96 105 hstem
          504 -12 rmoveto
          228 144 141 221 200 -144 123 -235 -260 -230 -236 -268 -255 180 -154 299 hvcurveto
          37 64 rlineto
          9 1 9 9 vvcurveto
          -264 -144 124 228 208 149 156 201 1 hvcurveto
          188 115 -98 -160 -119 -67 -87 -92 hvcurveto
          -7 8 rlineto
          21 128 48 209 0 vvcurveto
          -8 23 -134 12 -19 -12 -5 -20 -72 20 rlineto
          -122 -132 -170 -157 -99 56 -58 95 hvcurveto
          41 28 37 47 55 95 rrcurveto
          10 hlineto
          -21 -90 -3 -13 -13 vvcurveto
          -32 22 -22 32 vhcurveto
          -127 155 rmoveto
          -8 -6 27 37 74 22 86 19 36 38 -26 0 hvcurveto
          -95 -26 -53 -103 -22 hhcurveto
          endchar
        </CharString>
        <CharString name="atilde">
          -33 callgsubr
          559 -56 callsubr
          hintmask 10100100
          511 125 rmoveto
          -106 callgsubr
          rlineto
          hintmask 01100100
          6 -7 rlineto
          hintmask 10010100
          -80 callsubr
          -303 406 -1 callsubr
          hintmask 10100100
          -67 callgsubr
          hintmask 10001100
          -29 -82 -59 callgsubr
          52 -54 rlineto
          95 -168 -71 callsubr
          endchar
        </CharString>
        <CharString name="b">
          2 -9 108 -78 -21 400 110 -6 -21 callgsubr
          140 hmoveto
          hintmask 10100000
          23 95 -5 -4 17 hvcurveto
          177 86 55 117 45 -29 36 -55 24 hvcurveto
          65 42 26 39 51 vvcurveto
          70 -67 40 -116 vhcurveto
          hintmask 01010000
          0 -132 -6 -26 -25 -120 2 0 vhcurveto
          -18 -68 9 -10 rlineto
          0 18 1 10 12 7 -13 -21 -3 vhcurveto
          -34 -269 -5 -36 -13 -12 -42 -7 rlinecurve
          -17 -76 rlineto
          0 104 5 53 vhcurveto
          168 196 rmoveto
          23 -9 12 -15 -19 vvcurveto
          hintmask 10100000
          -36 -21 -18 -38 -37 -15 10 22 4 vhcurveto
          12 66 rlineto
          31 194 rmoveto
          7 2 3 2 11 hhcurveto
          41 19 -12 -26 -39 -33 -24 0 -20 -36 8 1 -3 hvcurveto
          2 9 7 48 7 26 rrcurveto
          endchar
        </CharString>
        <CharString name="b.sups">
          -169 319 88 418 -20 hstem
          11 380 rmoveto
          10 -18 rlineto
          0 54 -43 96 104 90 99 114 71 -42 41 -73 vhcurveto
          -27 -18 -23 -27 -36 -60 -7 -1 rcurveline
          21 115 32 158 0 vvcurveto
          -12 14 rlineto
          0 -97 -9 -65 vhcurveto
          -9 -59 rlineto
          18 hlineto
          16 7 -6 -15 -20 -57 -336 0 hvcurveto
          214 167 rmoveto
          4 2 -18 -24 -57 -14 -41 -20 -18 -19 18 -1 3 hvcurveto
          52 11 36 71 15 hhcurveto
          endchar
        </CharString>
        <CharString name="backslash">
          -238 -89 -21 785 -20 hstem
          34 655 rmoveto
          0 41 -278 21 -162 vhcurveto
          21 -165 20 -160 0 vvcurveto
          126 hlineto
          13 15 rlineto
          0 -28 169 -19 152 vhcurveto
          -56 449 rlineto
          -119 hlineto
          endchar
        </CharString>
        <CharString name="bar">
          -277 -248 -21 1076 -20 hstem
          257 807 rmoveto
          -114 -11 -65 -520 rlineto
          -23 -179 -43 -350 0 vvcurveto
          13 -16 118 11 rlineto
          0 45 377 21 172 vhcurveto
          20 166 47 334 0 vvcurveto
          endchar
        </CharString>
        <CharString name="braceleft">
          -231 -123 114 562 106 hstem
          39 235 rmoveto
          40 -12 21 -22 -31 -45 -75 -79 -63 vvcurveto
          -60 56 -46 77 71 39 23 0 vhcurveto
          24 83 -11 13 rlineto
          0 -15 -5 -15 -29 -18 19 30 vhcurveto
          41 46 78 47 vvcurveto
          37 -20 28 -41 14 vhcurveto
          1 5 rlineto
          52 13 30 36 46 32 -12 49 29 vvcurveto
          36 21 22 34 14 19 -5 0 vhcurveto
          28 83 -8 16 rlineto
          0 -47 12 -41 -108 -79 -52 -74 vhcurveto
          -48 33 -64 -39 vvcurveto
          -31 -27 -26 -46 -14 vhcurveto
          endchar
        </CharString>
        <CharString name="braceright">
          -231 -123 106 562 114 hstem
          296 311 rmoveto
          -39 7 -21 24 34 43 73 74 60 vvcurveto
          60 -56 46 -77 -71 -39 -23 0 vhcurveto
          -24 -83 11 -13 rlineto
          0 15 5 15 29 18 -19 -30 vhcurveto
          -39 -45 -72 -45 vvcurveto
          -37 20 -28 41 -14 vhcurveto
          -1 -5 rlineto
          -51 -14 -31 -35 -48 -34 11 -52 -30 vvcurveto
          -38 -21 -22 -34 -14 -19 5 0 vhcurveto
          -28 -83 8 -16 rlineto
          0 47 -12 41 109 79 56 80 vhcurveto
          48 -32 64 39 vvcurveto
          32 29 28 44 11 vhcurveto
          endchar
        </CharString>
        <CharString name="bracketleft">
          -240 -106 -21 777 -20 hstem
          263 -127 rmoveto
          18 83 -3 11 -90 17 69 555 90 17 18 84 -3 10 -251 -11 rlineto
          0 -24 -279 -12 -100 vhcurveto
          -12 -100 -45 -276 0 vvcurveto
          endchar
        </CharString>
        <CharString name="bracketright">
          -240 -106 -21 777 -20 hstem
          60 650 rmoveto
          -18 -83 3 -11 90 -17 -68 -555 -90 -17 -19 -84 3 -10 251 11 rlineto
          0 24 279 12 100 vhcurveto
          13 100 44 276 0 vvcurveto
          endchar
        </CharString>
        <CharString name="breve">
          535 45 callgsubr
          hstem
          246 670 -63 callgsubr
        </CharString>
        <CharString name="breve.cap">
          655 45 callgsubr
          hstem
          263 790 -91 callgsubr
          endchar
        </CharString>
        <CharString name="brokenbar">
          -277 -248 -21 1076 -20 hstem
          219 374 rmoveto
          22 174 35 243 0 vvcurveto
          -19 16 -114 -11 -54 -427 12 -11 rlineto
          -39 -208 rmoveto
          -24 -184 -26 -219 0 vvcurveto
          12 -16 118 11 rlineto
          0 26 221 23 187 vhcurveto
          -16 17 rlineto
          endchar
        </CharString>
        <CharString name="bullet">
          -227 130 -21 265 -20 hstem
          144 109 rmoveto
          91 59 63 95 68 -38 39 -68 -93 -59 -62 -96 -69 38 -38 70 hvcurveto
          endchar
        </CharString>
        <CharString name="c">
          -40 callgsubr
          -92 callsubr
          endchar
        </CharString>
        <CharString name="c.sups">
          -262 319 101 146 86 hstem
          179 566 rmoveto
          17 12 -11 -24 12 hvcurveto
          32 hlineto
          36 92 -3 13 rlineto
          10 -19 -30 6 -28 hhcurveto
          -109 -89 -93 -118 -74 46 -48 70 59 68 48 57 21 hvcurveto
          -39 42 -15 3 rlineto
          -32 -15 -17 -17 -17 hhcurveto
          -20 -11 16 32 59 15 39 24 hvcurveto
          endchar
        </CharString>
        <CharString name="cacute">
          -40 callgsubr
          217 -20 -92 callsubr
          208 626 -106 callsubr
          endchar
        </CharString>
        <CharString name="caron">
          536 -21 225 -20 hstem
          69 671 rmoveto
          68 -69 75 -87 0 vvcurveto
          27 hlineto
          0 97 87 85 69 vhcurveto
          -38 62 -22 7 -41 -27 -48 -27 -27 -15 rlinecurve
          -23 15 -42 27 -34 27 -24 -7 rcurveline
          endchar
        </CharString>
        <CharString name="caron.alt">
          522 -21 258 -20 hstem
          319 759 rmoveto
          -135 -14 rlineto
          0 -4 -118 -17 -120 vhcurveto
          19 25 callgsubr
        </CharString>
        <CharString name="caron.cap">
          709 -21 207 -20 hstem
          422 888 -103 callgsubr
        </CharString>
        <CharString name="ccaron">
          -40 callgsubr
          237 -20 -92 callsubr
          244 752 -103 callgsubr
        </CharString>
        <CharString name="ccedilla">
          -60 23 callgsubr
          131 121 -121 209 97 215 -119 119 hstem
          175 -88 callgsubr
          9 30 rlineto
          89 5 68 23 0 vvcurveto
          13 13 rlineto
          8 78 20 95 0 vvcurveto
          -140 -9 rlineto
          -69 -13 -11 -15 -36 hhcurveto
          -35 -10 22 82 132 16 45 51 30 18 -15 -25 -14 -9 -46 0 hvcurveto
          142 8 rlineto
          18 99 26 73 2 callgsubr
          18 rlineto
          0 -120 21 -69 -201 -101 -103 -205 -129 66 -74 122 -10 vhcurveto
          endchar
        </CharString>
        <CharString name="ccircumflex">
          -40 callgsubr
          276 -20 -92 callsubr
          -60 580 -95 callgsubr
        </CharString>
        <CharString name="cdotaccent">
          -40 callgsubr
          25 199 -92 callsubr
          78 547 -55 callsubr
          -53 -69 -46 -47 -72 -51 29 -29 54 hvcurveto
          endchar
        </CharString>
        <CharString name="cedilla">
          -166 23 callgsubr
          174 -20 hstem
          86 -88 callgsubr
          23 73 rlineto
          -62 hlineto
          endchar
        </CharString>
        <CharString name="cent">
          -164 -143 -21 292 235 295 -20 hstem
          253 363 rmoveto
          25 18 -16 -36 17 hvcurveto
          43 1 51 129 -4 18 -15 8 -18 6 -21 4 rlinecurve
          43 172 -5 9 -119 -14 -42 -170 rlineto
          -122 -35 -91 -125 -147 vvcurveto
          -83 36 -60 60 -24 vhcurveto
          -38 -158 7 -6 117 13 37 149 65 22 62 56 25 65 rlinecurve
          -52 58 -21 3 rlineto
          -48 -22 -27 -26 -26 hhcurveto
          -31 -17 27 51 91 27 66 38 hvcurveto
          endchar
        </CharString>
        <CharString name="circumflex">
          556 -21 225 -20 hstem
          99 542 -95 callgsubr
        </CharString>
        <CharString name="circumflex.cap">
          722 -21 hstem
          98 708 -102 callgsubr
          endchar
        </CharString>
        <CharString name="colon">
          -326 -9 199 66 199 hstem
          86 -9 rmoveto
          -77 callsubr
          32 265 rmoveto
          -77 callsubr
          endchar
        </CharString>
        <CharString name="comma">
          -326 -101 30 callsubr
          1 -22 callgsubr
          endchar
        </CharString>
        <CharString name="commaaccent">
          -324 30 callsubr
          42 -92 -104 callgsubr
          endchar
        </CharString>
        <CharString name="copyright">
          121 -12 59 86 77 -77 133 61 136 -75 75 76 59 hstem
          48 261 rmoveto
          -153 110 -120 150 176 160 153 183 152 -111 122 -150 -176 -159 -153 -184 vhcurveto
          60 6 rmoveto
          148 127 124 141 120 88 -97 -123 -148 -128 -124 -141 -120 -87 97 123 vhcurveto
          224 -134 rmoveto
          67 54 18 0 hvcurveto
          8 9 rlineto
          5 49 12 60 0 vvcurveto
          -88 -6 rlineto
          -43 -8 -7 -10 -23 hhcurveto
          -22 -6 14 52 83 10 29 32 19 11 -10 -16 -8 -5 -29 0 hvcurveto
          89 5 rlineto
          12 62 16 46 0 vvcurveto
          -4 12 rlineto
          0 -75 13 -44 -127 -64 -65 -130 -88 49 -47 89 vhcurveto
          endchar
        </CharString>
        <CharString name="currency">
          -126 126 -21 65 98 149 98 66 -20 hstem
          71 322 rmoveto
          -14 1 -16 3 -12 vhcurveto
          -28 -22 -26 -22 -30 -22 65 -105 rcurveline
          23 -4 rlineto
          0 39 39 38 40 vhcurveto
          -9 19 22 -5 23 hhcurveto
          20 21 4 7 19 hvcurveto
          54 -74 114 77 7 23 rlineto
          0 -33 34 -34 33 vhcurveto
          15 28 8 27 31 vvcurveto
          16 -2 18 -3 14 vhcurveto
          80 64 -64 105 -23 4 rlineto
          0 -39 -40 -37 -39 vhcurveto
          8 -19 -20 5 -22 hhcurveto
          -22 -22 -5 -8 -20 hvcurveto
          -17 26 -18 25 -19 26 -115 -77 rcurveline
          -7 -23 rlineto
          0 35 -37 34 -35 vhcurveto
          -13 -28 -7 -28 -29 vvcurveto
          99 12 rmoveto
          45 38 38 42 36 27 -30 -37 -45 -39 -37 -42 -36 -26 29 37 vhcurveto
          endchar
        </CharString>
        <CharString name="d">
          37 callsubr
          hstemhm
          hintmask 10100000
          236 -36 callgsubr
          hintmask 01010000
          -51 callsubr
          -31 -249 -7 -45 -13 -13 -38 -6 rlinecurve
          -17 -79 rlineto
          0 75 6 46 vhcurveto
          hintmask 10100000
          -46 callsubr
          4 38 262 2 -6 hvcurveto
          16 3 4 5 10 hhcurveto
          endchar
        </CharString>
        <CharString name="d.sups">
          -166 340 -21 250 75 -75 247 9 35 callsubr
          318 441 rmoveto
          22 117 47 253 0 vvcurveto
          -11 14 -7 callsubr
          0 -97 -9 -66 vhcurveto
          -8 -59 rlineto
          18 hlineto
          18 6 -7 -21 -3 hvcurveto
          -14 -98 rlineto
          hintmask 11010000
          -46 13 rlineto
          -86 -91 -112 -105 -68 42 -40 69 hvcurveto
          28 20 24 29 35 59 rrcurveto
          7 hlineto
          -15 -61 0 -4 -7 vvcurveto
          -25 11 -11 25 43 31 23 85 78 vhcurveto
          -14 35 -17 3 rlineto
          -29 -34 4 3 -3 hhcurveto
          -169 -9 rmoveto
          -5 -4 15 25 46 12 53 9 25 26 -18 1 -2 hvcurveto
          -58 -16 -31 -64 -14 hhcurveto
          endchar
        </CharString>
        <CharString name="dagger">
          -49 -71 -21 397 124 164 44 callgsubr
          -19 -159 -147 38 callgsubr
          149 hlineto
          -49 -387 9 -9 122 7 47 390 38 callsubr
          -8 14 -150 -5 22 156 rlineto
          endchar
        </CharString>
        <CharString name="daggerdbl">
          -50 -71 -21 160 124 119 124 158 44 callgsubr
          -18 -153 -147 38 callgsubr
          149 hlineto
          -16 -120 -146 38 callgsubr
          148 hlineto
          -19 -150 9 -9 122 7 18 153 38 callsubr
          -8 14 -152 -5 15 121 38 callsubr
          -9 14 -149 -5 21 150 rlineto
          endchar
        </CharString>
        <CharString name="dcaron">
          37 callsubr
          267 -21 callsubr
          236 -36 callgsubr
          hintmask 01011000
          -51 callsubr
          -31 -249 -7 -45 -13 -13 -38 -6 rlinecurve
          -17 -79 rlineto
          0 75 6 46 vhcurveto
          hintmask 10101000
          -46 callsubr
          4 38 262 2 -6 hvcurveto
          16 3 4 5 10 hhcurveto
          192 345 -103 callgsubr
        </CharString>
        <CharString name="dcroat">
          -75 callsubr
        </CharString>
        <CharString name="degree">
          -264 389 75 120 75 hstem
          49 510 rmoveto
          -68 49 -53 67 79 70 67 82 68 -48 53 -68 -78 -71 -67 -82 vhcurveto
          75 6 rmoveto
          39 27 29 38 31 19 -22 -31 -39 -28 -28 -37 -31 -19 21 31 vhcurveto
          endchar
        </CharString>
        <CharString name="dieresis">
          559 167 hstem
          324 559 rmoveto
          57 39 40 59 43 -25 25 -45 -53 callgsubr
          47 hvcurveto
          -189 hmoveto
          58 39 40 59 43 -25 25 -45 -58 -39 -40 -60 -43 25 -24 45 hvcurveto
          endchar
        </CharString>
        <CharString name="dieresis.cap">
          685 167 hstem
          339 685 -103 callsubr
          endchar
        </CharString>
        <CharString name="divide">
          -66 -17 171 23 146 21 171 hstem
          480 329 rmoveto
          0 -138 -6 -78 -86 -135 -9 callsubr
          -34 -135 7 -13 rlineto
          4 callsubr
          -278 -331 rmoveto
          59 38 40 62 43 -24 26 -45 -60 -38 -40 -62 -43 24 -26 46 hvcurveto
          44 361 rmoveto
          59 39 40 62 43 -25 26 -44 -61 -38 -40 -62 -43 24 -26 46 hvcurveto
          endchar
        </CharString>
        <CharString name="dollar">
          -113 -143 -21 822 -20 hstem
          75 -164 rmoveto
          117 13 36 145 rlineto
          136 14 81 62 100 vvcurveto
          94 -91 29 -62 25 vhcurveto
          -32 14 -24 12 20 vvcurveto
          18 18 13 27 29 19 -15 -28 -1 -2 -15 0 vhcurveto
          10 -7 106 7 rlineto
          15 70 24 66 0 vvcurveto
          -9 19 rlineto
          0 -50 14 -68 6 vhcurveto
          34 138 -5 9 -119 -14 -34 -137 rlineto
          -122 -19 -75 -66 -95 vvcurveto
          -81 67 -33 58 -26 vhcurveto
          45 -18 39 -14 -25 vvcurveto
          -15 -18 -10 -28 -40 -20 32 38 4 vhcurveto
          -114 -8 rlineto
          -9 -47 -26 -80 0 vvcurveto
          9 -15 rlineto
          0 41 -20 63 -9 vhcurveto
          -37 -154 rlineto
          endchar
        </CharString>
        <CharString name="dotaccent">
          543 199 hstem
          227 543 -55 callsubr
          -53 -69 -46 -47 -72 -51 29 -29 54 hvcurveto
          endchar
        </CharString>
        <CharString name="dotaccent.cap">
          683 199 hstem
          243 683 -55 callsubr
          -53 -69 -46 -47 -72 -51 29 -29 54 hvcurveto
          endchar
        </CharString>
        <CharString name="dotbelowcomb">
          -334 -232 199 hstem
          50 -232 -55 callsubr
          -53 -69 -46 -47 -72 -51 29 -29 54 hvcurveto
          endchar
        </CharString>
        <CharString name="dotlessi">
          -47 callsubr
          23 26 callsubr
          23 callsubr
          hintmask 10100000
          -97 callgsubr
          hintmask 01010000
          -14 callsubr
          hintmask 10010000
          -84 callgsubr
          endchar
        </CharString>
        <CharString name="dotlessj">
          -268 -109 -21 560 74 6 0 callgsubr
          50 -69 callgsubr
          hintmask 11000000
          -38 callgsubr
          endchar
        </CharString>
        <CharString name="e">
          -60 callsubr
          10 -21 callsubr
          236 127 rmoveto
          16 7 38 2 16 vhcurveto
          1 15 23 3 23 hhcurveto
          35 58 -2 0 hvcurveto
          23 97 -9 13 rlineto
          0 -64 -4 -23 vhcurveto
          -64 hlineto
          15 77 rlineto
          15 3 4 4 18 hhcurveto
          50 16 -7 -26 -12 -7 -23 0 hvcurveto
          127 7 rlineto
          12 74 26 86 0 vvcurveto
          hintmask 10100100
          -10 14 rlineto
          hintmask 01110000
          -6 -45 -111 -4 -96 hhcurveto
          -78 -124 -20 callsubr
          -16 -67 10 -12 rlineto
          0 11 1 9 16 4 -8 -34 -4 vhcurveto
          -33 -248 -5 -47 -14 -15 -40 -7 rlinecurve
          -17 -78 rlineto
          hintmask 10110000
          0 95 8 88 133 127 -5 0 vhcurveto
          16 13 rlineto
          18 89 25 77 27 callgsubr
          -117 -8 rlineto
          -67 -17 -16 -13 -59 hhcurveto
          -22 -8 5 23 hvcurveto
          endchar
        </CharString>
        <CharString name="e.sups">
          -235 319 100 147 86 hstem
          310 574 rmoveto
          48 -39 30 -61 -110 -89 -92 -115 -76 47 -50 71 67 72 45 57 23 vhcurveto
          -39 42 -16 2 rlineto
          -33 -20 -18 -13 -23 hhcurveto
          -21 -12 7 17 -4 hvcurveto
          124 36 48 32 63 vvcurveto
          -126 -8 rmoveto
          9 7 -5 -8 -18 -22 -19 -38 -15 hvcurveto
          44 6 14 21 24 hhcurveto
          endchar
        </CharString>
        <CharString name="eacute">
          -60 callsubr
          227 -20 -99 callsubr
          hintmask 10110100
          0 95 8 88 133 127 -5 0 vhcurveto
          16 13 rlineto
          18 89 25 77 27 callgsubr
          -117 -8 rlineto
          -67 -17 -16 -13 -59 hhcurveto
          -22 -8 5 23 hvcurveto
          214 491 -106 callsubr
          endchar
        </CharString>
        <CharString name="ebreve">
          -60 callsubr
          37 30 callgsubr
          hintmask 01101110
          236 127 rmoveto
          16 7 38 2 16 vhcurveto
          1 15 23 3 23 hhcurveto
          35 58 -2 0 hvcurveto
          23 97 -9 13 rlineto
          0 -64 -4 -23 vhcurveto
          -64 hlineto
          15 77 rlineto
          15 3 4 4 18 hhcurveto
          50 16 -7 -26 -12 -7 -23 0 hvcurveto
          127 7 rlineto
          12 74 26 86 -6 callsubr
          14 rlineto
          -6 -45 -111 -4 -96 hhcurveto
          -78 -124 -20 callsubr
          -16 -67 10 -12 rlineto
          0 11 1 9 16 4 -8 -34 -4 vhcurveto
          -33 -248 -5 -47 -14 -15 -40 -7 rlinecurve
          -17 -78 rlineto
          hintmask 10110110
          0 95 8 88 133 127 -5 0 vhcurveto
          16 13 rlineto
          18 89 25 77 27 callgsubr
          -117 -8 rlineto
          -67 -17 -16 -13 -59 hhcurveto
          -22 -8 5 23 hvcurveto
          84 549 -91 callgsubr
          endchar
        </CharString>
        <CharString name="ecaron">
          -60 callsubr
          247 -20 -99 callsubr
          hintmask 10110100
          0 95 8 88 133 127 -5 0 vhcurveto
          16 13 rlineto
          18 89 25 77 27 callgsubr
          -117 -8 rlineto
          -67 -17 -16 -13 -59 hhcurveto
          -22 -8 5 23 hvcurveto
          248 617 -103 callgsubr
        </CharString>
        <CharString name="ecircumflex">
          -60 callsubr
          hstemhm
          hintmask 01101000
          236 127 rmoveto
          16 7 38 2 16 vhcurveto
          1 15 23 3 23 hhcurveto
          35 58 -2 0 hvcurveto
          23 97 -9 13 rlineto
          0 -64 -4 -23 vhcurveto
          -64 hlineto
          15 77 rlineto
          15 3 4 4 18 hhcurveto
          50 16 -7 -26 -12 -7 -23 0 hvcurveto
          127 7 rlineto
          12 74 26 86 -6 callsubr
          14 rlineto
          -6 -45 -111 -4 -96 hhcurveto
          -78 -124 -20 callsubr
          -16 -67 10 -12 rlineto
          0 11 1 9 16 4 -8 -34 -4 vhcurveto
          -33 -248 -5 -47 -14 -15 -40 -7 rlinecurve
          -17 -78 rlineto
          hintmask 10110000
          0 95 8 88 133 127 -5 0 vhcurveto
          16 13 rlineto
          18 89 25 77 27 callgsubr
          -117 -8 rlineto
          -67 -17 -16 -13 -59 hhcurveto
          -22 -8 5 23 hvcurveto
          -73 437 -102 callgsubr
          endchar
        </CharString>
        <CharString name="edieresis">
          -60 callsubr
          47 167 -99 callsubr
          hintmask 10110100
          0 95 8 88 133 127 -5 0 vhcurveto
          16 13 rlineto
          18 89 25 77 27 callgsubr
          -117 -8 rlineto
          -67 -17 -16 -13 -59 hhcurveto
          -22 -8 5 23 hvcurveto
          167 424 -103 callsubr
          endchar
        </CharString>
        <CharString name="edotaccent">
          -60 callsubr
          35 199 -99 callsubr
          hintmask 10110100
          0 95 8 88 133 127 -5 0 vhcurveto
          16 13 rlineto
          18 89 25 77 27 callgsubr
          -117 -8 rlineto
          -67 -17 -16 -13 -59 hhcurveto
          -22 -8 5 23 hvcurveto
          73 412 -55 callsubr
          -53 -69 -46 -47 -72 -51 29 -29 54 hvcurveto
          endchar
        </CharString>
        <CharString name="egrave">
          -60 callsubr
          227 -20 -99 callsubr
          hintmask 10110100
          0 95 8 88 133 127 -5 0 vhcurveto
          16 13 rlineto
          18 89 25 77 27 callgsubr
          -117 -8 rlineto
          -67 -17 -16 -13 -59 hhcurveto
          -22 -8 5 23 hvcurveto
          -72 475 -96 callsubr
          endchar
        </CharString>
        <CharString name="eight">
          -27 callgsubr
          -72 59 -98 -131 -111 -50 callgsubr
        </CharString>
        <CharString name="eight.dnom">
          -222 -8 34 callsubr
          85 -91 callsubr
        </CharString>
        <CharString name="eight.lf">
          -27 callgsubr
          -75 59 -98 -131 -108 -50 callgsubr
        </CharString>
        <CharString name="eight.numr">
          -222 246 34 callsubr
          339 -91 callsubr
        </CharString>
        <CharString name="eight.sinf">
          -222 -128 34 callsubr
          -35 -91 callsubr
        </CharString>
        <CharString name="eight.sups">
          -222 319 34 callsubr
          412 -91 callsubr
        </CharString>
        <CharString name="eight.tf">
          -97 -12 108 387 116 hstem
          3 124 rmoveto
          -79 74 -57 108 136 111 93 121 61 -31 38 -36 26 vhcurveto
          45 23 48 42 72 vvcurveto
          76 -75 59 -98 -131 -109 -85 -113 -61 29 -43 36 -31 vhcurveto
          -50 -21 -57 -42 -79 vvcurveto
          203 -28 rmoveto
          -31 -21 24 35 25 9 22 15 20 hvcurveto
          44 -26 39 -20 -29 vvcurveto
          -31 -20 -20 -35 vhcurveto
          9 340 rmoveto
          27 20 20 29 27 15 -18 -29 -26 -10 -21 -13 -19 vhcurveto
          -38 19 -30 17 30 vvcurveto
          endchar
        </CharString>
        <CharString name="eight.tosf">
          -107 -12 108 387 116 hstem
          1 124 rmoveto
          -79 72 -57 108 134 109 93 121 61 -29 38 -35 26 vhcurveto
          44 23 47 42 72 vvcurveto
          76 -71 59 -97 -130 -110 -85 -113 -61 27 -43 36 -31 vhcurveto
          -50 -21 -55 -42 -79 vvcurveto
          200 -28 rmoveto
          -30 -19 24 35 25 7 22 14 20 hvcurveto
          43 -26 37 -20 -29 vvcurveto
          -31 -18 -20 -34 vhcurveto
          12 340 rmoveto
          27 18 20 28 26 15 -18 -29 -26 -9 -21 -13 -19 vhcurveto
          -37 19 -28 17 30 vvcurveto
          endchar
        </CharString>
        <CharString name="ellipsis">
          122 -9 199 hstem
          310 -9 rmoveto
          -77 callsubr
          224 hmoveto
          -77 callsubr
          -448 hmoveto
          -77 callsubr
          endchar
        </CharString>
        <CharString name="emacron">
          -60 callsubr
          47 122 6 -20 -99 callsubr
          hintmask 10110010
          0 95 8 88 133 127 -5 0 vhcurveto
          16 13 rlineto
          18 89 25 77 27 callgsubr
          -117 -8 rlineto
          -67 -17 -16 -13 -59 hhcurveto
          -22 -8 5 23 hvcurveto
          236 552 rmoveto
          hintmask 10110100
          -87 callgsubr
          endchar
        </CharString>
        <CharString name="emdash">
          244 198 124 -102 -21 125 -21 callgsubr
          814 324 rmoveto
          hintmask 10000000
          -3 -31 -255 1 -127 hhcurveto
          -392 hlineto
          -23 -105 8 -19 rlineto
          hintmask 01100000
          279 255 1 267 hhcurveto
          27 106 rlineto
          endchar
        </CharString>
        <CharString name="endash">
          -123 198 124 -102 -21 125 -21 callgsubr
          448 324 rmoveto
          hintmask 10000000
          -2 -66 -71 0 -66 hhcurveto
          -236 hlineto
          -23 -105 8 -19 rlineto
          hintmask 01100000
          149 142 1 144 hhcurveto
          26 106 rlineto
          endchar
        </CharString>
        <CharString name="eng">
          53 -115 -21 136 70 434 -20 24 41 callgsubr
          182 504 rmoveto
          hintmask 11010000
          -48 -78 4 0 hvcurveto
          -13 -65 10 -12 48 -5 9 -9 -4 -35 rlinecurve
          -43 -268 -4 -29 -15 -15 -32 -4 rlinecurve
          -18 -72 rlineto
          0 71 6 31 70 85 -17 callsubr
          17 68 -6 7 rlineto
          0 -18 -2 -9 -24 -7 10 30 3 vhcurveto
          14 123 rlineto
          13 hlineto
          0 54 -100 65 -134 vhcurveto
          -16 -35 -29 -27 -40 -20 -3 -13 rcurveline
          33 -40 145 34 70 61 18 107 rlinecurve
          47 319 5 32 13 12 35 5 rlinecurve
          12 73 rlineto
          hintmask 11100000
          0 -74 -2 -38 -1 vhcurveto
          -24 -118 -20 callsubr
          -11 -66 3 -8 rlineto
          24 hlineto
          20 6 -7 -26 -3 hvcurveto
          -14 -130 rlineto
          -12 hlineto
          0 -62 115 -53 122 vhcurveto
          0 -59 -3 -46 vhcurveto
          endchar
        </CharString>
        <CharString name="eogonek">
          -55 -242 87 155 99 -82 -21 205 104 31 168 -103 103 10 -20 hstemhm
          hintmask 10111000
          438 -47 callgsubr
          24 10 21 60 72 vhcurveto
          9 8 -1 0 hvcurveto
          16 13 rlineto
          18 89 25 77 27 callgsubr
          -117 -8 rlineto
          hintmask 11010100
          -67 -17 -16 -13 -59 hhcurveto
          -22 -8 5 23 16 7 38 2 16 hvcurveto
          1 15 23 3 23 hhcurveto
          35 58 -2 0 hvcurveto
          23 97 -9 13 rlineto
          0 -64 -4 -23 vhcurveto
          -64 hlineto
          15 77 rlineto
          15 3 4 4 18 hhcurveto
          50 16 -7 -26 -12 -7 -23 0 hvcurveto
          127 7 rlineto
          12 74 26 86 0 vvcurveto
          hintmask 11010010
          -10 14 rlineto
          hintmask 11011000
          -6 -45 -111 -4 -96 hhcurveto
          -78 -124 -20 callsubr
          -16 -67 10 -12 rlineto
          0 11 1 9 16 4 -8 -34 -4 vhcurveto
          -33 -248 -5 -47 -14 -15 -40 -7 rlinecurve
          -17 -78 rlineto
          0 95 8 88 62 58 -1 -1 47 vhcurveto
          -84 -80 -18 -37 -43 -44 callsubr
          endchar
        </CharString>
        <CharString name="equal">
          -66 77 146 -126 -21 201 146 6 0 callgsubr
          468 229 rmoveto
          0 -138 -6 -78 -86 -135 -9 callsubr
          -35 -135 rlineto
          hintmask 01100000
          8 -13 rlineto
          hintmask 10010000
          4 callsubr
          19 215 rmoveto
          hintmask 10100000
          0 -138 -6 -77 -87 -135 -9 callsubr
          40 callgsubr
          132 1 87 vhcurveto
          221 1 29 136 rlineto
          endchar
        </CharString>
        <CharString name="estimated">
          240 9 -21 663 -20 hstem
          180 311 rmoveto
          597 8 hlineto
          184 -165 148 -203 -203 -166 -148 -184 -183 166 -148 203 118 107 51 78 67 vhcurveto
          -54 hlineto
          -67 -57 -85 -42 -95 hhcurveto
          -89 -81 37 60 -56 hvcurveto
          -5 6 -4 7 8 vvcurveto
          181 vlineto
          3 2 1 3 vhcurveto
          463 205 rmoveto
          -182 vlineto
          -3 -2 -2 -3 vhcurveto
          -458 hlineto
          -3 -2 2 3 hvcurveto
          178 vlineto
          9 4 8 6 6 vhcurveto
          59 57 79 37 89 hhcurveto
          87 79 -36 -57 57 hvcurveto
          6 -6 4 -7 -9 vvcurveto
          endchar
        </CharString>
        <CharString name="eth">
          -75 callsubr
        </CharString>
        <CharString name="exclam">
          -282 -9 199 527 -20 hstem
          99 -9 rmoveto
          68 46 47 71 51 -30 30 -52 -69 -46 -47 -72 -51 29 -29 54 hvcurveto
          -21 274 rmoveto
          18 -20 106 16 125 430 -22 26 -191 -26 -21 -24 rlineto
          endchar
        </CharString>
        <CharString name="exclamdown">
          -282 -221 -21 527 199 hstem
          177 484 12 callsubr
          21 -274 rmoveto
          -18 20 -106 -16 -125 -430 22 -26 191 26 21 24 rlineto
          endchar
        </CharString>
        <CharString name="f">
          -90 0 99 -86 -21 196 103 46 167 -103 103 10 -21 callsubr
          244 184 rmoveto
          1 14 23 3 23 hhcurveto
          36 56 -2 0 hvcurveto
          23 97 -10 12 rlineto
          0 -62 -4 -23 vhcurveto
          -64 1 17 90 rlineto
          15 3 4 4 18 hhcurveto
          34 12 -9 -24 -12 -5 -22 0 hvcurveto
          126 7 rlineto
          12 71 21 88 0 vvcurveto
          hintmask 10100100
          -11 14 rlineto
          hintmask 01110000
          -6 -40 -99 -4 -88 hhcurveto
          -78 -124 -20 callsubr
          -16 -67 10 -12 rlineto
          0 11 1 9 16 4 -8 -34 -4 vhcurveto
          -33 -248 -6 -47 -13 -16 -40 -5 rlinecurve
          -17 -79 rlineto
          hintmask 10110000
          0 95 8 91 37 96 -2 0 vhcurveto
          22 92 -13 16 rlineto
          0 -19 -7 -26 -27 -5 9 37 4 vhcurveto
          endchar
        </CharString>
        <CharString name="f.sups">
          -306 165 83 330 59 103 84 hstem
          6 579 rmoveto
          52 hlineto
          8 -7 -16 -244 -1 -4 1 -13 1 -8 rlinecurve
          -37 1 -19 -18 -26 hhcurveto
          -34 -12 13 40 -4 hvcurveto
          -15 hlineto
          -16 -20 -26 -46 -9 -27 rrcurveto
          -24 10 41 -19 46 hhcurveto
          72 94 88 76 8 hvcurveto
          26 247 5 3 83 -1 9 54 -5 5 rlineto
          -85 hlineto
          6 50 rlineto
          40 5 11 13 29 hhcurveto
          16 15 -7 -22 29 hvcurveto
          14 2 43 94 -3 7 rlineto
          6 -19 -31 4 -28 hhcurveto
          -91 -109 -80 -76 -8 hvcurveto
          -3 -30 -61 -9 -6 -47 rlineto
          endchar
        </CharString>
        <CharString name="fi">
          223 -76 callgsubr
          506 246 -59 callsubr
          0 -114 -3 -34 vhcurveto
          -136 hlineto
          -14 -63 rlineto
          hintmask 10100100
          2 -4 2 -4 3 -4 rrcurveto
          18 hlineto
          22 6 -7 -32 -4 hvcurveto
          -33 -258 -4 -43 -10 -11 -44 -9 rlinecurve
          -14 -72 rlineto
          0 88 3 53 34 105 -3 0 vhcurveto
          5 callsubr
        </CharString>
        <CharString name="five">
          -147 -95 7 callsubr
          383 150 rmoveto
          80 -60 42 -148 24 vhcurveto
          14 52 rlineto
          96 74 29 callgsubr
          -79 -5 -15 -30 -15 -9 -36 -1 rlinecurve
          -194 -6 -8 43 callgsubr
          8 -11 rlineto
          110 -12 41 -17 -35 vvcurveto
          -35 -47 -26 -65 -36 -29 6 12 -22 vhcurveto
          -25 -23 rlineto
          -99 -7 22 -35 66 hhcurveto
          173 170 121 124 hvcurveto
          endchar
        </CharString>
        <CharString name="five.dnom">
          -243 -8 7 callgsubr
          146 -88 callsubr
        </CharString>
        <CharString name="five.lf">
          -133 -12 7 callsubr
          398 219 rmoveto
          86 -58 47 -145 27 vhcurveto
          10 52 rlineto
          97 84 29 callgsubr
          -80 -5 -13 -30 -16 -9 -37 -1 rlinecurve
          -203 18 callgsubr
          106 -12 43 -17 -33 vvcurveto
          -36 -39 -25 -61 -36 -29 6 12 -22 vhcurveto
          -26 -23 rlineto
          -99 -5 21 -35 66 hhcurveto
          162 166 109 122 hvcurveto
          endchar
        </CharString>
        <CharString name="five.numr">
          -243 246 7 callgsubr
          400 -88 callsubr
        </CharString>
        <CharString name="five.sinf">
          -243 -128 7 callgsubr
          26 -88 callsubr
        </CharString>
        <CharString name="five.sups">
          -243 319 7 callgsubr
          473 -88 callsubr
        </CharString>
        <CharString name="five.tf">
          -97 -12 7 callsubr
          421 218 rmoveto
          87 -62 47 -154 27 vhcurveto
          12 52 rlineto
          103 90 29 callgsubr
          -80 -5 -14 -30 -16 -9 -39 -1 rlinecurve
          -213 18 callgsubr
          114 -12 47 -17 -33 vvcurveto
          -36 -44 -25 -68 -37 -30 6 12 -23 vhcurveto
          -26 -23 rlineto
          -99 -5 22 -35 68 hhcurveto
          167 173 109 121 hvcurveto
          endchar
        </CharString>
        <CharString name="five.tosf">
          -107 -95 7 callsubr
          408 149 rmoveto
          81 -66 42 -155 24 vhcurveto
          15 52 rlineto
          103 80 -8 0 hvcurveto
          22 19 51 179 -80 -5 -15 -30 -16 -9 -38 -1 rlinecurve
          -204 -6 -9 43 callgsubr
          9 -11 rlineto
          119 -12 44 -17 -35 vvcurveto
          -35 -53 -26 -72 -38 -30 6 12 -24 vhcurveto
          -24 -23 rlineto
          -99 -7 24 -35 67 hhcurveto
          178 179 121 123 hvcurveto
          endchar
        </CharString>
        <CharString name="fl">
          381 -76 callgsubr
          393 -145 rmoveto
          -90 callgsubr
          -35 callgsubr
          rlineto
          hintmask 01100100
          6 -12 rlineto
          20 hlineto
          23 5 -7 -32 -4 hvcurveto
          -32 -251 -14 callgsubr
          -16 -78 rlineto
          hintmask 10110000
          22 callsubr
          endchar
        </CharString>
        <CharString name="florin">
          -114 -164 106 350 77 121 108 hstem
          140 2 callsubr
          135 84 135 128 7 vhcurveto
          9 193 rlineto
          114 hlineto
          10 69 -5 8 rlineto
          -114 hlineto
          4 43 rlineto
          56 4 15 22 39 8 callsubr
          -132 -137 -115 -99 vhcurveto
          -14 vlineto
          -83 -13 -8 -59 3 -6 rlineto
          65 18 -9 -32 2 hvcurveto
          endchar
        </CharString>
        <CharString name="foundryicon">
          226 -59 152 52 157 42 180 -87 87 hstemhm
          hintmask 11100000
          328 344 rmoveto
          45 33 -31 -42 hvcurveto
          -178 -74 136 vlineto
          38 -14 18 -29 -18 -6 -3 -9 vhcurveto
          -180 -74 vlineto
          hintmask 11010000
          344 74 -116 vlineto
          -6 2 -3 4 3 3 2 2 3 vhcurveto
          hintmask 11100000
          155 4 rmoveto
          89 56 rlineto
          21 -28 hlineto
          -6 4 -4 6 vhcurveto
          58 -36 -58 hlineto
          -7 -3 -4 -6 hvcurveto
          -90 vlineto
          -40 12 -17 29 8 9 1 3 9 vhcurveto
          -25 vlineto
          -63 -37 rlineto
          -45 -33 31 42 hvcurveto
          132 vlineto
          7 -3 3 -7 vhcurveto
          -26 hlineto
          -255 -361 rmoveto
          423 hlineto
          52 28 28 52 hvcurveto
          423 vlineto
          52 -28 28 -52 vhcurveto
          -423 hlineto
          -52 -28 -28 -52 hvcurveto
          -423 vlineto
          -52 28 -28 52 vhcurveto
          endchar
        </CharString>
        <CharString name="four">
          -79 -74 -21 147 121 340 -20 22 35 callsubr
          -22 55 rmoveto
          63 83 -1 -2 77 32 callgsubr
          12 11 rlineto
          0 3 56 6 63 vhcurveto
          39 -1 26 -1 0 vvcurveto
          24 113 -9 15 rlineto
          -66 hlineto
          41 330 -140 12 rlineto
          hintmask 11100000
          -2 -5 -2 -2 hhcurveto
          -289 -358 rlineto
          231 145 rmoveto
          11 hlineto
          -16 -127 rlineto
          -90 hlineto
          endchar
        </CharString>
        <CharString name="four.dnom">
          -200 -4 -5 callsubr
          85 -73 callgsubr
          rlineto
          hintmask 10010000
          -72 callsubr
          endchar
        </CharString>
        <CharString name="four.lf">
          -75 42 callgsubr
          -15 133 rmoveto
          219 5 callgsubr
          64 -2 25 113 -9 15 rlineto
          -66 hlineto
          41 335 -140 12 -9 -2 -285 -363 rlineto
          227 150 rmoveto
          11 hlineto
          -16 -132 rlineto
          -88 hlineto
          endchar
        </CharString>
        <CharString name="four.numr">
          -200 250 173 -156 -21 92 85 81 -20 171 -20 hstemhm
          hintmask 01111000
          -8 339 -73 callgsubr
          rlineto
          hintmask 10011000
          -72 callsubr
          endchar
        </CharString>
        <CharString name="four.sinf">
          -200 -124 -5 callsubr
          -35 -73 callgsubr
          rlineto
          hintmask 10010000
          -72 callsubr
          endchar
        </CharString>
        <CharString name="four.sups">
          -200 323 -5 callsubr
          412 -73 callgsubr
          rlineto
          hintmask 10010000
          -72 callsubr
          endchar
        </CharString>
        <CharString name="four.tf">
          -97 42 callgsubr
          -19 133 rmoveto
          211 5 callgsubr
          60 -2 25 113 -8 15 rlineto
          -63 hlineto
          41 335 -141 12 -9 -2 -276 -363 rlineto
          219 150 rmoveto
          11 hlineto
          -16 -132 rlineto
          -81 hlineto
          endchar
        </CharString>
        <CharString name="four.tosf">
          -107 -74 -21 147 121 340 -20 22 35 callsubr
          -27 55 rmoveto
          60 79 -1 -2 74 32 callgsubr
          11 11 rlineto
          0 4 56 5 63 vhcurveto
          37 -1 24 -1 0 vvcurveto
          24 113 -9 15 rlineto
          -61 hlineto
          41 330 -142 12 rlineto
          hintmask 11100000
          -2 -5 -2 -2 hhcurveto
          -276 -358 -4 -33 -6 -34 -4 -33 rlinecurve
          234 245 rmoveto
          10 hlineto
          -15 -127 rlineto
          -81 hlineto
          endchar
        </CharString>
        <CharString name="fraction">
          -370 -70 -21 770 -20 hstem
          320 647 -29 callsubr
        </CharString>
        <CharString name="franc">
          -72 -1 190 -175 -21 28 -21 125 64 27 98 33 157 -103 103 9 -20 hstemhm
          hintmask 01011010
          250 125 rmoveto
          107 hlineto
          11 60 -5 6 rlineto
          2 -53 -2 -52 hhcurveto
          4 25 59 4 rlineto
          35 60 -2 0 hvcurveto
          19 90 -9 12 rlineto
          0 -61 -4 -24 vhcurveto
          -21 -21 1 -21 hhcurveto
          11 67 rlineto
          15 3 6 4 18 hhcurveto
          35 -1 14 -7 -18 vvcurveto
          -9 -6 -22 0 vhcurveto
          126 7 rlineto
          11 67 21 82 0 vvcurveto
          hintmask 10001001
          -11 13 rlineto
          hintmask 10001100
          -5 -48 -104 -4 -80 hhcurveto
          -56 hlineto
          -70 1 -73 1 0 vvcurveto
          -16 -66 10 -12 rlineto
          0 11 1 9 16 3 -8 -34 -4 vhcurveto
          -25 -198 rlineto
          -56 hlineto
          -15 -59 rlineto
          hintmask 01011100
          5 -5 rlineto
          57 hlineto
          -9 -38 -12 -13 -35 -4 -17 -77 rcurveline
          hintmask 10001100
          0 43 4 61 2 vhcurveto
          hintmask 00111100
          1 20 22 0 23 hhcurveto
          37 109 -2 0 hvcurveto
          21 82 -13 16 rlineto
          0 -17 -7 -25 -26 -7 7 29 3 vhcurveto
          endchar
        </CharString>
        <CharString name="g">
          -15 callgsubr
          -93 callgsubr
          endchar
        </CharString>
        <CharString name="g.sups">
          -186 165 90 314 76 8 -11 callgsubr
          153 428 rmoveto
          -6 -4 15 26 47 13 53 10 25 27 -18 2 -4 hvcurveto
          -56 -13 -34 -69 -14 hhcurveto
          -32 -108 rmoveto
          20 13 17 21 60 90 7 -2 rcurveline
          -13 -114 rlineto
          -48 -6 -28 -25 -46 hhcurveto
          -35 -26 11 16 3 28 23 22 12 hvcurveto
          203 34 rmoveto
          6 45 5 103 3 17 3 30 12 53 9 23 -11 21 rcurveline
          hintmask 10100000
          -100 7 -15 -9 -3 -13 rlineto
          hintmask 11000000
          -47 14 rlineto
          -86 -92 -115 -106 -48 20 -35 34 -14 hvcurveto
          -5 vlineto
          -33 -13 -51 -23 -22 -11 -3 -10 rcurveline
          -7 -60 57 -41 88 1 84 1 141 114 8 74 rrcurveto
          endchar
        </CharString>
        <CharString name="gbreve">
          -15 callgsubr
          38 45 callgsubr
          -93 callgsubr
          88 694 -91 callgsubr
          endchar
        </CharString>
        <CharString name="gcircumflex">
          -15 callgsubr
          277 -20 -93 callgsubr
          -54 580 -95 callgsubr
        </CharString>
        <CharString name="gcommaaccent">
          -32 -324 -21 311 224 -198 121 0 77 206 117 hstemhm
          hintmask 10101000
          236 -8 rmoveto
          136 66 23 0 hvcurveto
          12 14 rlineto
          30 vlineto
          14 9 69 8 37 vhcurveto
          5 27 10 15 25 15 -2 50 rcurveline
          -2 -59 -2 -33 -40 -88 -1 0 vhcurveto
          -20 -79 7 -13 rlineto
          hintmask 10011000
          0 9 1 13 17 4 -7 -23 -3 vhcurveto
          -5 -41 rlineto
          0 -15 -6 -23 -34 -11 22 71 141 16 49 53 31 18 -12 -26 -13 -10 -37 0 vhcurveto
          141 8 rlineto
          19 98 27 62 2 callgsubr
          17 rlineto
          0 -119 20 -70 -202 -103 -104 -207 vhcurveto
          hintmask 10101000
          -136 77 -74 140 vhcurveto
          -91 -84 rmoveto
          17 -19 12 -30 -27 vvcurveto
          -36 -25 -42 -39 -28 vhcurveto
          -25 vlineto
          58 -46 rlineto
          103 59 64 81 70 vvcurveto
          hintmask 11001000
          61 -34 40 -51 -28 -38 -16 -28 -36 vhcurveto
          endchar
        </CharString>
        <CharString name="gdotaccent">
          -15 callgsubr
          26 199 -93 callgsubr
          84 547 -55 callsubr
          -53 -69 -46 -47 -72 -51 29 -29 54 hvcurveto
          endchar
        </CharString>
        <CharString name="germandbls">
          367 -8 callsubr
          hstem
          169 -9 rmoveto
          -104 callsubr
          462 hmoveto
          -104 callsubr
          endchar
        </CharString>
        <CharString name="grave">
          546 -21 235 -20 hstem
          31 642 rmoveto
          0 108 -56 103 -61 vhcurveto
          22 7 41 61 rlineto
          -94 81 -93 86 0 vvcurveto
          -17 hlineto
          -72 -101 rlineto
          endchar
        </CharString>
        <CharString name="grave.cap">
          712 -21 184 -20 hstem
          6 746 -96 callsubr
          endchar
        </CharString>
        <CharString name="greater">
          -143 63 -21 457 -20 hstem
          397 357 rmoveto
          0 -103 50 -60 29 vhcurveto
          -65 34 -58 29 0 vvcurveto
          -67 -92 6 -21 rlineto
          0 67 -32 64 -32 vhcurveto
          90 -49 -1 -8 -89 -39 rlineto
          -74 -32 -94 -36 0 vvcurveto
          22 -105 16 -11 rlineto
          0 75 37 78 33 vhcurveto
          181 77 18 153 rlineto
          endchar
        </CharString>
        <CharString name="greaterequal">
          -103 -124 124 -123 -20 642 0 callgsubr
          417 357 rmoveto
          -49 22 -41 22 -44 22 -27 13 rcurveline
          -66 34 -60 29 0 vvcurveto
          -67 -92 7 -21 rlineto
          0 66 -32 65 -32 vhcurveto
          89 -49 -1 -8 -88 -39 rlineto
          -75 -32 -93 -36 0 vvcurveto
          21 -105 17 -11 rlineto
          0 74 37 78 33 vhcurveto
          181 77 19 153 rlineto
          -199 -342 6 callgsubr
          -8 18 -7 callsubr
          -1 -5 -51 0 -97 hhcurveto
          153 2 rmoveto
          -1 vlineto
          endchar
        </CharString>
        <CharString name="guillemotleft">
          -93 33 callsubr
          407 422 -53 callsubr
          -260 35 -53 callsubr
          endchar
        </CharString>
        <CharString name="guillemotright">
          -93 33 callsubr
          305 42 -52 callgsubr
          -144 -35 -52 callgsubr
          endchar
        </CharString>
        <CharString name="guilsinglleft">
          -295 33 callsubr
          182 422 -53 callsubr
          endchar
        </CharString>
        <CharString name="guilsinglright">
          -295 33 callsubr
          79 42 -52 callgsubr
          endchar
        </CharString>
        <CharString name="h">
          51 0 74 127 105 123 75 3 35 callsubr
          24 callgsubr
          hintmask 11100000
          -30 callgsubr
          hintmask 11010000
          15 76 rlineto
          hintmask 11100000
          0 -124 -3 -51 vhcurveto
          -106 hlineto
          -14 -63 10 callgsubr
          -33 -263 -83 callsubr
          29 31 203 11 49 vhcurveto
          endchar
        </CharString>
        <CharString name="h.sups">
          -172 342 -21 22 -21 332 -20 191 -20 hstemhm
          hintmask 01110000
          314 -4 callsubr
          -22 -15 -25 -38 -26 -62 3 callgsubr
          18 6 -7 -22 -3 hvcurveto
          -10 -58 -53 -331 0 vvcurveto
          15 -17 rlineto
          57 49 17 21 3 hvcurveto
          4 37 rlineto
          81 28 30 58 14 hhcurveto
          7 4 -5 -13 hvcurveto
          -22 -41 -106 -26 vvcurveto
          hintmask 10110000
          -30 15 -13 34 42 34 25 84 75 24 callsubr
        </CharString>
        <CharString name="hbar">
          51 0 74 127 105 32 54 37 75 3 -20 hstemhm
          hintmask 11101000
          353 392 rmoveto
          -77 hlineto
          1 4 4 23 8 6 33 6 rlinecurve
          15 76 rlineto
          hintmask 11110000
          0 -124 -3 -51 vhcurveto
          -106 35 callgsubr
          20 hlineto
          21 7 -7 -30 -4 hvcurveto
          -44 -32 1 0 hvcurveto
          -6 -48 9 -8 rlineto
          66 hlineto
          -26 -210 -83 callsubr
          22 18 127 14 79 vhcurveto
          79 1 4 45 -13 12 rlineto
          0 -24 -1 -35 -1 vhcurveto
          6 27 8 6 38 6 rrcurveto
          hintmask 11101000
          15 74 rlineto
          hintmask 11110000
          0 -79 -2 -47 -1 vhcurveto
          -164 35 callgsubr
          21 hlineto
          22 4 -8 -29 -2 hvcurveto
          -55 -54 rmoveto
          48 hlineto
          -4 -31 rlineto
          -1 -10 -13 -1 -36 hhcurveto
          -55 3 5 30 rlineto
          endchar
        </CharString>
        <CharString name="hcircumflex">
          51 0 74 127 105 123 75 312 -20 hstem
          24 callgsubr
          -30 callgsubr
          15 76 rlineto
          0 -124 -3 -51 vhcurveto
          -106 hlineto
          -14 -63 10 callgsubr
          -33 -263 -83 callsubr
          29 31 203 11 49 vhcurveto
          -361 207 -95 callgsubr
        </CharString>
        <CharString name="hungarumlaut">
          549 -21 226 -20 hstem
          198 691 4 callgsubr
          160 14 4 callgsubr
          endchar
        </CharString>
        <CharString name="hungarumlaut.cap">
          695 -21 206 -20 hstem
          220 799 -84 callsubr
        </CharString>
        <CharString name="hyphen">
          -243 197 -21 152 -20 hstem
          282 328 rmoveto
          0 -19 -4 -64 -7 vhcurveto
          -149 -17 -23 -106 10 -18 228 26 26 108 rlineto
          endchar
        </CharString>
        <CharString name="i">
          -47 callsubr
          23 26 callsubr
          23 callsubr
          hintmask 10100000
          -97 callgsubr
          hintmask 01010000
          -14 callsubr
          hintmask 10010000
          -84 callgsubr
          endchar
        </CharString>
        <CharString name="i.sups">
          -324 340 -21 370 139 hstem
          156 441 rmoveto
          14 98 24 93 0 vvcurveto
          -12 14 rlineto
          0 -95 -9 -64 vhcurveto
          -9 -59 rlineto
          19 hlineto
          15 7 -6 -15 hvcurveto
          -34 vlineto
          -188 -14 9 callgsubr
          -31 250 rmoveto
          50 33 32 53 32 callsubr
          hvcurveto
          endchar
        </CharString>
        <CharString name="iacute">
          -47 callsubr
          247 -20 -9 callgsubr
          23 callsubr
          -97 callgsubr
          hintmask 01110000
          -14 callsubr
          hintmask 10110000
          -84 callgsubr
          72 227 -106 callsubr
          endchar
        </CharString>
        <CharString name="ibreve">
          -47 callsubr
          57 30 callgsubr
          hintmask 10111000
          23 callsubr
          -97 callgsubr
          hintmask 01111000
          -14 callsubr
          hintmask 10111000
          -84 callgsubr
          -70 285 -91 callgsubr
          endchar
        </CharString>
        <CharString name="icircumflex">
          -47 callsubr
          hstemhm
          hintmask 10100000
          23 callsubr
          -97 callgsubr
          hintmask 01100000
          -14 callsubr
          hintmask 10100000
          -84 callgsubr
          -231 173 -102 callgsubr
          endchar
        </CharString>
        <CharString name="idieresis">
          -47 callsubr
          67 167 -9 callgsubr
          23 callsubr
          -97 callgsubr
          hintmask 01110000
          -14 callsubr
          hintmask 10110000
          -84 callgsubr
          13 160 -103 callsubr
          endchar
        </CharString>
        <CharString name="idotaccent">
          -47 callsubr
          55 199 -9 callgsubr
          23 callsubr
          -97 callgsubr
          hintmask 01110000
          -14 callsubr
          hintmask 10110000
          -84 callgsubr
          -85 148 -55 callsubr
          -53 -69 -46 -47 -72 -51 29 -29 54 hvcurveto
          endchar
        </CharString>
        <CharString name="igrave">
          -47 callsubr
          247 -20 -9 callgsubr
          23 callsubr
          -97 callgsubr
          hintmask 01110000
          -14 callsubr
          hintmask 10110000
          -84 callgsubr
          -223 211 -96 callsubr
          endchar
        </CharString>
        <CharString name="ij">
          31 -109 -21 151 -21 430 74 6 35 callsubr
          349 -69 callgsubr
          hintmask 11100000
          -38 callgsubr
          -107 1 -59 callsubr
          -97 callgsubr
          0 88 3 53 34 105 -3 0 vhcurveto
          5 callsubr
        </CharString>
        <CharString name="imacron">
          -47 callsubr
          67 17 callsubr
          hintmask 10110000
          23 callsubr
          -97 callgsubr
          hintmask 01110000
          -14 callsubr
          hintmask 10101000
          -84 callgsubr
          78 288 rmoveto
          hintmask 10110000
          -87 callgsubr
          endchar
        </CharString>
        <CharString name="infinity">
          -48 76 126 -111 -21 212 147 -125 125 -13 callsubr
          173 423 rmoveto
          -90 -79 -94 -115 -77 42 -61 60 54 32 33 34 22 hvcurveto
          hintmask 01100000
          -40 19 30 -33 61 hhcurveto
          100 85 94 122 83 -41 60 -62 -60 -34 -41 -36 -21 hvcurveto
          39 -24 -34 32 -60 hhcurveto
          hintmask 10100000
          -31 -221 rmoveto
          -24 -13 13 22 28 12 17 23 24 11 -29 -36 11 hvcurveto
          -8 -14 -14 -7 -16 hhcurveto
          hintmask 10010000
          226 102 rmoveto
          29 17 -17 -28 -31 -12 -18 -29 -24 -11 35 42 -16 hvcurveto
          9 13 16 8 17 hhcurveto
          endchar
        </CharString>
        <CharString name="integral">
          -115 -164 106 548 108 hstem
          115 2 callsubr
          118 101 117 146 7 vhcurveto
          17 313 rlineto
          56 4 16 22 38 8 callsubr
          -128 -141 -112 -102 vhcurveto
          endchar
        </CharString>
        <CharString name="iogonek">
          -244 -242 87 155 74 -55 -21 506 -20 23 -21 callsubr
          263 -47 callgsubr
          24 11 22 61 73 vhcurveto
          17 14 -1 0 hvcurveto
          16 70 -5 9 rlineto
          hintmask 11001000
          0 -8 -2 -16 -14 -6 6 23 31 31 196 12 61 vhcurveto
          7 29 5 6 37 5 15 76 rcurveline
          hintmask 11010000
          -97 callgsubr
          -14 callsubr
          32 hlineto
          -86 -82 -18 -37 -43 -44 callsubr
          endchar
        </CharString>
        <CharString name="itilde">
          -47 callsubr
          96 -56 callsubr
          hintmask 10110010
          23 callsubr
          -97 callgsubr
          hintmask 01110010
          -14 callsubr
          hintmask 10101010
          -84 callgsubr
          -201 165 rmoveto
          0 48 58 24 vhcurveto
          hintmask 10110010
          -57 callsubr
          hintmask 10100110
          -29 -83 -59 callgsubr
          53 -54 rlineto
          endchar
        </CharString>
        <CharString name="j">
          -268 -109 -21 560 74 6 0 callgsubr
          50 -69 callgsubr
          hintmask 11000000
          -38 callgsubr
          endchar
        </CharString>
        <CharString name="j.sups">
          -325 181 -21 477 52 0 139 hstemhm
          hintmask 11000000
          154 336 rmoveto
          32 208 23 88 0 vvcurveto
          -12 14 rlineto
          0 -96 -9 -63 vhcurveto
          -9 -59 rlineto
          18 hlineto
          16 6 -6 -15 -19 -33 -189 0 hvcurveto
          -9 -78 -15 -32 -49 -37 -3 -11 rcurveline
          31 -31 91 40 64 71 8 65 rlinecurve
          -11 353 rmoveto
          50 33 33 52 hvcurveto
          hintmask 10100000
          32 callsubr
          vhcurveto
          endchar
        </CharString>
        <CharString name="jcircumflex">
          -268 -109 -21 560 74 286 -20 hstem
          50 -69 callgsubr
          -38 callgsubr
          -22 182 -95 callgsubr
        </CharString>
        <CharString name="k">
          -82 callsubr
        </CharString>
        <CharString name="k.sups">
          -193 340 -21 335 -20 191 -20 hstem
          206 324 rmoveto
          9 -5 121 14 3 15 rlineto
          0 -36 72 -17 40 vhcurveto
          47 36 26 40 41 vvcurveto
          49 -43 28 -74 vhcurveto
          -23 -15 -25 -40 -25 -60 3 callgsubr
          15 7 -6 -15 -23 -64 -374 0 hvcurveto
          15 -17 rlineto
          57 49 17 21 3 hvcurveto
          4 37 rlineto
          81 31 32 58 16 hhcurveto
          9 3 -3 -10 -33 -46 -18 -3 1 hvcurveto
          -6 -12 rlineto
          7 13 rmoveto
          -1 -1 rlineto
          endchar
        </CharString>
        <CharString name="kcommaaccent">
          26 -324 -21 366 27 callsubr
          24 41 callgsubr
          59 132 rmoveto
          -4 -44 -12 -12 -42 -9 -15 -71 rcurveline
          0 89 4 53 34 107 45 callsubr
          70 -7 9 rlineto
          0 -6 -2 -18 -20 -3 11 43 6 vhcurveto
          37 260 2 25 9 7 42 11 rlinecurve
          16 76 rlineto
          0 -116 -3 -34 -12 -124 -9 callsubr
          -15 -64 10 callgsubr
          164 -143 rmoveto
          70 -197 rlineto
          -49 18 18 -14 45 hhcurveto
          22 113 9 0 hvcurveto
          17 63 -8 13 -31 6 -18 19 -16 46 rlinecurve
          -48 136 37 49 37 46 34 30 50 28 rlinecurve
          15 63 rlineto
          hintmask 11010000
          -6 13 rlineto
          hintmask 11100000
          0 -96 -4 -29 -38 -82 2 0 vhcurveto
          -15 -69 4 -9 rlineto
          20 -1 7 -6 -13 vvcurveto
          -11 -12 -20 -16 -16 vhcurveto
          -84 -89 rlineto
          -83 -364 -104 callgsubr
          endchar
        </CharString>
        <CharString name="kgreenlandic">
          -82 callsubr
        </CharString>
        <CharString name="l">
          -86 6 callsubr
          164 hmoveto
          -90 callgsubr
          hintmask 01100000
          -68 callsubr
          -16 -78 rlineto
          hintmask 10010000
          22 callsubr
          endchar
        </CharString>
        <CharString name="l.sups">
          -333 340 -21 506 -20 hstem
          147 441 rmoveto
          13 91 57 279 0 vvcurveto
          -12 14 rlineto
          0 -97 -9 -65 vhcurveto
          -9 -59 rlineto
          19 hlineto
          15 7 -6 -15 hvcurveto
          -17 -59 -326 -26 vvcurveto
          -32 16 9 callgsubr
          endchar
        </CharString>
        <CharString name="lacute">
          -86 0 99 -86 -21 512 -20 247 -20 -9 callgsubr
          164 hmoveto
          -90 callgsubr
          -68 callsubr
          hintmask 01110000
          -16 -78 rlineto
          hintmask 10110000
          22 callsubr
          187 618 -106 callsubr
          endchar
        </CharString>
        <CharString name="lcaron">
          -45 6 callsubr
          164 hmoveto
          -90 callgsubr
          hintmask 01100000
          -68 callsubr
          -16 -78 -7 callsubr
          22 callsubr
          349 504 rmoveto
          -118 -10 rlineto
          0 10 -93 -1 -95 vhcurveto
          17 -5 65 21 rlineto
          22 88 12 85 0 vvcurveto
          endchar
        </CharString>
        <CharString name="lcommaaccent">
          -86 21 callsubr
          99 405 -20 23 35 callsubr
          164 hmoveto
          -90 callgsubr
          hintmask 11100000
          -68 callsubr
          -16 -78 rlineto
          22 callsubr
          -59 -92 -104 callgsubr
          endchar
        </CharString>
        <CharString name="ldot">
          -15 0 99 -86 -21 287 182 43 -20 23 -21 callsubr
          164 hmoveto
          -90 callgsubr
          hintmask 01110000
          -68 callsubr
          -16 -78 rlineto
          hintmask 10101000
          22 callsubr
          273 279 rmoveto
          62 42 43 65 46 -26 28 -48 -63 -43 -43 -66 -47 26 -26 50 hvcurveto
          endchar
        </CharString>
        <CharString name="less">
          -143 63 -21 457 -20 hstem
          25 184 rmoveto
          0 103 -50 60 -29 vhcurveto
          65 -34 59 -29 0 vvcurveto
          67 92 -7 21 rlineto
          0 -66 32 -65 32 vhcurveto
          -89 49 1 8 88 39 rlineto
          75 32 93 36 0 vvcurveto
          -21 105 -17 11 rlineto
          0 -74 -37 -78 -33 vhcurveto
          -181 -77 -19 -153 rlineto
          endchar
        </CharString>
        <CharString name="lessequal">
          -103 -124 124 -123 -20 642 0 callgsubr
          45 184 rmoveto
          48 -22 41 -22 45 -22 26 -13 rcurveline
          66 -34 60 -29 0 vvcurveto
          67 92 -6 21 rlineto
          0 -67 32 -64 32 vhcurveto
          -90 49 1 8 89 39 rlineto
          74 32 94 36 0 vvcurveto
          -22 105 -16 11 rlineto
          0 -75 -37 -78 -33 vhcurveto
          -181 -77 -18 -153 rlineto
          188 -199 6 callgsubr
          -7 18 -7 callsubr
          -1 -6 -51 0 -97 hhcurveto
          154 2 rmoveto
          -1 vlineto
          endchar
        </CharString>
        <CharString name="logicalnot">
          -66 32 -21 196 146 6 0 callgsubr
          455 359 rmoveto
          hintmask 11000000
          0 -121 -6 -66 -86 -135 -9 callsubr
          39 callsubr
          131 1 88 vhcurveto
          45 hlineto
          -13 -96 -11 -91 0 vvcurveto
          11 -9 138 18 rlineto
          0 7 65 9 70 vhcurveto
          13 102 22 78 0 vvcurveto
          endchar
        </CharString>
        <CharString name="lozenge">
          -29 -72 -21 744 -20 hstem
          40 252 rmoveto
          55 -168 50 -170 14 -7 153 7 103 188 86 153 8 51 -55 160 -53 178 -12 7 -153 -7 -98 -180 -92 -163 rlineto
          187 102 rmoveto
          63 116 rlineto
          8 hlineto
          42 -124 34 -115 -70 -129 -60 -112 rlineto
          -8 hlineto
          -41 123 -34 110 rlineto
          endchar
        </CharString>
        <CharString name="lslash">
          -69 6 callsubr
          181 hmoveto
          124 117 -5 0 hvcurveto
          15 14 rlineto
          21 113 24 105 0 vvcurveto
          -2 4 -4 5 -3 4 -117 -11 rcurveline
          -106 -17 -17 -24 -50 hhcurveto
          -12 -7 7 16 16 6 48 8 52 hvcurveto
          106 50 -29 81 -7 3 -52 -24 8 41 3 21 18 9 57 5 rlinecurve
          20 83 rlineto
          hintmask 01100000
          -56 callgsubr
          -15 -113 -77 -37 29 -82 9 -1 26 12 -4 -30 -14 callgsubr
          -16 -78 rlineto
          hintmask 10010000
          22 callsubr
          endchar
        </CharString>
        <CharString name="m">
          127 0 76 -63 -21 512 -20 25 26 callsubr
          359 hmoveto
          60 156 54 122 -6 -18 rrcurveto
          12 hlineto
          0 -16 -115 -5 -36 vhcurveto
          -3 -25 -12 -10 -30 -3 -19 -77 rcurveline
          3 13 143 3 13 hhcurveto
          39 -1 51 -1 0 vvcurveto
          16 72 -6 7 rlineto
          0 -11 -1 -13 -24 -7 17 49 3 vhcurveto
          2 66 3 131 6 52 4 32 8 6 44 1 16 76 rcurveline
          -7 3 rlineto
          0 -32 -2 -42 -2 vhcurveto
          hintmask 10100000
          -4 -56 -51 3 -59 hhcurveto
          -32 -93 -51 -126 0 vvcurveto
          -12 hlineto
          0 -15 127 -2 95 vhcurveto
          0 -88 -3 -49 -35 -89 4 0 vhcurveto
          -17 -74 7 -7 rlineto
          42 -4 1 -4 -12 vvcurveto
          -21 -55 -249 -5 -17 vhcurveto
          -8 -33 -14 -14 -29 -3 -16 -76 rcurveline
          1 67 5 33 26 95 -17 callsubr
          19 72 -2 3 -2 2 -3 2 rlinecurve
          0 -14 -1 -5 -17 -7 7 14 10 20 154 0 vhcurveto
          12 hlineto
          hintmask 01010000
          3 -25 13 -74 24 -169 rrcurveto
          endchar
        </CharString>
        <CharString name="m.sups">
          17 342 -21 22 -21 214 118 hstemhm
          hintmask 01100000
          503 -4 callsubr
          -23 -15 -24 -39 -26 -61 -5 -1 rcurveline
          0 7 28 15 vvcurveto
          46 -40 27 -67 vhcurveto
          -24 -15 -24 -40 -26 -60 -39 callsubr
          14 hhcurveto
          9 3 -3 -11 -26 -43 -157 0 hvcurveto
          14 -17 rlineto
          58 50 17 21 2 hvcurveto
          3 31 rlineto
          83 32 35 62 15 hhcurveto
          8 3 -5 -13 hvcurveto
          -22 -39 -106 -26 vvcurveto
          hintmask 10100000
          -30 14 -13 34 41 34 25 84 76 vhcurveto
          -14 34 -18 3 rlineto
          -22 -25 -5 -4 -3 hhcurveto
          endchar
        </CharString>
        <CharString name="macron">
          565 122 -102 -21 129 -21 callgsubr
          393 693 -24 callgsubr
        </CharString>
        <CharString name="macron.cap">
          695 122 -102 -21 129 -21 callgsubr
          409 823 -24 callgsubr
        </CharString>
        <CharString name="minus">
          -66 177 146 -126 -21 153 -21 callgsubr
          480 329 rmoveto
          hintmask 10000000
          0 -138 -6 -78 -86 -135 -9 callsubr
          -34 -135 rlineto
          hintmask 01100000
          7 -13 rlineto
          hintmask 10000000
          4 callsubr
          endchar
        </CharString>
        <CharString name="mu">
          -26 -221 -21 230 140 -117 -21 494 -20 -9 callgsubr
          69 455 rmoveto
          -13 -28 rlineto
          0 6 -45 -7 -57 vhcurveto
          -40 -252 rlineto
          -25 -161 -31 -140 0 vvcurveto
          13 -14 159 25 9 12 rlineto
          0 1 48 6 52 vhcurveto
          11 99 5 3 rlineto
          -4 6 10 -3 10 hhcurveto
          13 38 40 36 30 hvcurveto
          10 -5 rlineto
          hintmask 11010000
          -49 3 35 -24 68 hhcurveto
          66 24 70 98 0 vvcurveto
          -14 26 rlineto
          0 -17 -8 -14 -15 -9 12 18 34 47 235 22 31 vhcurveto
          -11 22 -197 -28 -14 -27 rlineto
          0 8 -40 -7 -62 vhcurveto
          -21 -173 rlineto
          -7 -13 -18 -9 -13 hhcurveto
          -22 -11 15 32 24 32 211 29 46 hvcurveto
          -10 22 rlineto
          endchar
        </CharString>
        <CharString name="multiply">
          -66 47 -21 429 -20 hstem
          379 455 rmoveto
          0 -64 -65 -58 -54 vhcurveto
          -44 53 -44 55 0 vvcurveto
          -118 -83 -5 -16 rlineto
          0 48 -58 47 -55 vhcurveto
          -55 -50 -52 -49 0 vvcurveto
          66 -104 15 -3 rlineto
          0 56 53 58 53 vhcurveto
          90 -106 115 87 8 16 rlineto
          0 -51 55 -45 52 vhcurveto
          118 111 -71 102 rlineto
          endchar
        </CharString>
        <CharString name="n">
          14 callsubr
          24 0 callgsubr
          -45 callsubr
          vhcurveto
          hintmask 01010000
          -66 -62 4 0 hvcurveto
          -61 callsubr
          hintmask 10100000
          -89 callsubr
          endchar
        </CharString>
        <CharString name="n.sups">
          -163 342 -21 22 -21 332 -21 callgsubr
          324 -4 callsubr
          -22 -15 -25 -38 -26 -62 -39 callsubr
          13 hhcurveto
          8 3 -5 -13 hvcurveto
          -22 -40 -106 -26 vvcurveto
          hintmask 10100000
          -30 15 -13 34 41 34 25 84 76 24 callsubr
        </CharString>
        <CharString name="nacute">
          14 callsubr
          247 -20 hstemhm
          hintmask 01110000
          -61 callgsubr
          hintmask 10110000
          -89 callsubr
          65 333 -106 callsubr
          endchar
        </CharString>
        <CharString name="nbspace">
          -420 endchar
        </CharString>
        <CharString name="ncaron">
          14 callsubr
          267 -20 hstemhm
          hintmask 01110000
          -61 callgsubr
          hintmask 10110000
          -89 callsubr
          112 459 -103 callgsubr
        </CharString>
        <CharString name="ncommaaccent">
          56 21 callsubr
          73 431 -20 24 41 callgsubr
          -45 callsubr
          vhcurveto
          hintmask 11010000
          -66 -62 4 0 hvcurveto
          -61 callsubr
          0 74 6 61 34 97 -17 callsubr
          17 72 -7 7 rlineto
          0 -16 -3 -9 -25 -6 10 31 3 vhcurveto
          10 103 rlineto
          14 hlineto
          0 50 -95 61 -127 vhcurveto
          177 9 57 377 5 32 12 12 34 5 rlinecurve
          13 76 rlineto
          hintmask 11100000
          -1 -71 -1 -47 -48 -96 3 0 vhcurveto
          -12 -68 4 -9 rlineto
          24 hlineto
          20 4 -7 -27 -2 hvcurveto
          -11 -111 rlineto
          -223 -377 -104 callgsubr
          endchar
        </CharString>
        <CharString name="nine">
          -97 -75 -21 494 117 hstem
          20 -8 rmoveto
          20 -81 12 -7 rlineto
          0 404 91 329 vvcurveto
          116 -68 75 -113 -157 -102 -95 -146 -92 53 -58 86 vhcurveto
          56 21 4 -11 rlineto
          -82 -102 -113 -40 0 vvcurveto
          206 252 rmoveto
          -26 -13 20 40 60 13 34 48 28 14 -25 -46 -22 -3 -21 -7 -24 hvcurveto
          -7 -12 -20 -9 -22 hhcurveto
          endchar
        </CharString>
        <CharString name="nine.dnom">
          -218 12 -21 325 85 hstem
          23 55 -86 callsubr
        </CharString>
        <CharString name="nine.lf">
          -57 callgsubr
        </CharString>
        <CharString name="nine.numr">
          -218 266 -21 230 -20 115 85 hstem
          23 309 -86 callsubr
        </CharString>
        <CharString name="nine.sinf">
          -218 -108 -21 325 85 hstem
          23 -65 -86 callsubr
        </CharString>
        <CharString name="nine.sups">
          -218 339 -21 325 85 hstem
          23 382 -86 callsubr
        </CharString>
        <CharString name="nine.tf">
          -57 callgsubr
        </CharString>
        <CharString name="nine.tosf">
          -107 -75 -21 494 117 hstem
          18 -8 rmoveto
          19 -81 12 -7 rlineto
          0 400 91 329 vvcurveto
          116 -67 75 -112 -155 -101 -95 -146 -92 52 -58 84 vhcurveto
          19 7 15 7 20 7 4 -11 rcurveline
          -81 -102 -109 -40 0 vvcurveto
          203 252 rmoveto
          -24 -13 20 40 60 12 34 47 27 14 -25 -46 -22 -3 -21 -7 -24 hvcurveto
          -7 -12 -19 -9 -22 hhcurveto
          endchar
        </CharString>
        <CharString name="notequal">
          -66 -21 -21 119 146 54 146 134 -20 hstem
          489 429 rmoveto
          0 -71 -4 -69 -1 vhcurveto
          33 125 -5 8 -118 -10 -33 -124 rlineto
          -81 -93 1 0 hvcurveto
          40 callgsubr
          84 1 79 vhcurveto
          -14 -54 rlineto
          -74 -72 1 0 hvcurveto
          39 callsubr
          64 0 70 1 vhcurveto
          -28 -110 2 -9 119 11 28 108 rlineto
          31 hlineto
          51 52 1 50 hhcurveto
          30 136 -5 15 rlineto
          1 -94 -7 -75 vhcurveto
          14 54 rlineto
          51 52 1 52 hhcurveto
          29 136 rlineto
          endchar
        </CharString>
        <CharString name="ntilde">
          14 callsubr
          71 -56 callsubr
          hintmask 01110010
          -61 callgsubr
          hintmask 10101010
          -89 callsubr
          -179 246 -1 callsubr
          hintmask 10110010
          -67 callgsubr
          hintmask 10100110
          -29 -82 -59 callgsubr
          52 -54 rlineto
          endchar
        </CharString>
        <CharString name="numbersign">
          -14 52 -21 114 116 79 120 122 -20 hstem
          58 339 rmoveto
          75 hlineto
          -8 -33 -12 -45 -90 1 -26 -105 7 -13 rlineto
          75 hlineto
          -29 -104 12 -9 108 14 25 100 rlineto
          78 hlineto
          -30 -105 12 -9 108 14 26 100 98 1 21 106 -5 15 -83 -3 17 60 4 16 100 1 21 106 -5 15 -82 -3 35 116 -13 7 -109 -9 -30 -117 rlineto
          -77 hlineto
          36 119 -13 7 -110 -9 -30 -117 -87 1 -26 -105 rlineto
          193 -28 rmoveto
          3 16 rlineto
          80 hlineto
          -9 -34 -12 -45 rlineto
          -79 hlineto
          endchar
        </CharString>
        <CharString name="o">
          -37 callgsubr
          hstem
          -98 callsubr
          endchar
        </CharString>
        <CharString name="o.sups">
          -42 callsubr
        </CharString>
        <CharString name="oacute">
          -37 callgsubr
          217 -20 hstem
          -98 callsubr
          217 627 -106 callsubr
          endchar
        </CharString>
        <CharString name="obreve">
          -37 callgsubr
          27 45 callgsubr
          hstem
          -98 callsubr
          70 685 -91 callgsubr
          endchar
        </CharString>
        <CharString name="ocircumflex">
          -37 callgsubr
          hstem
          -98 callsubr
          -81 573 -102 callgsubr
          endchar
        </CharString>
        <CharString name="odieresis">
          -37 callgsubr
          37 167 hstem
          141 80 vstem
          -98 callsubr
          159 560 -103 callsubr
          endchar
        </CharString>
        <CharString name="oe">
          188 -8 107 238 168 -104 104 8 0 callgsubr
          480 145 rmoveto
          8 52 61 5 rlineto
          36 57 -3 0 hvcurveto
          23 97 -10 12 rlineto
          0 -64 -4 -23 vhcurveto
          -63 1 15 77 rlineto
          15 1 5 4 18 hhcurveto
          53 14 -7 -25 -12 -6 -24 0 hvcurveto
          126 8 rlineto
          12 73 25 86 0 vvcurveto
          hintmask 10010000
          -10 13 rlineto
          -9 -79 -117 -8 -66 hhcurveto
          hintmask 11000000
          -75 -67 9 -52 hhcurveto
          -196 -90 -100 -198 -142 85 -73 145 hvcurveto
          41 62 11 57 hhcurveto
          134 129 -8 0 hvcurveto
          15 13 rlineto
          19 88 24 77 0 vvcurveto
          -9 13 -117 -7 rlineto
          -67 -17 -16 -13 -59 hhcurveto
          -29 -4 6 40 4 hvcurveto
          -219 -52 rmoveto
          -33 -10 21 73 144 21 71 45 34 19 -24 -41 -5 hvcurveto
          -24 -186 rlineto
          -38 -4 -17 -20 -26 hhcurveto
          endchar
        </CharString>
        <CharString name="ogonek">
          -169 -242 87 197 -20 hstem
          232 -47 callgsubr
          28 15 25 95 110 vhcurveto
          -68 hlineto
          -126 -113 -24 -41 -50 -44 callsubr
          endchar
        </CharString>
        <CharString name="ograve">
          -37 callgsubr
          217 -20 hstem
          -98 callsubr
          -66 611 -96 callsubr
          endchar
        </CharString>
        <CharString name="ohungarumlaut">
          -37 callgsubr
          222 -20 hstem
          -98 callsubr
          93 664 -84 callsubr
        </CharString>
        <CharString name="omacron">
          -37 callgsubr
          37 122 6 35 callsubr
          -98 callsubr
          226 688 rmoveto
          hintmask 11100000
          -87 callgsubr
          endchar
        </CharString>
        <CharString name="one">
          -190 0 88 hstem
          311 400 rmoveto
          13 36 13 20 22 16 -11 43 rcurveline
          -1 1 -80 -13 -94 -10 -41 -5 -43 -5 -47 42 callsubr
          17 37 7 -11 -46 -5 vhcurveto
          -25 -201 -5 -42 -28 -20 -61 -6 rlinecurve
          -18 -81 rlineto
          -1 -1 113 11 73 hhcurveto
          52 99 -6 0 hvcurveto
          28 callgsubr
          135 30 81 17 49 vhcurveto
          endchar
        </CharString>
        <CharString name="one.dnom">
          -281 0 -11 callsubr
          322 -89 callgsubr
          hintmask 10100000
          -74 callsubr
          endchar
        </CharString>
        <CharString name="one.lf">
          -189 0 88 -77 -21 490 -21 callgsubr
          319 483 rmoveto
          12 35 14 20 22 17 -11 43 rcurveline
          -1 1 -81 -13 -92 -10 -40 -5 -44 -5 -46 42 callsubr
          18 37 6 -11 -46 -5 vhcurveto
          -35 -284 -5 -42 -28 -20 -61 -6 rlinecurve
          -19 -81 -7 callsubr
          0 112 10 74 52 99 -6 0 vhcurveto
          28 callgsubr
          45 41 262 14 41 vhcurveto
          endchar
        </CharString>
        <CharString name="one.numr">
          -281 254 -11 callsubr
          576 -89 callgsubr
          hintmask 10100000
          -74 callsubr
          endchar
        </CharString>
        <CharString name="one.sinf">
          -281 -120 -11 callsubr
          202 -89 callgsubr
          hintmask 10100000
          -74 callsubr
          endchar
        </CharString>
        <CharString name="one.sups">
          -281 327 -11 callsubr
          649 -89 callgsubr
          hintmask 10100000
          -74 callsubr
          endchar
        </CharString>
        <CharString name="one.tf">
          -97 0 88 -77 -21 490 -21 callgsubr
          363 483 rmoveto
          12 35 15 20 26 17 -11 43 rcurveline
          -2 1 -74 -13 -107 -10 -144 -14 rcurveline
          -16 -75 8 -10 rlineto
          0 33 3 21 41 10 -11 -46 -5 vhcurveto
          -37 -284 -5 -42 -33 -20 -69 -6 rlinecurve
          -19 -81 -7 callsubr
          0 120 10 79 59 110 -6 0 vhcurveto
          24 90 -3 6 rlineto
          0 -25 -2 -26 -27 -12 16 32 48 40 258 17 41 vhcurveto
          endchar
        </CharString>
        <CharString name="one.tosf">
          -107 0 88 hstem
          350 400 rmoveto
          13 36 13 20 26 16 -11 43 rcurveline
          -2 1 -73 -13 -108 -10 -143 -14 rcurveline
          -17 -75 8 -10 rlineto
          0 33 3 20 41 11 -11 -46 -6 vhcurveto
          -25 -201 -6 -42 -30 -20 -72 -6 rlinecurve
          -17 -81 rlineto
          -1 -1 120 11 78 hhcurveto
          58 109 -6 0 hvcurveto
          24 90 -3 6 rlineto
          0 -24 -2 -27 -26 -12 16 42 128 30 79 19 47 vhcurveto
          endchar
        </CharString>
        <CharString name="onedotenleader">
          -326 -9 199 hstem
          81 -9 rmoveto
          -77 callsubr
          endchar
        </CharString>
        <CharString name="onehalf">
          320 -70 -21 112 -21 254 63 -34 118 278 -20 hstemhm
          hintmask 11101000
          643 647 -83 callgsubr
          -425 -47 -89 callgsubr
          -74 callsubr
          270 -580 rmoveto
          69 4 rlineto
          72 158 -8 0 hvcurveto
          14 13 rlineto
          10 61 26 93 0 vvcurveto
          -87 -6 rlineto
          -45 -10 -15 -16 -31 hhcurveto
          -26 hlineto
          -3 6 rlineto
          108 97 35 52 62 vvcurveto
          hintmask 11011000
          55 -48 37 -73 -51 -60 -29 -47 -47 vhcurveto
          8 -86 rlineto
          14 hlineto
          30 29 28 14 23 hhcurveto
          19 9 -7 -18 -18 -22 -32 -43 -42 hvcurveto
          -104 -97 rlineto
          endchar
        </CharString>
        <CharString name="onequarter">
          288 -70 -21 87 173 -85 85 85 63 362 -20 hstem
          643 647 -83 callgsubr
          -425 -47 -89 callgsubr
          -74 callsubr
          244 -491 -73 callgsubr
          -72 callsubr
          endchar
        </CharString>
        <CharString name="ordfeminine">
          -62 callgsubr
        </CharString>
        <CharString name="ordmasculine">
          -42 callsubr
        </CharString>
        <CharString name="oslash">
          -21 -76 -21 88 108 297 118 85 -43 callgsubr
          198 43 rmoveto
          -29 -11 22 70 150 16 55 46 30 12 -22 -70 -150 -16 -55 -48 hvcurveto
          endchar
        </CharString>
        <CharString name="oslashacute">
          -21 -76 -21 88 108 297 118 250 -43 callgsubr
          341 595 -106 callsubr
          -136 -536 rmoveto
          -29 -11 22 70 150 16 55 46 30 12 -22 -70 -150 -16 -55 -48 hvcurveto
          endchar
        </CharString>
        <CharString name="otilde">
          -37 callgsubr
          41 -56 callsubr
          hintmask 11010100
          -98 callsubr
          -53 540 -1 callsubr
          hintmask 11100100
          -67 callgsubr
          hintmask 11001100
          -29 -82 -59 callgsubr
          52 -54 rlineto
          endchar
        </CharString>
        <CharString name="p">
          -46 0 75 326 108 -80 80 -5 0 callgsubr
          41 438 rmoveto
          7 -10 rlineto
          0 17 1 13 13 5 -10 -32 -4 vhcurveto
          -32 -250 -6 -43 -15 -17 -38 -6 rlinecurve
          -17 -78 rlineto
          -1 120 8 36 36 106 -17 callsubr
          17 72 -1 3 -2 1 -1 3 rlinecurve
          0 -13 -1 -10 -34 -6 14 44 6 vhcurveto
          3 24 rlineto
          68 hlineto
          117 114 94 113 56 -37 89 -180 hvcurveto
          hintmask 10010000
          0 -107 -5 -39 vhcurveto
          -120 hlineto
          198 -243 rmoveto
          7 45 8 42 6 35 rrcurveto
          hintmask 11000000
          16 3 2 2 9 hhcurveto
          44 19 -16 -38 -43 -13 -36 -37 -14 hvcurveto
          endchar
        </CharString>
        <CharString name="p.sups">
          -159 173 61 -45 -21 160 88 237 -20 hstemhm
          hintmask 01110000
          -47 168 rmoveto
          hintmask 10110000
          0 126 5 93 vhcurveto
          11 57 rlineto
          4 -33 vlineto
          -26 -6 6 27 3 hvcurveto
          11 75 67 -14 rlineto
          82 96 109 110 67 -42 39 -75 hvcurveto
          -26 -19 -28 -33 -30 -53 -6 -1 rcurveline
          5 28 7 30 8 27 -11 14 rcurveline
          0 -96 -9 -63 vhcurveto
          -9 -59 rlineto
          18 hlineto
          15 7 -6 -15 -32 -29 -183 -16 -71 hvcurveto
          -7 -32 -9 -8 -26 -4 rrcurveto
          hintmask 01110000
          272 329 rmoveto
          4 2 -14 -24 -40 -9 -62 -13 -25 -25 19 -1 3 hvcurveto
          71 19 34 51 10 hhcurveto
          endchar
        </CharString>
        <CharString name="paragraph">
          0 -94 106 548 92 -5 0 callgsubr
          292 106 rmoveto
          -68 -8 -25 -26 -53 hhcurveto
          -50 -31 47 76 hvcurveto
          -17 hlineto
          -32 -38 -30 -63 -35 vvcurveto
          -49 59 -44 72 143 155 136 148 18 vhcurveto
          11 91 31 192 10 43 7 31 4 5 36 10 3 4 rcurveline
          16 84 rlineto
          0 -132 -3 -29 vhcurveto
          hintmask 11000000
          -46 -62 5 -50 hhcurveto
          -150 -118 -109 -145 -122 96 -79 159 hvcurveto
          4 35 rlineto
          -26 45 -12 45 54 vvcurveto
          103 28 81 48 22 5 -3 -12 -2 vhcurveto
          endchar
        </CharString>
        <CharString name="parenleft">
          -257 -125 -21 795 -20 hstem
          42 163 rmoveto
          -30 -242 152 -67 0 vvcurveto
          12 hlineto
          70 60 1 11 rlineto
          0 -70 60 24 193 vhcurveto
          21 173 rlineto
          21 176 81 49 0 vvcurveto
          2 9 -44 64 rlineto
          -18 hlineto
          0 -171 -68 -30 -245 vhcurveto
          endchar
        </CharString>
        <CharString name="parenright">
          -253 -125 -21 795 -20 hstem
          262 340 rmoveto
          29 242 -151 67 0 vvcurveto
          -13 hlineto
          -69 -60 -1 -11 rlineto
          0 70 -60 -24 -193 vhcurveto
          -21 -173 rlineto
          -22 -176 -81 -49 0 vvcurveto
          -2 -9 45 -64 rlineto
          17 hlineto
          0 171 68 30 245 vhcurveto
          endchar
        </CharString>
        <CharString name="partialdiff">
          -61 -14 107 254 124 269 -20 hstem
          251 449 rmoveto
          0 -23 14 -11 8 vhcurveto
          -115 -96 -132 -161 -122 72 -70 130 173 107 121 188 179 -124 170 -217 96 hvcurveto
          -17 -8 -61 -81 95 -71 59 -58 33 -64 rlinecurve
          35 -177 rmoveto
          -80 -28 -108 -27 -28 -12 19 55 105 24 75 40 13 9 -4 -6 8 vhcurveto
          1 -12 0 -27 -17 vvcurveto
          endchar
        </CharString>
        <CharString name="percent">
          183 -66 callsubr
          73 -31 callsubr
        </CharString>
        <CharString name="period">
          -326 -9 199 hstem
          81 -9 rmoveto
          -77 callsubr
          endchar
        </CharString>
        <CharString name="periodcentered">
          -326 154 199 hstem
          101 154 rmoveto
          -77 callsubr
          endchar
        </CharString>
        <CharString name="perthousand">
          511 -66 callsubr
          355 138 rmoveto
          -49 -23 13 28 34 20 14 55 49 23 -12 -29 -33 -18 -15 -57 hvcurveto
          -27 -138 rmoveto
          108 78 79 147 96 -47 47 -78 -108 -80 -79 -146 -97 49 -47 78 hvcurveto
          -255 -31 callsubr
        </CharString>
        <CharString name="pi">
          69 -73 -21 103 -21 391 116 -100 100 10 35 callsubr
          501 182 rmoveto
          33 19 102 6 23 vhcurveto
          47 13 12 8 63 hhcurveto
          8 7 27 96 rlineto
          hintmask 11001000
          -5 7 rlineto
          hintmask 11100000
          0 -121 -10 -83 vhcurveto
          hintmask 11001000
          -57 -165 10 -110 hhcurveto
          -16 -7 -98 -75 -3 -9 27 -69 10 1 rlineto
          hintmask 11100000
          0 48 33 25 11 5 -6 -21 -42 -57 -371 -7 -16 vhcurveto
          8 -17 169 28 13 15 rlineto
          0 4 47 6 48 vhcurveto
          40 311 rlineto
          33 6 4 4 24 hhcurveto
          23 5 -9 -35 -4 hvcurveto
          -29 -229 rlineto
          -90 -11 36 -41 93 hhcurveto
          23 112 100 23 2 hvcurveto
          -12 24 rlineto
          -49 -15 8 39 hvcurveto
          endchar
        </CharString>
        <CharString name="plus">
          -66 39 -21 159 146 170 -20 hstem
          336 493 rmoveto
          -133 -13 -20 -157 rlineto
          -71 -69 1 0 hvcurveto
          40 callgsubr
          74 0 75 1 vhcurveto
          -10 -76 -9 -74 0 vvcurveto
          11 36 callsubr
          149 1 14 callgsubr
          endchar
        </CharString>
        <CharString name="plusminus">
          -66 -124 124 -123 -20 342 146 170 -20 -9 callgsubr
          339 515 rmoveto
          -133 -13 -6 -52 -8 -53 -6 -52 rlinecurve
          -71 -69 1 0 hvcurveto
          39 callsubr
          74 0 75 1 vhcurveto
          -10 -76 -10 -74 0 vvcurveto
          12 36 callsubr
          50 49 1 50 hhcurveto
          14 callgsubr
          67 -506 rmoveto
          0 -22 -2 -63 vhcurveto
          -323 hlineto
          -23 -105 8 -19 rlineto
          hintmask 01110000
          140 130 1 134 hhcurveto
          27 106 rlineto
          endchar
        </CharString>
        <CharString name="product">
          140 16 -21 26 -21 559 88 5 26 callsubr
          661 510 rmoveto
          7 37 9 7 45 8 18 90 rcurveline
          hintmask 10100000
          0 -127 -5 -42 vhcurveto
          -339 hlineto
          hintmask 10010000
          -38 -118 5 0 hvcurveto
          -20 -80 8 -14 -7 callsubr
          0 14 1 10 22 8 -7 -26 -32 -30 -217 -15 -115 vhcurveto
          -6 -56 -14 -15 -52 -11 -18 -85 rcurveline
          hintmask 01100000
          -1 102 5 61 hhcurveto
          39 117 -4 0 hvcurveto
          19 84 -7 10 rlineto
          0 -1 -1 -3 -1 vhcurveto
          -1 -5 -6 0 -8 hhcurveto
          -16 -7 8 29 33 34 218 21 122 hvcurveto
          40 7 11 12 32 hhcurveto
          57 24 5 -43 -111 -28 -127 -14 -111 hvcurveto
          -7 -56 -11 -15 -45 -11 rrcurveto
          hintmask 10100000
          -18 -85 rlineto
          hintmask 01100000
          0 97 5 58 40 28 callsubr
          -20 -18 -7 8 30 37 38 249 18 99 vhcurveto
          endchar
        </CharString>
        <CharString name="q">
          -18 -192 145 38 108 297 118 hstem
          230 -9 rmoveto
          -155 143 37 -28 64 hhcurveto
          33 131 83 0 hvcurveto
          -8 60 -9 10 rlineto
          0 -41 -8 -35 -51 -67 27 37 -42 vhcurveto
          3 vlineto
          97 46 49 98 143 vvcurveto
          140 -80 67 -144 -195 -96 -108 -202 -139 79 -70 135 -4 vhcurveto
          31 108 rmoveto
          -29 -11 22 70 150 16 55 46 30 12 -22 -70 -150 -16 -55 -48 hvcurveto
          endchar
        </CharString>
        <CharString name="q.sups">
          -182 173 50 -37 -21 404 75 27 -20 -9 callgsubr
          178 264 rmoveto
          -6 -33 -9 -6 -45 -2 rrcurveto
          hintmask 01110000
          -12 -58 rlineto
          hintmask 10110000
          0 67 8 140 vhcurveto
          12 58 -2 3 -16 -1 rlineto
          -12 -3 4 14 75 70 325 -3 -6 hvcurveto
          -5 17 -99 9 -15 -9 -9 -31 -47 13 rlineto
          -86 -91 -113 -106 -67 41 -39 69 hvcurveto
          28 19 25 30 35 59 rrcurveto
          7 hlineto
          -16 -69 rlineto
          -45 72 rmoveto
          -5 -3 15 24 46 12 54 9 25 27 -18 1 -3 hvcurveto
          -56 -14 -34 -66 -14 hhcurveto
          endchar
        </CharString>
        <CharString name="question">
          -186 -9 199 381 145 hstem
          90 240 rmoveto
          14 -8 120 20 10 14 2 69 3 6 rlineto
          142 87 41 48 70 vvcurveto
          94 -111 72 -158 4 vhcurveto
          -18 -9 -55 -118 12 -18 rlineto
          96 -5 51 -26 -43 vvcurveto
          -23 -18 -21 -35 -18 vhcurveto
          -98 -47 -5 -15 rlineto
          44 -382 -55 callsubr
          -53 -69 -46 -47 -72 -51 29 -29 54 hvcurveto
          endchar
        </CharString>
        <CharString name="questiondown">
          -186 -241 145 381 199 hstem
          281 235 rmoveto
          -14 8 -120 -20 -10 -14 -2 -69 -3 -6 rlineto
          -143 -88 -40 -48 -69 vvcurveto
          -94 111 -72 158 -4 vhcurveto
          18 9 55 118 -12 18 rlineto
          -95 4 -52 26 43 vvcurveto
          24 18 21 35 18 vhcurveto
          98 47 5 15 rlineto
          -44 382 12 callsubr
          endchar
        </CharString>
        <CharString name="quotedbl">
          -219 -24 callsubr
          160 12 rmoveto
          -135 -14 rlineto
          0 -4 -118 -16 -120 vhcurveto
          18 25 callgsubr
        </CharString>
        <CharString name="quotedblbase">
          -121 -101 30 callsubr
          -1 -22 callgsubr
          206 -14 -104 callgsubr
          endchar
        </CharString>
        <CharString name="quotedblleft">
          -86 369 30 callsubr
          518 406 -50 callsubr
          -209 14 -50 callsubr
          endchar
        </CharString>
        <CharString name="quotedblright">
          -86 369 30 callsubr
          350 601 -49 callgsubr
          -215 -14 -49 callgsubr
          endchar
        </CharString>
        <CharString name="quoteleft">
          -297 369 30 callsubr
          249 406 -50 callsubr
          endchar
        </CharString>
        <CharString name="quoteright">
          -297 369 30 callsubr
          76 601 -49 callgsubr
          endchar
        </CharString>
        <CharString name="quotesinglbase">
          -326 -101 30 callsubr
          5 -22 callgsubr
          endchar
        </CharString>
        <CharString name="quotesingle">
          -386 -24 callsubr
          endchar
        </CharString>
        <CharString name="r">
          -7 callgsubr
          hstemhm
          hintmask 01001000
          -69 callsubr
          hintmask 10000100
          -28 callsubr
          hintmask 10001000
          -48 callsubr
          hintmask 00110000
          -19 callsubr
          hintmask 10010000
          -65 callsubr
          endchar
        </CharString>
        <CharString name="r.sups">
          -244 343 -21 331 -20 hstem
          20 339 rmoveto
          15 -17 rlineto
          58 49 17 21 3 hvcurveto
          5 42 rlineto
          80 28 29 36 33 hhcurveto
          25 14 -15 0 hvcurveto
          14 7 rlineto
          9 23 4 16 13 vvcurveto
          42 -15 30 -30 19 vhcurveto
          -22 -39 -49 -52 -18 hvcurveto
          -5 -1 rlineto
          5 39 12 41 0 vvcurveto
          -11 15 rlineto
          0 -95 -9 -64 vhcurveto
          -8 -59 rlineto
          18 hlineto
          15 7 -6 -15 -23 -36 -195 0 hvcurveto
          endchar
        </CharString>
        <CharString name="racute">
          -7 callgsubr
          247 -76 callsubr
          130 347 -106 callsubr
          endchar
        </CharString>
        <CharString name="radical">
          -68 9 -21 754 -20 hstem
          72 320 rmoveto
          7 -71 26 -261 0 vvcurveto
          219 12 300 742 rlineto
          -117 hlineto
          -30 -20 -216 -577 rlineto
          -17 hlineto
          0 -11 281 2 49 vhcurveto
          -5 7 -94 -12 rlineto
          -49 -6 -63 -5 0 vvcurveto
          -21 -86 2 -4 47 1 14 -11 6 -39 rlinecurve
          endchar
        </CharString>
        <CharString name="rcaron">
          -7 callgsubr
          267 -76 callsubr
          177 473 -103 callgsubr
        </CharString>
        <CharString name="rcommaaccent">
          14 -324 -21 337 83 -66 -21 33 -21 429 80 -5 -21 callsubr
          -69 callsubr
          hintmask 11000100
          -28 callsubr
          hintmask 11001000
          -48 callsubr
          hintmask 10011000
          -19 callsubr
          hintmask 11001000
          -65 callsubr
          -154 -363 -104 callgsubr
          endchar
        </CharString>
        <CharString name="registered">
          -103 303 42 72 200 -38 132 -122 -20 100 42 hstemhm
          hintmask 11001000
          61 486 rmoveto
          -102 73 -81 101 118 107 102 123 102 -74 81 -101 -118 -106 -102 -123 vhcurveto
          41 4 rmoveto
          97 85 82 93 80 58 -65 -80 -97 -85 -82 -93 -79 -59 65 80 vhcurveto
          50 -76 rmoveto
          0 26 2 18 1 vhcurveto
          11 hlineto
          13 33 -2 0 hvcurveto
          6 26 rlineto
          1 1 -1 0 1 vvcurveto
          -16 1 -5 1 12 vvcurveto
          3 3 19 1 7 vhcurveto
          16 hlineto
          12 -47 rlineto
          -26 7 8 -1 27 hhcurveto
          51 3 -13 5 4 18 -2 3 rcurveline
          -8 1 -12 13 -5 14 -15 32 rcurveline
          30 17 13 21 28 vvcurveto
          35 -28 15 -54 vhcurveto
          -1 -10 -22 -1 -9 hhcurveto
          -52 hlineto
          -6 -25 3 -2 rlineto
          hintmask 10011000
          0 5 1 6 5 2 -4 -14 -2 vhcurveto
          -13 -103 -2 -17 -7 -7 -13 -3 rlinecurve
          98 130 rmoveto
          hintmask 10100000
          7 1 1 1 4 hhcurveto
          20 9 -8 -14 -18 -7 -12 -14 -4 hvcurveto
          -7 -12 1 -4 hhcurveto
          2 15 4 15 3 17 rrcurveto
          endchar
        </CharString>
        <CharString name="ring">
          542 210 -72 72 hstemhm
          hintmask 01000000
          241 612 29 callsubr
          21 12 16 26 21 12 -11 -19 -31 -24 -7 -14 hvcurveto
          hintmask 10000000
          -15 -70 rmoveto
          76 47 62 63 44 -24 41 -65 -71 -51 -53 -68 -53 30 -36 58 hvcurveto
          endchar
        </CharString>
        <CharString name="ring.cap">
          682 210 -72 72 hstemhm
          hintmask 01000000
          260 752 29 callsubr
          -30 callsubr
          hvcurveto
          hintmask 10000000
          -16 -70 -49 callsubr
          endchar
        </CharString>
        <CharString name="s">
          -12 callgsubr
          hstem
          169 -9 rmoveto
          -104 callsubr
          endchar
        </CharString>
        <CharString name="s.sups">
          -254 319 86 159 89 hstem
          40 451 rmoveto
          -19 -21 -20 -41 -4 -26 rrcurveto
          -25 10 48 -19 57 hhcurveto
          98 72 51 72 59 -56 14 -32 14 hvcurveto
          -13 5 -8 5 9 vvcurveto
          9 9 7 12 15 15 -11 -19 9 vhcurveto
          19 hlineto
          14 23 15 29 16 39 rrcurveto
          17 -24 -42 11 -41 hhcurveto
          -93 -67 -52 -74 -49 35 -18 31 -12 hvcurveto
          23 -10 22 -7 -13 vvcurveto
          -9 -8 -4 -17 -27 -26 21 24 -3 vhcurveto
          endchar
        </CharString>
        <CharString name="sacute">
          -12 callgsubr
          218 -20 hstem
          169 -9 rmoveto
          -104 callsubr
          265 627 -106 callsubr
          endchar
        </CharString>
        <CharString name="scaron">
          -12 callgsubr
          238 -20 hstem
          169 -9 rmoveto
          -104 callsubr
          292 753 -103 callgsubr
        </CharString>
        <CharString name="scedilla">
          -95 23 callgsubr
          129 -26 callgsubr
          hstem
          128 -88 callgsubr
          9 31 rlineto
          141 12 83 63 101 vvcurveto
          94 -91 29 -62 25 vhcurveto
          -32 14 -24 12 20 vvcurveto
          18 18 13 27 29 19 -15 -28 -1 -2 -15 0 vhcurveto
          10 -7 106 7 rlineto
          15 70 24 66 0 vvcurveto
          -9 19 rlineto
          0 -73 22 -91 -167 -108 -72 -114 -81 67 -33 58 -26 vhcurveto
          45 -18 39 -14 -25 vvcurveto
          -15 -18 -10 -28 -40 -20 32 38 4 vhcurveto
          -114 -8 rlineto
          -9 -47 -26 -80 0 vvcurveto
          9 -15 rlineto
          0 64 -31 91 -3 vhcurveto
          endchar
        </CharString>
        <CharString name="scircumflex">
          -12 callgsubr
          277 -20 hstem
          169 -9 rmoveto
          -104 callsubr
          -23 581 -95 callgsubr
        </CharString>
        <CharString name="scommaaccent">
          -95 -324 -21 336 114 -114 180 224 118 hstem
          169 -9 rmoveto
          -104 callsubr
          -81 -83 -104 callgsubr
          endchar
        </CharString>
        <CharString name="section">
          -87 -95 118 456 -20 77 123 hstem
          388 67 rmoveto
          5 41 -17 29 -25 23 rrcurveto
          63 35 48 48 61 120 -170 30 54 vvcurveto
          16 16 12 17 24 23 -24 -33 7 vhcurveto
          25 hlineto
          21 16 37 84 31 vvcurveto
          26 -65 23 -74 -124 -99 -74 -97 -38 17 -27 24 -23 vhcurveto
          -55 -28 -64 -47 -77 -126 177 -10 -62 vvcurveto
          -17 -11 -10 -20 -42 -35 37 45 -1 vhcurveto
          -27 2 rlineto
          -37 -42 -19 -51 -35 vvcurveto
          -38 69 -36 76 122 102 70 92 12 vhcurveto
          -203 240 rmoveto
          20 8 14 12 13 vhcurveto
          46 -29 43 -27 -45 vvcurveto
          -18 -6 -14 -10 -12 vhcurveto
          -48 28 -45 25 45 vvcurveto
          endchar
        </CharString>
        <CharString name="semicolon">
          -326 -101 -21 311 67 0 199 hstemhm
          hintmask 11000000
          5 -22 callgsubr
          110 111 rmoveto
          68 46 47 71 hvcurveto
          hintmask 10100000
          51 -29 30 -52 -69 -46 -47 -72 -51 28 -29 54 vhcurveto
          endchar
        </CharString>
        <CharString name="seven">
          -134 -74 -21 598 -20 24 -11 callgsubr
          191 -95 rmoveto
          55 143 78 152 31 63 95 36 callgsubr
          -61 -57 18 callsubr
          19 65 13 11 57 6 rlinecurve
          86 9 -234 -389 9 -28 118 -38 rlineto
          endchar
        </CharString>
        <CharString name="seven.dnom">
          -245 14 40 callsubr
          -7 -62 callsubr
        </CharString>
        <CharString name="seven.lf">
          -136 10 -21 598 -20 24 -11 callgsubr
          201 -11 rmoveto
          55 143 78 152 32 63 94 36 callgsubr
          -60 -58 4 0 hvcurveto
          -6 -5 rlineto
          -18 -106 -31 -133 0 vvcurveto
          83 6 19 65 13 11 57 6 rlinecurve
          87 9 -234 -389 8 -28 119 -38 rlineto
          endchar
        </CharString>
        <CharString name="seven.numr">
          -245 268 -21 400 -20 23 -11 callgsubr
          148 247 rmoveto
          39 101 56 107 17 33 61 109 rlinecurve
          -36 50 rlineto
          -151 hlineto
          hintmask 10100000
          -41 -40 -20 callsubr
          hintmask 11000000
          -4 -3 rlineto
          -13 -74 -21 -92 0 vvcurveto
          61 4 12 43 9 6 39 5 rlinecurve
          53 6 -155 -252 6 -19 88 -27 rlineto
          endchar
        </CharString>
        <CharString name="seven.sinf">
          -245 -106 40 callsubr
          -127 -62 callsubr
        </CharString>
        <CharString name="seven.sups">
          -245 341 40 callsubr
          320 -62 callsubr
        </CharString>
        <CharString name="seven.tf">
          -97 10 -21 598 -20 24 -11 callgsubr
          215 -11 rmoveto
          55 143 79 152 38 63 103 170 rlinecurve
          -49 70 rlineto
          -228 hlineto
          hintmask 10100000
          -64 -61 4 0 hvcurveto
          -7 -5 rlineto
          -18 -106 -31 -133 0 vvcurveto
          84 6 20 65 13 11 61 6 rlinecurve
          100 9 -251 -389 8 -28 121 -38 rlineto
          endchar
        </CharString>
        <CharString name="seven.tosf">
          -107 -74 -21 598 -20 24 -11 callgsubr
          200 -95 rmoveto
          56 143 78 152 36 63 101 170 rlinecurve
          -49 70 rlineto
          -225 hlineto
          hintmask 10100000
          -63 -60 18 callsubr
          20 65 13 11 60 6 rlinecurve
          95 9 -246 -389 9 -28 120 -38 rlineto
          endchar
        </CharString>
        <CharString name="six">
          -81 callsubr
        </CharString>
        <CharString name="six.dnom">
          -218 -8 39 callgsubr
          338 -85 callgsubr
        </CharString>
        <CharString name="six.lf">
          -81 callsubr
        </CharString>
        <CharString name="six.numr">
          -218 246 85 180 -20 164 -20 hstem
          311 592 -85 callgsubr
        </CharString>
        <CharString name="six.sinf">
          -218 -128 39 callgsubr
          218 -85 callgsubr
        </CharString>
        <CharString name="six.sups">
          -218 319 39 callgsubr
          665 -85 callgsubr
        </CharString>
        <CharString name="six.tf">
          -81 callsubr
        </CharString>
</ttFont>
